<?xml version="1.0" standalone="no"?>
<!DOCTYPE svg PUBLIC "-//W3C//DTD SVG 1.1//EN" "http://www.w3.org/Graphics/SVG/1.1/DTD/svg11.dtd" >
<svg xmlns="http://www.w3.org/2000/svg" xmlns:xlink="http://www.w3.org/1999/xlink" version="1.1">
<metadata>
Created by FontForge 20170731 at Fri Aug 19 04:16:22 2022
 By Aleksey,,,
Copyright (c) Earlyfont. All rights reserved. Font designed by Earlyfont. 
</metadata>
<defs>
<font id="EF_hyunygothic" horiz-adv-x="161" >
  <font-face 
    font-family="EF_hyunygothic"
    font-weight="400"
    font-stretch="normal"
    units-per-em="2048"
    panose-1="2 0 5 3 0 0 0 0 0 0"
    ascent="1638"
    descent="-410"
    x-height="1061"
    cap-height="1341"
    bbox="-2370 -432 2071 1661"
    underline-thickness="102"
    underline-position="-307"
    unicode-range="U+0020-FFE6"
  />
<missing-glyph horiz-adv-x="745" 
d="M135 68h408v1228h-408v-1228zM68 0v1364h542v-1364h-542z" />
    <glyph glyph-name=".notdef" horiz-adv-x="745" 
d="M135 68h408v1228h-408v-1228zM68 0v1364h542v-1364h-542z" />
    <glyph glyph-name=".null" horiz-adv-x="0" 
 />
    <glyph glyph-name="nonmarkingreturn" horiz-adv-x="681" 
 />
    <glyph glyph-name="space" unicode=" " horiz-adv-x="409" 
d="M588 1757z" />
    <glyph glyph-name="exclam" unicode="!" horiz-adv-x="530" 
d="M106 -133v321h320v-321h-320zM86 1485h360l-20 -1127h-320z" />
    <glyph glyph-name="quotedbl" unicode="&#x22;" horiz-adv-x="1148" 
d="M745 1485h320l-197 -594h-319zM283 1485h321l-198 -594h-320z" />
    <glyph glyph-name="numbersign" unicode="#" horiz-adv-x="1732" 
d="M981 479l96 395h-321l-97 -395h322zM1665 874h-268l-97 -395h365v-155h-403l-111 -457h-320l111 457h-319l-111 -457h-322l111 457h-231v155h270l96 395h-366v156h403l113 455h319l-110 -455h319l111 455h319l-110 -455h231v-156z" />
    <glyph glyph-name="dollar" unicode="$" horiz-adv-x="1579" 
d="M1503 793h-321v421h-811v-460h989l143 -144v-481l-143 -143h-424v-119h-320v119h-421l-144 143v430h320v-418h811v457h-987l-144 143v486l144 143h421v115h320v-115h424l143 -143v-434z" />
    <glyph glyph-name="percent" unicode="%" horiz-adv-x="1654" 
d="M1307 92v309h-76v-309h76zM1380 557q102 0 174 -72t72 -174v-129q0 -101 -72 -173t-174 -72h-225q-101 0 -173 72q-73 73 -73 173v129q0 101 73 174q72 72 173 72h225zM426 928v307h-76v-307h76zM748 1018q0 -101 -73 -174q-72 -72 -173 -72h-226q-102 0 -174 72
q-71 71 -71 174v129q0 102 71 173q73 73 174 73h226q100 0 173 -73t73 -173v-129zM1038 1483h322l-742 -1618h-319z" />
    <glyph glyph-name="ampersand" unicode="&#x26;" horiz-adv-x="1710" 
d="M823 1237q-38 0 -71 -10q-39 -12 -70 -37q-36 -27 -55 -70q-21 -44 -21 -100t33 -123q29 -57 86 -127l33 -41l45 27q95 57 147 114q68 73 68 161t-64 149q-60 57 -131 57zM545 -53q47 -41 102 -58q54 -20 119 -20h2q152 0 268 61l80 41l-67 60q-18 16 -215 192
q-109 101 -193 185l-37 34l-41 -28q-67 -45 -96 -111q-29 -64 -29 -141q0 -67 29 -123q28 -54 78 -92zM735 -311q-103 0 -221 18q-114 21 -211 68q-95 46 -162 125q-61 73 -69 188q-6 108 14 178q23 73 66 125q46 53 106 90q70 47 141 80l68 33l-45 59q-85 107 -131 203
q-43 89 -43 168q0 113 43 184q44 75 121 119v2q77 45 180 66q109 20 229 20h2q113 0 215 -29q99 -27 174 -77q72 -50 113 -119q41 -67 41 -150v-2q0 -65 -29 -123q-34 -64 -82 -114q-59 -63 -122 -107q-72 -48 -152 -90l-76 -39l60 -59q64 -63 120 -113q55 -50 125 -108
l74 -68l25 98q24 90 30 201h353q-7 -105 -37 -215q-38 -128 -109 -235l-30 -48l43 -34q60 -51 77 -64l19 -16l-207 -215q-29 23 -39 32q-54 48 -86 76l-31 25l-37 -19q-113 -56 -235 -84q-129 -30 -285 -30z" />
    <glyph glyph-name="quotesingle" unicode="'" horiz-adv-x="716" 
d="M428 891h-319l196 594h322z" />
    <glyph glyph-name="parenleft" unicode="(" horiz-adv-x="894" 
d="M502 679q0 -228 88 -435q88 -208 248 -375h-2h-408q-246 370 -246 809q0 438 246 809h410q-159 -164 -248 -373q-88 -207 -88 -435z" />
    <glyph glyph-name="parenright" unicode=")" horiz-adv-x="894" 
d="M395 679q0 228 -88 435q-89 209 -248 373h410q246 -371 246 -809q0 -439 -246 -809h-408h-2q160 167 248 375q88 207 88 435z" />
    <glyph glyph-name="asterisk" unicode="*" horiz-adv-x="1544" 
d="M1430 874l-396 -129l248 -339l-258 -189l-244 336l-248 -340l-260 188l244 334l-399 131l98 303l395 -127v420h320v-413l401 129z" />
    <glyph glyph-name="plus" unicode="+" horiz-adv-x="1460" 
d="M893 946h489v-155h-489v-539h-322v539h-489v155h489v539h322v-539z" />
    <glyph glyph-name="comma" unicode="," horiz-adv-x="518" 
d="M373 -61q0 -13 -1 -22q-1 -12 -18 -47q-16 -33 -46 -60q-32 -29 -99 -49q-69 -21 -164 -21v100q6 -2 12 -2q1 0 31 2q20 1 41 12q19 9 39 31q20 21 31 56h-154v327h328v-327z" />
    <glyph glyph-name="hyphen" unicode="-" horiz-adv-x="1218" 
d="M82 561v156h1065v-156h-1065z" />
    <glyph glyph-name="period" unicode="." horiz-adv-x="518" 
d="M45 -61v327h328v-327h-328z" />
    <glyph glyph-name="slash" unicode="/" horiz-adv-x="1091" 
d="M756 1483h321l-741 -1618h-320z" />
    <glyph glyph-name="zero" unicode="0" horiz-adv-x="1691" 
d="M1323 23v1306h-954v-1306h954zM49 1341l144 144h1308l144 -144v-1331l-144 -143h-1308l-144 143v1331z" />
    <glyph glyph-name="one" unicode="1" horiz-adv-x="1226" 
d="M526 1485h320v-156v-1399h-320v1399h-342v156h342z" />
    <glyph glyph-name="two" unicode="2" horiz-adv-x="1824" 
d="M111 1341l143 144h1309l143 -144v-596l-143 -143h-1094v-579h1237v-156h-1452l-143 143v604l143 144h1094v571h-879v-444h-358v456z" />
    <glyph glyph-name="three" unicode="3" horiz-adv-x="1751" 
d="M1673 1341v-596l-65 -65l65 -66v-604l-143 -143h-1309l-143 143v457h358v-444h879v579h-879v156h879v571h-879v-444h-358v456l143 144h1309q6 -7 46 -47l49 -49q29 -31 48 -48z" />
    <glyph glyph-name="four" unicode="4" horiz-adv-x="1691" 
d="M983 475v782l-723 -782h723zM1303 475h342v-158h-342v-450h-320v450h-934v158l934 1010h320v-1010z" />
    <glyph glyph-name="five" unicode="5" horiz-adv-x="1763" 
d="M1679 1329h-1237v-571h1094l143 -144v-604l-143 -143h-1309l-143 143v457h358v-444h879v579h-1094l-143 143v596l143 144h1452v-156z" />
    <glyph glyph-name="six" unicode="6" horiz-adv-x="1705" 
d="M1292 602h-878v-579h878v579zM1651 885h-359v444h-878v-311v-260h1093l144 -144v-604l-144 -143h-1308l-144 143v1331l144 144h1308l144 -144v-456z" />
    <glyph glyph-name="seven" unicode="7" horiz-adv-x="1771" 
d="M88 1485h1595v-156l-620 -1462h-371l621 1462h-1225v156z" />
    <glyph glyph-name="eight" unicode="8" horiz-adv-x="1671" 
d="M1276 758v571h-879v-571h879zM1276 23v579h-879v-579h879zM1634 1341v-596l-65 -65l65 -66v-604l-143 -143h-1309l-143 143v604l65 66l-65 65v596l143 144h1309z" />
    <glyph glyph-name="nine" unicode="9" horiz-adv-x="1716" 
d="M420 758h878v571h-878v-571zM61 467h359v-444h878v319v260h-1093l-144 143v596l144 144h1308l144 -144v-1331l-144 -143h-1308l-144 143v457z" />
    <glyph glyph-name="colon" unicode=":" horiz-adv-x="620" 
d="M147 162v327h328v-327h-328zM147 856v328h328v-328h-328z" />
    <glyph glyph-name="semicolon" unicode=";" horiz-adv-x="620" 
d="M475 162q0 -13 -1 -22q-2 -15 -17 -47q-16 -33 -46 -60q-29 -27 -100 -48q-72 -22 -164 -22v100q6 -2 13 -2q2 0 6 0.5t11 1.5t13 2q21 3 41 11q18 8 39 30q20 21 31 56h-154v327h328v-327zM147 856v328h328v-328h-328z" />
    <glyph glyph-name="less" unicode="&#x3c;" horiz-adv-x="1140" 
d="M1044 1485l-585 -809l585 -809h-319l-586 809l586 809h319z" />
    <glyph glyph-name="equal" unicode="=" horiz-adv-x="1234" 
d="M86 360v156h1065v-156h-1065zM86 803v155h1065v-155h-1065z" />
    <glyph glyph-name="greater" unicode="&#x3e;" horiz-adv-x="1140" 
d="M420 1485l586 -809l-586 -809h-320l586 809l-586 809h320z" />
    <glyph glyph-name="question" unicode="?" horiz-adv-x="1695" 
d="M1518 1485l143 -144v-596l-143 -143h-476v-330h-358v486h619v571h-879v-444h-358v456l143 144h1309zM684 -133v321h358v-321h-358z" />
    <glyph glyph-name="at" unicode="@" horiz-adv-x="1712" 
d="M1520 1485l143 -144v-1218h-713v475h-172v-319h86v-156h-405v631h491v319h-172v-246h-319v402h813v-950h69v1050h-954v-1306h1276v-156h-1452l-143 143v1331l143 144h1309z" />
    <glyph glyph-name="A" unicode="A" horiz-adv-x="1507" 
d="M567 489h375l-188 582zM958 1485l523 -1618h-338l-150 467h-477l-151 -467h-336l522 1618h407z" />
    <glyph glyph-name="B" unicode="B" horiz-adv-x="1705" 
d="M1260 758v571h-775v-571h775zM1260 23v579h-775v-579h775zM1618 1341v-524l-143 -143l143 -144v-520l-143 -143h-1309v1618h1309z" />
    <glyph glyph-name="C" unicode="C" horiz-adv-x="1574" 
d="M1522 834h-359v495h-774v-1306h774v495h359v-508l-144 -143h-1165l-143 143v1331l143 144h1165l144 -144v-507z" />
    <glyph glyph-name="D" unicode="D" horiz-adv-x="1685" 
d="M1260 356v973h-775v-1306h775v333zM1475 1485q135 -138 143 -144v-1331l-143 -143h-1309v1618h1309z" />
    <glyph glyph-name="E" unicode="E" horiz-adv-x="1679" 
d="M1618 1329h-1133v-575h1133v-2v-154v-2h-1133v-573h1133v-156h-1452v156v573v2v154v2v575v156h319h1133v-156z" />
    <glyph glyph-name="F" unicode="F" horiz-adv-x="1658" 
d="M1618 1329h-1133v-577h1133v-156h-1133v-729h-319v729v156v577v156h319h1133v-156z" />
    <glyph glyph-name="G" unicode="G" horiz-adv-x="1679" 
d="M1542 907h-358v422h-774v-1306h774v573h-453v156h811v-742l-143 -143h-1166l-143 143v1331l143 144h1166l143 -144v-434z" />
    <glyph glyph-name="H" unicode="H" horiz-adv-x="1781" 
d="M1618 752v-156v-729h-322v729h-811v-729h-319v729v156v733h319v-733h811v733h322v-733z" />
    <glyph glyph-name="I" unicode="I" horiz-adv-x="608" 
d="M145 -133v1618h320v-1618h-320z" />
    <glyph glyph-name="J" unicode="J" horiz-adv-x="1333" 
d="M866 1485h320v-1475l-144 -143h-874l-143 143v508h358v-495h483v1462z" />
    <glyph glyph-name="K" unicode="K" horiz-adv-x="1523" 
d="M1524 1485l-811 -811l807 -807l-453 2l-582 577v-579h-319v1618h319v-584l584 584h455z" />
    <glyph glyph-name="L" unicode="L" horiz-adv-x="1347" 
d="M1327 23v-156h-1018l-143 143v1475h319v-1462h842z" />
    <glyph glyph-name="M" unicode="M" horiz-adv-x="1931" 
d="M1649 1485h112v-1618h-319v582v452v227l-355 -1261h-247l-355 1261v-227v-452v-3v-579h-319v1618h450l349 -1241l348 1241h336z" />
    <glyph glyph-name="N" unicode="N" horiz-adv-x="1794" 
d="M1296 1485h322v-1618h-184h-138h-79l-732 1341v-1341h-319v1618h170h149h68l743 -1366v1366z" />
    <glyph glyph-name="O" unicode="O" horiz-adv-x="1630" 
d="M1184 834v495h-774v-1306h774v811zM1399 1485q135 -138 143 -144v-1331l-143 -143h-1166l-143 143v1331l143 144h1166z" />
    <glyph glyph-name="P" unicode="P" horiz-adv-x="1658" 
d="M485 752h813v577h-813v-577zM1618 1341v-602l-143 -143h-990v-729h-319v1618h1309z" />
    <glyph glyph-name="Q" unicode="Q" horiz-adv-x="1617" 
d="M1184 983v346h-774v-1306h403l-172 651h217l172 -651h154v960zM1399 1485q135 -138 143 -144v-1331l-143 -143h-328l33 -123h-217l-33 123h-621l-143 143v1331l143 144h1166z" />
    <glyph glyph-name="R" unicode="R" horiz-adv-x="1638" 
d="M485 752h813v577h-813v-577zM1618 739l-143 -143h-93l236 -729h-338l-236 729h-559v-729h-319v1618h1309l143 -144v-602z" />
    <glyph glyph-name="S" unicode="S" horiz-adv-x="1579" 
d="M1499 907h-321v422h-811v-575h989l143 -144v-600l-143 -143h-1166l-143 143v432h320v-419h811v575h-988l-143 143v600l143 144h1166l143 -144v-434z" />
    <glyph glyph-name="T" unicode="T" horiz-adv-x="1263" 
d="M793 1485h419v-156h-419v-1462h-322v1462h-420v156h420h322z" />
    <glyph glyph-name="U" unicode="U" horiz-adv-x="1759" 
d="M1284 1485h322v-1475l-144 -143h-1165l-143 143v1475h319v-1462h811v1462z" />
    <glyph glyph-name="V" unicode="V" horiz-adv-x="1507" 
d="M1481 1485l-523 -1618h-407l-522 1618h336l151 -467l49 -156l189 -581l188 581l51 156l150 467h338z" />
    <glyph glyph-name="W" unicode="W" horiz-adv-x="1667" 
d="M1294 1485h338l-223 -1618h-340l-235 1239l-234 -1239h-342l-221 1618h336l139 -1006l164 1006h317l164 -1006z" />
    <glyph glyph-name="X" unicode="X" horiz-adv-x="1513" 
d="M1487 1485l-561 -809l561 -809h-338l-391 567l-393 -567h-336l561 809l-561 809h336l393 -565l391 565h338z" />
    <glyph glyph-name="Y" unicode="Y" horiz-adv-x="1513" 
d="M1149 1485h338l-561 -809l-6 -8v-801h-320v792l-10 17l-561 809h336l393 -565z" />
    <glyph glyph-name="Z" unicode="Z" horiz-adv-x="1660" 
d="M1556 1485v-156l-1116 -1306h1116v-156h-1452v156l1115 1306h-1115v156h1452z" />
    <glyph glyph-name="bracketleft" unicode="[" horiz-adv-x="1126" 
d="M1073 1329h-573v-1429h573v-156h-573h-320v156v1429v156h320h573v-156z" />
    <glyph glyph-name="backslash" unicode="\" horiz-adv-x="1091" 
d="M336 1483l741 -1618h-321l-740 1618h320z" />
    <glyph glyph-name="bracketright" unicode="]" horiz-adv-x="1126" 
d="M629 1485h319v-156v-1429v-156h-319h-574v156h574v1429h-574v156h574z" />
    <glyph glyph-name="asciicircum" unicode="^" horiz-adv-x="907" 
d="M885 780h-336l-94 291l-95 -291h-335l227 705h405z" />
    <glyph glyph-name="underscore" unicode="_" horiz-adv-x="962" 
d="M37 -133v156h893v-156h-893z" />
    <glyph glyph-name="grave" unicode="`" horiz-adv-x="661" 
d="M389 891h-319l196 594h322z" />
    <glyph glyph-name="a" unicode="a" horiz-adv-x="1689" 
d="M1204 23v464h-772v-464h772zM1382 1061l144 -143v-908l-144 -143h-1165l-143 143v490l143 143h987v262h-772v-184h-358v197l143 143h1165z" />
    <glyph glyph-name="b" unicode="b" horiz-adv-x="1644" 
d="M1217 643v262h-775v-882h775v620zM1432 1061l143 -143v-908l-143 -143h-1166l-143 143v162v1313h319v-424h990z" />
    <glyph glyph-name="c" unicode="c" horiz-adv-x="1550" 
d="M1157 305h359v-295l-144 -143h-1165l-144 143v908l144 143h1165l144 -143v-293h-359v280h-774v-882h774v282z" />
    <glyph glyph-name="d" unicode="d" horiz-adv-x="1646" 
d="M1204 643v262h-772v-882h772v620zM1204 1485h322v-1313v-162l-144 -143h-1165l-143 143v908l143 143h987v424z" />
    <glyph glyph-name="e" unicode="e" horiz-adv-x="1648" 
d="M414 539h774v366h-774v-366zM1546 539v-156h-1132v-360h774v282h358v-295l-143 -143h-1165l-144 143v908l144 143h1165l143 -143v-379z" />
    <glyph glyph-name="f" unicode="f" horiz-adv-x="1458" 
d="M1278 1067h184v-156h-983v-1044h-319v1044h-150v156h150v274l143 144h1024v-156h-848v-262h799z" />
    <glyph glyph-name="g" unicode="g" horiz-adv-x="1646" 
d="M1204 317v588h-772v-588h772zM1382 1061l144 -143v-1031l-144 -143h-1165l-143 143v197h358v-184h772v262h-987l-143 143v613l143 143h1165z" />
    <glyph glyph-name="h" unicode="h" horiz-adv-x="1738" 
d="M1452 1061l143 -143v-1051h-358v1038h-774v-1038h-320v305v1313h320v-424h989z" />
    <glyph glyph-name="i" unicode="i" horiz-adv-x="477" 
d="M80 1165v320h319v-320h-319zM80 -133v1194h319v-1194h-319z" />
    <glyph glyph-name="j" unicode="j" horiz-adv-x="1079" 
d="M700 905v156h320v-1051l-143 -143h-875l-143 143v508h358v-495h483v882zM707 1165v320h319v-320h-319z" />
    <glyph glyph-name="k" unicode="k" horiz-adv-x="1523" 
d="M1501 1014l-684 -584l684 -584h-454l-584 500v-479h-320v1618h320v-584v-387l584 500h454z" />
    <glyph glyph-name="l" unicode="l" horiz-adv-x="563" 
d="M123 -133v1618h319v-1618h-319z" />
    <glyph glyph-name="m" unicode="m" horiz-adv-x="1871" 
d="M1587 1061l144 -143v-1051h-359v1038h-278v-1038h-359v1038h-272v-274v-336v-428h-320v1194h807l56 -53v53h581z" />
    <glyph glyph-name="n" unicode="n" horiz-adv-x="1738" 
d="M1452 1061l143 -143v-1051h-358v1038h-774v-1038h-320v305v889h1309z" />
    <glyph glyph-name="o" unicode="o" horiz-adv-x="1589" 
d="M1167 221v684h-774v-882h774v198zM1382 1061l144 -143v-908l-144 -143h-1165l-143 143v908l143 143h1165z" />
    <glyph glyph-name="p" unicode="p" horiz-adv-x="1669" 
d="M1237 317v588h-774v-588h774zM1452 1061l143 -143v-613l-143 -143h-989v-418h-320v1174l144 143h1165z" />
    <glyph glyph-name="q" unicode="q" horiz-adv-x="1667" 
d="M432 905v-588h772v588h-772zM74 918l143 143h1165l144 -143v-1174h-322v418h-987l-143 143v613z" />
    <glyph glyph-name="r" unicode="r" horiz-adv-x="1593" 
d="M1595 625h-358v280h-774v-1038h-320v1051l144 143h1165l143 -143v-293z" />
    <glyph glyph-name="s" unicode="s" horiz-adv-x="1611" 
d="M1389 543l143 -144v-389l-143 -143h-1166l-143 143v295h358v-282h772v364h-987l-143 143v388l143 143h1166l143 -143v-293h-358v280h-775v-362h990z" />
    <glyph glyph-name="t" unicode="t" horiz-adv-x="1290" 
d="M1266 905h-842v-882h483v495h359v-508l-144 -143h-874l-144 143v895h-86v156h86v416h320v-416h842v-156z" />
    <glyph glyph-name="u" unicode="u" horiz-adv-x="1716" 
d="M463 1061v-1038h774v1030h358v-1043l-143 -143h-1165l-144 143v1051h320z" />
    <glyph glyph-name="v" unicode="v" horiz-adv-x="1486" 
d="M1133 1061h337l-522 -1194h-407l-523 1194h336l389 -905z" />
    <glyph glyph-name="w" unicode="w" horiz-adv-x="1519" 
d="M1163 1061h336l-164 -1194h-211h-125h-6l-233 835l-234 -835h-6h-125h-211l-164 1194h336l80 -582l6 -47l199 629h18h201h17l198 -629l6 47z" />
    <glyph glyph-name="x" unicode="x" horiz-adv-x="1495" 
d="M1485 1061l-559 -596l559 -598h-359l-378 407l-379 -407h-357l557 598l-557 596h357l379 -406l378 406h359z" />
    <glyph glyph-name="y" unicode="y" horiz-adv-x="1622" 
d="M1253 1061h357l-545 -610l-174 -195l-457 -512h-356l569 639l-633 678h357l452 -483l60 69z" />
    <glyph glyph-name="z" unicode="z" horiz-adv-x="1599" 
d="M1526 1061v-156l-1086 -882h1086v-156h-1452v156h10l1083 882h-1093v156h1452z" />
    <glyph glyph-name="braceleft" unicode="{" horiz-adv-x="1005" 
d="M958 1329h-389v-1429h389v-156h-389h-321v156v698h-191v156h191v575v156h321h389v-156z" />
    <glyph glyph-name="bar" unicode="|" horiz-adv-x="555" 
d="M119 -133v1618h319v-1618h-319z" />
    <glyph glyph-name="braceright" unicode="}" horiz-adv-x="1005" 
d="M760 631h190v-156h-190v-575v-156h-320h-391v156h391v1429h-391v156h391h320v-156v-698z" />
    <glyph glyph-name="asciitilde" unicode="~" horiz-adv-x="1476" 
d="M1270 854l137 -283q-23 -25 -66 -59q-60 -47 -114 -74q-62 -31 -123 -47q-58 -14 -123 -16q-69 0 -119 20q-48 18 -121 54h-2q-70 32 -133 57q-83 32 -172 39h-2h-6q-72 0 -156 -78q-28 -28 -96 -98l-135 266q30 37 59 63q43 40 103 76q54 32 114 50t123 18q62 0 123 -23
q64 -23 133 -51q90 -40 135 -59q78 -32 154 -39h12q40 0 84 22q42 22 86 60q52 43 84 79q14 16 21 23z" />
    <glyph glyph-name="exclamdown" unicode="&#xa1;" horiz-adv-x="2048" 
d="M921 1094v221h208v-221h-208zM921 111l22 791h166l18 -791v-247h-206v247z" />
    <glyph glyph-name="currency" unicode="&#xa4;" horiz-adv-x="2048" 
d="M1483 614q0 -148 -85 -258l192 -191l-133 -133l-197 195q-103 -62 -236 -62q-132 0 -238 62l-195 -195l-133 133l192 191q-83 113 -83 258q0 144 83 257l-192 193l133 133l195 -199q110 66 237 66h3q126 0 234 -66l197 199l133 -133l-192 -193q85 -110 85 -257zM1295 614
q0 131 -77 208q-78 78 -194 78q-115 0 -193 -78t-78 -208q0 -129 78 -207t193 -78q116 0 194 78q77 77 77 207z" />
    <glyph glyph-name="section" unicode="&#xa7;" horiz-adv-x="2048" 
d="M1015 1239q-72 0 -115 -38t-43 -103q0 -62 40 -102t126 -59q185 -44 272 -117q87 -74 87 -217q0 -163 -147 -240q129 -78 129 -235q0 -126 -90 -202q-89 -76 -241 -76q-151 0 -242 76q-92 77 -92 200v14h176v-11q0 -62 45 -101t113 -39q71 0 115 38q43 37 43 102
q0 62 -43 100q-41 36 -136 61q-184 48 -264 118q-82 71 -82 213q0 161 144 241q-128 75 -128 237q0 127 91 203q92 77 242 77t241 -77t91 -201v-14h-175v11q0 60 -45 101q-44 40 -112 40zM840 632q0 -92 52 -131q51 -38 204 -76q110 49 110 169q0 89 -55 132t-201 73
q-110 -48 -110 -167z" />
    <glyph glyph-name="dieresis" unicode="&#xa8;" horiz-adv-x="2048" 
d="M843 1255v-248h-217v248h217zM1267 1255v-248h-217v248h217z" />
    <glyph glyph-name="ordfeminine" unicode="&#xaa;" horiz-adv-x="2048" 
d="M668 484v139h712v-139h-712zM1162 835q-45 -100 -212 -100q-121 0 -195 62t-74 178q0 115 74 178q73 63 193 63q169 0 214 -101v153q0 129 -134 129q-59 0 -93 -29q-33 -28 -36 -84h-177q7 115 85 181t221 66q147 0 228 -72t81 -193v-407q0 -50 17 -106h-179
q-13 27 -13 82zM858 975q0 -52 40 -81q38 -28 111 -28t113 28t40 81q0 52 -40 80q-41 29 -113 29q-71 0 -111 -29t-40 -80z" />
    <glyph glyph-name="degree" unicode="&#xb0;" horiz-adv-x="2048" 
d="M1305 1061q0 -126 -76 -203q-77 -79 -206 -79q-127 0 -204 79q-76 77 -76 203q0 124 76 203t204 79q130 0 206 -79t76 -203zM1156 1061q0 65 -37 103q-37 39 -96 39q-58 0 -94 -39q-37 -40 -37 -103q0 -65 37 -105q36 -39 94 -39q59 0 96 39q37 38 37 105z" />
    <glyph glyph-name="plusminus" unicode="&#xb1;" horiz-adv-x="2048" 
d="M574 664v166h356v367h188v-367h356v-166h-356v-365h-188v365h-356zM574 6v168h900v-168h-900z" />
    <glyph glyph-name="uni00B2" unicode="&#xb2;" horiz-adv-x="2048" 
d="M594 1225q0 61 -35 99t-96 38q-64 0 -99 -38q-34 -37 -34 -99v-33h-177v35q0 136 83 215q85 80 227 80q137 0 223 -80q85 -79 85 -215q0 -70 -26 -125q-28 -59 -83 -120l-254 -286h361v-153h-597v129l365 417q57 63 57 136z" />
    <glyph glyph-name="uni00B3" unicode="&#xb3;" horiz-adv-x="2048" 
d="M478 1381q-61 0 -94 -33t-33 -90v-15h-173v29q0 115 82 187q81 71 218 71q134 0 215 -72q82 -73 82 -189q0 -159 -146 -207q172 -50 172 -234q0 -127 -86 -210t-237 -83q-155 0 -239 83q-85 84 -85 212v35h177v-29q0 -71 40 -112t107 -41q66 0 105 41q39 40 39 108
q0 75 -40 113t-111 38h-80v147h80q60 0 96 33q34 31 34 91t-32 93q-33 34 -91 34z" />
    <glyph glyph-name="acute" unicode="&#xb4;" horiz-adv-x="2048" 
d="M1145 1323l-59 -267h-171l58 267h172z" />
    <glyph glyph-name="paragraph" unicode="&#xb6;" horiz-adv-x="2048" 
d="M867 1382h458v-1585h-141v1447h-94v-1447h-142v687h-56q-197 0 -323 120q-125 119 -125 325v12q0 207 113 325q112 116 310 116z" />
    <glyph glyph-name="periodcentered" unicode="&#xb7;" horiz-adv-x="2048" 
d="M1137 738v-247h-226v247h226z" />
    <glyph glyph-name="cedilla" unicode="&#xb8;" horiz-adv-x="2048" 
d="M808 -61l61 115q67 -52 153 -52q107 0 107 76q0 84 -122 84q-58 0 -83 -12l-33 40l83 171h151l-51 -103q215 -24 215 -186q0 -93 -68 -148t-184 -55q-131 0 -229 70z" />
    <glyph glyph-name="uni00B9" unicode="&#xb9;" horiz-adv-x="2048" 
d="M535 544h-179v793l-202 -94v156l230 107h151v-962z" />
    <glyph glyph-name="ordmasculine" unicode="&#xba;" horiz-adv-x="2048" 
d="M668 438v138h712v-138h-712zM1363 1085q0 -195 -85 -296q-86 -102 -254 -102q-170 0 -256 102q-85 101 -85 296q0 194 85 297t256 103q168 0 254 -104q85 -103 85 -296zM1188 1085q0 140 -38 200q-39 62 -126 62q-88 0 -127 -61q-39 -62 -39 -201q0 -142 39 -202t127 -60
q87 0 126 61q38 60 38 201z" />
    <glyph glyph-name="onequarter" unicode="&#xbc;" horiz-adv-x="2048" 
d="M597 378h-179v793l-203 -94v157l231 107h151v-963zM1225 1341h174l-708 -1453h-175zM1734 224h100v-150h-100v-186h-175v186h-415v137l393 639h197v-626zM1559 224v379l-234 -379h234z" />
    <glyph glyph-name="onehalf" unicode="&#xbd;" horiz-adv-x="2048" 
d="M1218 1340h173l-708 -1451h-175zM607 378h-178v792l-203 -94v157l230 107h151v-962zM1715 326l-254 -286h361v-151h-597v129l365 415q57 66 57 138q0 60 -35 98t-98 38t-97 -37t-34 -99v-33h-178v35q0 135 83 214t226 79q140 0 225 -79t85 -214q0 -72 -25 -126t-84 -121z
" />
    <glyph glyph-name="threequarters" unicode="&#xbe;" horiz-adv-x="2048" 
d="M844 647q0 -128 -86 -211q-85 -82 -237 -82q-153 0 -238 83q-84 83 -84 211v36h177v-30q0 -69 39 -111t106 -42q68 0 107 41q39 40 39 108q0 75 -40 113t-111 38h-80v148h80q63 0 96 32q35 33 35 91q0 60 -33 94t-93 34q-58 0 -92 -34q-33 -33 -33 -90v-15h-173v30
q0 114 82 186q83 72 216 72q135 0 216 -72t81 -190q0 -159 -144 -206q170 -50 170 -234zM1753 215h99v-149h-99v-186h-176v186h-414v136l392 640h198v-627zM1577 215v380l-234 -380h234zM1330 1332h174l-708 -1452h-175z" />
    <glyph glyph-name="questiondown" unicode="&#xbf;" horiz-adv-x="2048" 
d="M599 285q0 119 42 200q43 83 139 167q90 78 122 135q31 55 31 136v50h203v-65q0 -112 -39 -185q-40 -76 -148 -169q-83 -74 -114 -130t-31 -135q0 -110 60 -173t161 -63t160 65q61 67 61 175h203v-8q0 -182 -112 -295q-113 -114 -312 -114q-201 0 -313 114
q-113 115 -113 295zM931 1131v222h206v-222h-206z" />
    <glyph glyph-name="AE" unicode="&#xc6;" horiz-adv-x="2048" 
d="M1904 -111h-872v319h-485l-164 -319h-237l757 1451h990v-186h-645v-432h571v-184h-571v-465h656v-184zM1032 392v756l-391 -756h391z" />
    <glyph glyph-name="Eth" unicode="&#xd0;" horiz-adv-x="2048" 
d="M420 690h129v651h520q133 0 235 -41q101 -41 161 -107q62 -68 97 -163q37 -101 49 -196q12 -98 12 -220q0 -133 -12 -221q-13 -96 -50 -196q-36 -97 -97 -163q-62 -66 -160 -106q-99 -40 -235 -40h-520v651h-129v151zM1408 614q0 289 -81 415q-80 125 -275 125h-287v-464
h259v-151h-259v-465h287q194 0 275 125t81 415z" />
    <glyph glyph-name="multiply" unicode="&#xd7;" horiz-adv-x="2048" 
d="M1303 195l-288 293l-285 -293l-126 121l290 295l-290 295l126 124l285 -293l288 293l125 -124l-287 -295l287 -295z" />
    <glyph glyph-name="Oslash" unicode="&#xd8;" horiz-adv-x="2048" 
d="M659 -184h-164l116 211q-151 179 -151 580q0 750 564 750q180 0 300 -75l65 118h164l-120 -212q155 -170 155 -581q0 -750 -564 -750q-172 0 -300 74zM674 607q0 -259 55 -378l498 881q-77 61 -203 61q-188 0 -269 -133q-81 -134 -81 -431zM1374 607q0 248 -55 376
l-498 -883q79 -57 203 -57q188 0 269 134q81 133 81 430z" />
    <glyph glyph-name="Thorn" unicode="&#xde;" horiz-adv-x="2048" 
d="M727 1340v-271h349q218 0 340 -120q120 -119 120 -336q0 -215 -120 -335t-340 -120h-349v-269h-215v1451h215zM727 343h321q134 0 203 70q70 72 70 200q0 129 -70 201q-69 70 -203 70h-321v-541z" />
    <glyph glyph-name="germandbls" unicode="&#xdf;" horiz-adv-x="2048" 
d="M1206 620q139 -21 233 -115q92 -92 92 -254q0 -183 -120 -285t-328 -102q-107 0 -184 20v185q69 -20 166 -20q121 0 186 56q66 57 66 157q0 127 -91 197q-92 71 -244 71h-39v180h53q127 0 187 62t60 165q0 107 -68 174t-186 67q-122 0 -190 -68t-68 -190v-1032h-214v1034
q0 195 122 319t350 124q223 0 347 -122q123 -122 123 -301q0 -120 -68 -207q-68 -88 -185 -115z" />
    <glyph glyph-name="ae" unicode="&#xe6;" horiz-adv-x="2048" 
d="M1826 615q0 -37 -2 -61h-711q12 -318 256 -318q97 0 154 44q60 46 73 127h208q-27 -160 -139 -248q-111 -87 -296 -87q-248 0 -346 173q-45 -84 -145 -129q-98 -44 -237 -44q-202 0 -311 86q-107 85 -107 242q0 155 103 242q105 88 282 88q109 0 192 -36q80 -34 108 -99
v173q0 108 -56 165q-57 58 -167 58q-100 0 -153 -43t-64 -123h-207q14 155 121 243q109 89 301 89q123 0 212 -46q91 -47 135 -134q99 180 339 180q227 0 342 -141q115 -140 115 -401zM667 228q241 0 241 172q0 83 -61 128t-180 45q-117 0 -179 -45q-61 -45 -61 -128
q0 -172 240 -172zM1115 702h503q-15 291 -251 291q-234 0 -252 -291z" />
    <glyph glyph-name="eth" unicode="&#xf0;" horiz-adv-x="2048" 
d="M1208 1195q142 -130 208 -326q67 -199 67 -474q0 -261 -114 -402q-115 -142 -345 -142t-345 142q-114 141 -114 402q0 272 109 406q110 136 303 136q170 0 244 -100q-44 156 -173 260l-177 -107l-58 91l139 83q-78 46 -166 79l114 134q124 -49 218 -112l167 103l59 -90z
M1024 19q136 0 195 95t59 281t-59 279q-60 95 -195 95q-137 0 -197 -95q-60 -94 -60 -279q0 -187 60 -281q60 -95 197 -95z" />
    <glyph glyph-name="divide" unicode="&#xf7;" horiz-adv-x="2048" 
d="M1077 1079v-234h-210v234h210zM523 528v168h899v-168h-899zM1077 379v-234h-210v234h210z" />
    <glyph glyph-name="oslash" unicode="&#xf8;" horiz-adv-x="2048" 
d="M1337 1048q146 -140 146 -433q0 -263 -115 -403q-116 -141 -344 -141q-118 0 -205 37l-51 -92h-148l91 162q-146 135 -146 437q0 261 115 401q116 141 344 141q120 0 203 -38l51 93h148zM812 365l332 600q-51 24 -120 24q-138 0 -196 -94t-58 -280q0 -160 42 -250z
M1024 237q138 0 196 96q58 95 58 282q0 161 -44 247l-330 -601q54 -24 120 -24z" />
    <glyph glyph-name="thorn" unicode="&#xfe;" horiz-adv-x="2048" 
d="M1070 1175q197 0 305 -136q108 -137 108 -406q0 -273 -108 -408q-109 -136 -305 -136q-112 0 -191 50q-78 49 -109 134v-610h-205v1902h205v-576q32 87 109 136q79 50 191 50zM1024 255q138 0 196 95t58 283q0 185 -58 279q-59 95 -196 95t-196 -95q-58 -94 -58 -279
q0 -188 58 -283t196 -95z" />
    <glyph glyph-name="glyph507" unicode="&#x111;" horiz-adv-x="2048" 
d="M1425 1220h115v-137h-115v-1181h-204v160q-32 -86 -110 -136q-79 -50 -191 -50q-197 0 -305 136t-108 408q0 270 108 406t305 136q112 0 191 -50q78 -50 110 -136v307h-284v137h284v133h204v-133zM966 44q137 0 196 95t59 281q0 184 -60 279t-195 95q-136 0 -196 -95
t-60 -279q0 -186 60 -281t196 -95z" />
    <glyph glyph-name="glyph418" unicode="&#x126;" horiz-adv-x="2048" 
d="M389 1122h131v218h216v-218h577v218h215v-218h131v-151h-131v-1082h-216v649h-576v-649h-216v1082h-131v151zM736 724h577v247h-577v-247z" />
    <glyph glyph-name="glyph509" unicode="&#x127;" horiz-adv-x="2048" 
d="M1161 949q173 0 265 -107t92 -306v-647h-204v627q0 265 -205 265q-117 0 -189 -89q-72 -88 -72 -248v-555h-205v1182h-114v136h114v133h205v-133h282v-136h-282v-327q35 96 114 150q80 55 199 55z" />
    <glyph glyph-name="glyph510" unicode="&#x131;" horiz-adv-x="2048" 
d="M922 -111v1036h205v-1036h-205z" />
    <glyph glyph-name="glyph419" unicode="&#x132;" horiz-adv-x="2048" 
d="M576 1353v-1453h-216v1453h216zM1227 -124q-219 0 -338 122t-119 348v13h215q6 -298 244 -298q243 0 243 313v979h216v-1007q0 -225 -121 -348q-120 -122 -340 -122z" />
    <glyph glyph-name="glyph511" unicode="&#x133;" horiz-adv-x="2048" 
d="M681 40v1036h204v-1036h-204zM681 1271v220h204v-220h-204zM1162 1271v220h204v-220h-204zM1162 -93v1169h204v-1176q0 -310 -320 -310q-32 0 -92 4v162h70q70 0 104 36q34 35 34 115z" />
    <glyph glyph-name="glyph512" unicode="&#x138;" horiz-adv-x="2048" 
d="M1069 427l389 -538h-230l-328 459h-104v-459h-204v1036h204v-417h105l286 417h225z" />
    <glyph glyph-name="glyph420" unicode="&#x13f;" horiz-adv-x="2048" 
d="M588 -112v1453h216v-1269h656v-184h-872zM1265 778v-219h-216v219h216z" />
    <glyph glyph-name="glyph513" unicode="&#x140;" horiz-adv-x="2048" 
d="M751 -112v1453h205v-1453h-205zM1081 559v219h216v-219h-216z" />
    <glyph glyph-name="glyph421" unicode="&#x141;" horiz-adv-x="2048" 
d="M525 337v170l126 64v769h215v-655l371 196v-170l-370 -195v-443h656v-184h-872v512z" />
    <glyph glyph-name="glyph514" unicode="&#x142;" horiz-adv-x="2048" 
d="M1125 741l164 86v-153l-164 -84v-701h-204v594l-162 -83v153l162 83v704h204v-599z" />
    <glyph glyph-name="glyph521" unicode="&#x149;" horiz-adv-x="2048" 
d="M719 1340v-240q0 -202 -219 -228v94q57 9 83 41q27 33 27 100h-99v233h208zM1191 949q173 0 265 -107t92 -306v-647h-204v560q0 177 -42 252t-152 75q-119 0 -196 -85t-77 -247v-555h-204v1036h204v-181q34 94 115 150q79 55 199 55z" />
    <glyph glyph-name="glyph427" unicode="&#x14a;" horiz-adv-x="2048" 
d="M1323 -11v119l-599 1081v-1075h-214v1451h219l595 -1079v1079h214v-1589q0 -312 -320 -312q-37 0 -91 4v177h59q70 0 103 34q34 36 34 110z" />
    <glyph glyph-name="glyph520" unicode="&#x14b;" horiz-adv-x="2048" 
d="M1106 1370q173 0 265 -107t92 -306v-787q0 -311 -320 -311q-66 0 -91 5v161h68q71 0 105 35t34 112v765q0 137 -51 201t-154 64q-117 0 -189 -89q-73 -90 -73 -248v-557h-204v1038h204v-180q34 94 115 149q80 55 199 55z" />
    <glyph glyph-name="glyph423" unicode="&#x152;" horiz-adv-x="2048" 
d="M167 614q0 113 13 219q12 95 49 196q36 98 96 164t161 107q102 41 236 41h1148v-187h-645v-431h571v-184h-571v-465h656v-186h-1159q-134 0 -236 41q-103 42 -161 105q-60 66 -96 163q-38 102 -49 196q-13 107 -13 221zM381 614q0 -290 81 -415t278 -125h269v1080h-269
q-194 0 -277 -126q-82 -125 -82 -414z" />
    <glyph glyph-name="glyph516" unicode="&#x153;" horiz-adv-x="2048" 
d="M1840 615q0 -43 -2 -61h-712q9 -318 258 -318q95 0 152 44q59 45 75 127h207q-27 -159 -139 -247t-291 -88q-263 0 -365 199q-48 -95 -142 -147t-221 -52q-223 0 -337 141q-115 142 -115 402q0 259 115 401q114 141 337 141q127 0 222 -53q94 -52 141 -150q47 98 141 150
q95 53 222 53q224 0 339 -141q115 -140 115 -401zM667 237q137 0 195 96q60 98 60 282q0 185 -60 279q-60 95 -195 95q-136 0 -196 -95q-60 -94 -60 -279q0 -186 60 -282t196 -96zM1128 702h503q-15 291 -250 291t-253 -291z" />
    <glyph glyph-name="glyph426" unicode="&#x166;" horiz-adv-x="2048" 
d="M700 553v153h217v448h-409v186h1032v-186h-409v-448h219v-153h-219v-664h-214v664h-217z" />
    <glyph glyph-name="glyph519" unicode="&#x167;" horiz-adv-x="2048" 
d="M1345 825h-286v-247h230v-138h-230v-168q0 -97 40 -131q39 -33 142 -33h104v-162q-50 -4 -142 -4q-187 0 -268 66t-81 229v203h-123v138h123v247h-151v168h151v293h205v-293h286v-168z" />
    <glyph glyph-name="glyph91" unicode="&#x2c7;" horiz-adv-x="2048" 
d="M1107 1022h-176l-245 335h181l153 -188l153 188h181z" />
    <glyph glyph-name="glyph100" unicode="&#x2d0;" horiz-adv-x="2048" 
d="M1055 824l-227 326h444zM828 79l227 324l217 -324h-444z" />
    <glyph glyph-name="glyph92" unicode="&#x2d8;" horiz-adv-x="2048" 
d="M985 1038q-138 0 -225 82t-94 228h177q7 -160 142 -160t142 160h175q-8 -148 -92 -228q-87 -82 -225 -82z" />
    <glyph glyph-name="glyph95" unicode="&#x2d9;" horiz-adv-x="2048" 
d="M1107 1362v-220h-216v220h216z" />
    <glyph glyph-name="glyph94" unicode="&#x2da;" horiz-adv-x="2048" 
d="M1250 1189q0 -99 -62 -157t-161 -58q-100 0 -162 58q-63 58 -63 157q0 102 63 159t162 57q98 0 161 -57q62 -56 62 -159zM1114 1189q0 46 -23 72t-64 26q-42 0 -66 -26q-24 -25 -24 -72q0 -45 24 -70t66 -25q40 0 64 25q23 24 23 70z" />
    <glyph glyph-name="glyph97" unicode="&#x2db;" horiz-adv-x="2048" 
d="M927 341h166q-87 -49 -126 -102q-42 -57 -42 -110v-9q0 -42 30 -69t86 -27q79 0 133 48l70 -105q-74 -77 -218 -77q-121 0 -189 53q-69 54 -69 149v15q0 70 43 132q44 64 116 102z" />
    <glyph glyph-name="glyph93" unicode="&#x2dd;" horiz-adv-x="2048" 
d="M929 1362l-66 -306h-172l67 306h171zM1281 1362l-66 -306h-172l67 306h171z" />
    <glyph glyph-name="glyph220" unicode="&#x391;" horiz-adv-x="2048" 
d="M1147 1340l490 -1451h-223l-103 321h-575l-102 -321h-223l489 1451h247zM793 394h462l-232 730z" />
    <glyph glyph-name="glyph221" unicode="&#x392;" horiz-adv-x="2048" 
d="M1083 -112h-572v1453h540q217 0 331 -99q112 -97 112 -287q0 -121 -59 -203q-58 -80 -161 -110q123 -26 193 -118q69 -91 69 -227q0 -409 -453 -409zM1280 941q0 113 -67 163t-204 50h-282v-427h282q137 0 204 50t67 164zM1320 307q0 122 -67 179t-217 57h-309v-470h309
q149 0 217 56q67 55 67 178z" />
    <glyph glyph-name="glyph222" unicode="&#x393;" horiz-adv-x="2048" 
d="M595 1341h858v-187h-643v-1266h-215v1453z" />
    <glyph glyph-name="glyph223" unicode="&#x394;" horiz-adv-x="2048" 
d="M902 1340h247l489 -1451h-1226zM1357 72l-331 1050l-334 -1050h665z" />
    <glyph glyph-name="glyph224" unicode="&#x395;" horiz-adv-x="2048" 
d="M588 -114v1453h861v-187h-645v-429h571v-186h-571v-467h656v-184h-872z" />
    <glyph glyph-name="glyph225" unicode="&#x396;" horiz-adv-x="2048" 
d="M551 56l679 1098h-659v187h917v-170l-677 -1098h686v-185h-946v168z" />
    <glyph glyph-name="glyph226" unicode="&#x397;" horiz-adv-x="2048" 
d="M1312 -112v651h-576v-651h-216v1453h216v-616h576v616h216v-1453h-216z" />
    <glyph glyph-name="glyph227" unicode="&#x398;" horiz-adv-x="2048" 
d="M1588 614q0 -750 -564 -750q-130 0 -232 41q-100 41 -162 108q-64 70 -102 167q-39 100 -54 203q-14 98 -14 231q0 751 564 751t564 -751zM1374 614q0 298 -82 431t-268 133q-189 0 -270 -134t-81 -430t80 -430t271 -134q186 0 268 133t82 431zM808 528v171h431v-171
h-431z" />
    <glyph glyph-name="glyph228" unicode="&#x399;" horiz-adv-x="2048" 
d="M1132 1341v-1453h-216v1453h216z" />
    <glyph glyph-name="glyph229" unicode="&#x39a;" horiz-adv-x="2048" 
d="M1497 1341l-465 -708l527 -745h-241l-457 651h-157v-651h-215v1453h215v-616h157l400 616h236z" />
    <glyph glyph-name="glyph230" unicode="&#x39b;" horiz-adv-x="2048" 
d="M1636 -111h-223l-389 1233l-390 -1233h-223l490 1451h247z" />
    <glyph glyph-name="glyph231" unicode="&#x39c;" horiz-adv-x="2048" 
d="M1126 -112h-204l-408 1016v-1016h-212v1453h235l488 -1219l488 1219h233v-1453h-212v1016z" />
    <glyph glyph-name="glyph232" unicode="&#x39d;" horiz-adv-x="2048" 
d="M1540 -111h-218l-597 1071v-1071h-214v1451h220l595 -1073v1073h214v-1451z" />
    <glyph glyph-name="glyph233" unicode="&#x39e;" horiz-adv-x="2048" 
d="M523 -112v184h1001v-184h-1001zM534 1154v187h981v-187h-981zM608 539v186h833v-186h-833z" />
    <glyph glyph-name="glyph234" unicode="&#x39f;" horiz-adv-x="2048" 
d="M1588 614q0 -750 -564 -750q-130 0 -232 41q-100 41 -162 108q-64 70 -102 167q-39 100 -54 203q-14 98 -14 231q0 751 564 751t564 -751zM1374 614q0 298 -82 431t-268 133q-189 0 -270 -134t-81 -430t80 -430t271 -134q186 0 268 133t82 431z" />
    <glyph glyph-name="glyph235" unicode="&#x3a0;" horiz-adv-x="2048" 
d="M1312 -112v1266h-576v-1266h-216v1453h1008v-1453h-216z" />
    <glyph glyph-name="glyph236" unicode="&#x3a1;" horiz-adv-x="2048" 
d="M1075 430h-348v-542h-216v1453h564q217 0 340 -121q121 -120 121 -335q0 -214 -121 -335q-120 -120 -340 -120zM727 614h321q134 0 203 71t69 200q0 131 -69 200t-203 69h-321v-540z" />
    <glyph glyph-name="glyph237" unicode="&#x3a3;" horiz-adv-x="2048" 
d="M568 76l358 561l-358 516v188h911v-187h-656l330 -481v-73l-334 -528h660v-184h-911v188z" />
    <glyph glyph-name="glyph238" unicode="&#x3a4;" horiz-adv-x="2048" 
d="M508 1154v187h1032v-187h-407v-1266h-216v1266h-409z" />
    <glyph glyph-name="glyph239" unicode="&#x3a5;" horiz-adv-x="2048" 
d="M1023 655l365 686h226l-483 -880v-573h-215v573l-483 880h226z" />
    <glyph glyph-name="glyph240" unicode="&#x3a6;" horiz-adv-x="2048" 
d="M1130 1341v-220q271 -14 423 -139q154 -127 154 -368q0 -242 -153 -369q-150 -125 -424 -139v-218h-214v218q-272 14 -422 139q-153 127 -153 369t153 368q152 125 422 139v220h214zM555 614q0 -156 96 -237t265 -87v647q-168 -6 -265 -86q-96 -80 -96 -237zM1491 614
q0 158 -95 237q-97 80 -266 86v-647q170 6 266 87q95 80 95 237z" />
    <glyph glyph-name="glyph241" unicode="&#x3a7;" horiz-adv-x="2048" 
d="M1614 -111h-234l-356 594l-356 -594h-234l455 747l-425 704h234l326 -555l328 555h232l-427 -704z" />
    <glyph glyph-name="glyph242" unicode="&#x3a8;" horiz-adv-x="2048" 
d="M918 1309h214v-947q271 42 271 380v567h214v-586q0 -232 -125 -377t-360 -172v-315h-214v315q-234 27 -361 172q-126 144 -126 377v586h216v-567q0 -340 271 -380v947z" />
    <glyph glyph-name="glyph243" unicode="&#x3a9;" horiz-adv-x="2048" 
d="M1024 1353q290 0 429 -192q135 -187 135 -533q0 -213 -67 -362q-66 -147 -191 -205h228v-185h-461v185q146 50 210 183q65 135 65 358q0 169 -21 274q-21 104 -71 174q-84 116 -256 116q-171 0 -258 -116q-93 -134 -93 -448q0 -224 66 -358t211 -183v-185h-461v185h229
q-126 59 -192 205q-66 147 -66 362q0 351 134 533q140 192 430 192z" />
    <glyph glyph-name="glyph244" unicode="&#x3b1;" horiz-adv-x="2048" 
d="M1224 258q-32 -86 -110 -136q-79 -50 -191 -50q-197 0 -305 135t-108 408q0 269 108 406q108 136 305 136q112 0 191 -50q78 -50 110 -136v162h204v-798q0 -48 18 -66q19 -19 60 -19h31v-166q-48 -3 -92 -3q-113 0 -163 42q-49 42 -58 135zM1224 615q0 185 -59 280
t-196 95q-136 0 -195 -95t-59 -280q0 -187 58 -282q59 -96 196 -96t196 96q59 97 59 282z" />
    <glyph glyph-name="glyph245" unicode="&#x3b2;" horiz-adv-x="2048" 
d="M1441 1167q0 -113 -65 -196q-66 -84 -179 -108q134 -17 220 -112t86 -245q0 -201 -120 -315q-121 -115 -313 -115q-244 0 -321 181v-607h-204v1493q0 201 117 317q119 117 331 117t330 -113t118 -297zM1236 1160q0 118 -64 183q-64 66 -179 66q-118 0 -181 -70
q-63 -71 -63 -205v-593q0 -142 71 -221q70 -78 204 -78q131 0 203 72t72 203q0 119 -79 192q-77 71 -220 71h-53v166h53q116 0 175 58q61 59 61 156z" />
    <glyph glyph-name="glyph246" unicode="&#x3b3;" horiz-adv-x="2048" 
d="M1125 -129h-204v438l-395 1049h214l284 -807l284 807h214l-397 -1050v-437z" />
    <glyph glyph-name="glyph247" unicode="&#x3b4;" horiz-adv-x="2048" 
d="M939 1185l371 -308q173 -142 173 -457q0 -263 -115 -403q-116 -141 -344 -141q-230 0 -344 141q-115 142 -115 403q0 242 102 376q103 135 294 151l-298 238v168h741v-168h-465zM768 420q0 -188 59 -281q60 -95 197 -95q136 0 195 95t59 281t-59 279q-60 95 -195 95
q-137 0 -197 -95q-59 -93 -59 -279z" />
    <glyph glyph-name="glyph248" unicode="&#x3b5;" horiz-adv-x="2048" 
d="M1019 709h151v-164h-144q-108 0 -169 -40t-61 -115t61 -115q62 -41 169 -41t167 41q62 42 62 114v5h205v-13q0 -138 -117 -225q-113 -84 -317 -84q-205 0 -319 83q-116 84 -116 224q0 100 60 166q61 67 158 83q-85 18 -139 83q-55 66 -55 149q0 130 104 214
q102 83 300 83q196 0 301 -84t105 -220v-18h-205v16q0 63 -52 103q-51 39 -149 39q-99 0 -150 -39t-51 -103t51 -103t150 -39z" />
    <glyph glyph-name="glyph249" unicode="&#x3b6;" horiz-adv-x="2048" 
d="M1321 202q55 -1 76 -21q21 -19 21 -67q0 -76 -45 -189q-46 -115 -117 -217l-153 47q96 177 115 291q-298 0 -443 112t-145 325q0 254 148 483q148 228 403 387h-446v167h683v-173q-284 -172 -435 -390q-149 -215 -149 -460q0 -150 109 -221q106 -69 378 -74z" />
    <glyph glyph-name="glyph250" unicode="&#x3b7;" horiz-adv-x="2048" 
d="M790 309h-204v1036h204v-197q34 104 117 162q83 59 200 59q170 0 262 -107t92 -306v-1096h-204v984q0 182 -44 270q-43 87 -157 87q-145 0 -205 -111q-61 -113 -61 -335v-446z" />
    <glyph glyph-name="glyph251" unicode="&#x3b8;" horiz-adv-x="2048" 
d="M1518 615q0 -407 -118 -579q-119 -173 -376 -173t-376 173q-118 172 -118 579q0 406 118 578q119 173 376 173q256 0 375 -173t119 -578zM1024 1200q-154 0 -220 -121q-64 -119 -69 -383h578q-8 263 -72 383q-65 121 -217 121zM1024 31q156 0 219 119q62 118 70 382h-578
q6 -263 72 -382t217 -119z" />
    <glyph glyph-name="glyph252" unicode="&#x3b9;" horiz-adv-x="2048" 
d="M1071 1141v-798q0 -47 18 -67q17 -18 60 -18h31v-164q-36 -6 -90 -6q-117 0 -171 52q-52 51 -52 177v824h204z" />
    <glyph glyph-name="glyph253" unicode="&#x3ba;" horiz-adv-x="2048" 
d="M795 96h-205v1036h205v-416h105l286 416h225l-343 -497l389 -539h-231l-328 459h-103v-459z" />
    <glyph glyph-name="glyph254" unicode="&#x3bb;" horiz-adv-x="2048" 
d="M924 905l-61 164q-25 67 -60 93q-34 25 -91 25h-65v162q32 4 87 4q122 0 196 -49q72 -48 123 -185l470 -1243h-214l-284 778l-288 -778h-212z" />
    <glyph glyph-name="glyph255" unicode="&#x3bc;" horiz-adv-x="2048" 
d="M995 296q-73 0 -125 34t-75 93v-551h-204v1485h204v-649q0 -115 56 -180t147 -65q115 0 190 87q76 88 76 241v566h202v-1036h-202v177q-32 -92 -105 -148q-71 -54 -164 -54z" />
    <glyph glyph-name="glyph256" unicode="&#x3bd;" horiz-adv-x="2048" 
d="M1140 96h-232l-382 1037h214l284 -820l284 820h214z" />
    <glyph glyph-name="glyph257" unicode="&#x3be;" horiz-adv-x="2048" 
d="M1234 34q-297 2 -464 119q-169 119 -169 329q0 151 88 262q86 109 233 160q-114 22 -186 100q-70 76 -70 193q0 149 100 242t289 93q186 0 286 -89q99 -88 105 -230h-205q-8 71 -54 111q-47 41 -132 41q-91 0 -138 -48q-46 -47 -46 -135q0 -90 57 -138t153 -48h145v-168
h-94q-130 0 -228 -92t-98 -230q0 -309 529 -316q57 -2 77 -20q21 -19 21 -68q0 -74 -46 -189q-47 -118 -116 -217l-152 47q95 178 115 291z" />
    <glyph glyph-name="glyph258" unicode="&#x3bf;" horiz-adv-x="2048" 
d="M1483 615q0 -261 -116 -403q-115 -140 -343 -140q-229 0 -344 140t-115 403q0 261 115 401q116 141 344 141t343 -141q116 -142 116 -401zM769 615q0 -185 59 -282q58 -96 196 -96q136 0 195 96q59 97 59 282t-59 280q-58 94 -195 94q-138 0 -196 -94q-59 -95 -59 -280z
" />
    <glyph glyph-name="glyph259" unicode="&#x3c0;" horiz-adv-x="2048" 
d="M862 965v-870h-205v870h-155v167h1044v-167h-157v-870h-205v870h-322z" />
    <glyph glyph-name="glyph260" unicode="&#x3c1;" horiz-adv-x="2048" 
d="M1483 828q0 -270 -108 -407t-307 -137q-110 0 -189 50q-77 49 -109 135v-610h-205v969q0 261 115 401q116 141 344 141q231 0 344 -140q115 -142 115 -402zM1024 450q138 0 196 96q58 95 58 282q0 186 -58 280t-196 94q-135 0 -195 -95q-59 -93 -59 -279q0 -185 59 -282
q59 -96 195 -96z" />
    <glyph glyph-name="glyph261" unicode="&#x3c3;" horiz-adv-x="2048" 
d="M1452 672q0 -255 -116 -394q-115 -137 -343 -137t-343 137q-116 139 -116 394q0 253 116 392q116 138 343 138h521v-167h-245q84 -30 133 -124q50 -95 50 -239zM1247 672q0 363 -254 363q-255 0 -255 -363q0 -365 255 -365q254 0 254 365z" />
    <glyph glyph-name="glyph262" unicode="&#x3c4;" horiz-adv-x="2048" 
d="M1459 1141v-168h-345v-607q0 -68 24 -90q23 -22 91 -22h59v-160q-42 -6 -105 -6q-156 0 -215 59q-58 58 -58 214v612h-321v168h870z" />
    <glyph glyph-name="glyph263" unicode="&#x3c5;" horiz-adv-x="2048" 
d="M1025 84q-210 0 -323 104q-114 105 -114 310v647h205v-645q0 -251 232 -251q230 0 230 251v645h205v-647q0 -205 -114 -310q-113 -104 -321 -104z" />
    <glyph glyph-name="glyph264" unicode="&#x3c6;" horiz-adv-x="2048" 
d="M748 1340l33 -166q-99 -26 -144 -105q-46 -81 -46 -242q0 -205 76 -286q75 -79 256 -79v896h199q288 -1 415 -133q127 -131 127 -398q0 -265 -125 -396t-411 -135v-425h-205v425q-287 4 -411 135q-125 131 -125 396q0 223 86 350t275 163zM1460 827q0 206 -75 284
q-75 77 -257 79v-728q181 0 256 79q76 81 76 286z" />
    <glyph glyph-name="glyph265" unicode="&#x3c7;" horiz-adv-x="2048" 
d="M1310 -129l-288 593l-289 -593h-217l377 763l-357 724h217l269 -558l268 558h217l-357 -724l379 -763h-219z" />
    <glyph glyph-name="glyph266" unicode="&#x3c8;" horiz-adv-x="2048" 
d="M919 -128v429q-223 15 -348 132q-124 117 -124 316v608h203v-604q0 -128 70 -201q69 -72 199 -81v886h204v-886q130 9 199 81q70 73 70 201v604h203v-608q0 -199 -124 -316q-125 -117 -348 -132v-429h-204z" />
    <glyph glyph-name="glyph267" unicode="&#x3c9;" horiz-adv-x="2048" 
d="M922 941h203v-371q0 -168 46 -244q47 -77 143 -77q100 0 147 82t47 265q0 251 -107 549h207q105 -288 105 -553q0 -508 -380 -508q-121 0 -200 55q-80 56 -110 166q-62 -221 -309 -221q-380 0 -380 508q0 265 105 553h206q-107 -298 -107 -549q0 -183 47 -265t147 -82
q96 0 143 77t47 244v371z" />
    <glyph glyph-name="endash" unicode="&#x2013;" horiz-adv-x="2048" 
d="M735 608h591v-61h-591v61z" />
    <glyph glyph-name="emdash" unicode="&#x2014;" horiz-adv-x="2048" 
d="M233 607h1605v-59h-1605v59z" />
    <glyph glyph-name="glyph145" unicode="&#x2015;" horiz-adv-x="2048" 
d="M247 464v227h1554v-227h-1554z" />
    <glyph glyph-name="glyph7" unicode="&#x2016;" horiz-adv-x="2048" 
d="M820 1205h61v-1181h-61v1181zM1169 1205h59v-1181h-59v1181z" />
    <glyph glyph-name="glyph87" unicode="&#x2018;" horiz-adv-x="1007" 
d="M565 1485h-319l196 -594h322z" />
    <glyph glyph-name="glyph88" unicode="&#x2019;" horiz-adv-x="1007" 
d="M565 891h-319l196 594h322z" />
    <glyph glyph-name="glyph80" unicode="&#x201c;" horiz-adv-x="1470" 
d="M905 891h320l-197 594h-319zM442 891h322l-199 594h-319z" />
    <glyph glyph-name="glyph81" unicode="&#x201d;" horiz-adv-x="1470" 
d="M905 1485h320l-197 -594h-319zM442 1485h322l-199 -594h-319z" />
    <glyph glyph-name="glyph135" unicode="&#x2020;" horiz-adv-x="2048" 
d="M1470 1136v-167h-352v-1225h-188v1225h-352v167h352v349h188v-349h352z" />
    <glyph glyph-name="glyph136" unicode="&#x2021;" horiz-adv-x="2048" 
d="M579 92v166h352v710h-352v168h352v349h188v-349h352v-168h-352v-710h352v-166h-352v-348h-188v348h-352z" />
    <glyph glyph-name="glyph3" unicode="&#x2025;" horiz-adv-x="2048" 
d="M732 738v-247h-227v247h227zM1543 738v-247h-227v247h227z" />
    <glyph glyph-name="glyph4" unicode="&#x2026;" horiz-adv-x="2048" 
d="M594 589v-247h-218v247h218zM1132 589v-247h-218v247h218zM1672 589v-247h-218v247h218zM591 738v-247h-218v247h218zM1129 738v-247h-218v247h218zM1669 738v-247h-218v247h218z" />
    <glyph glyph-name="glyph106" unicode="&#x2030;" horiz-adv-x="2048" 
d="M676 874q0 -147 -57 -219q-59 -74 -167 -74q-225 0 -225 293q0 141 57 216q56 74 168 74q107 0 166 -74q58 -73 58 -216zM546 874q0 95 -23 138q-23 42 -71 42q-51 0 -73 -41t-22 -139q0 -102 22 -142t73 -40q48 0 71 41t23 141zM606 66h-131q27 67 224 544
q19 46 220 536h130q-18 -45 -92.5 -225t-129.5 -315t-129 -315t-92 -225zM850 339q0 144 58 218t165 74t166 -75q58 -74 58 -217q0 -142 -58 -217q-57 -74 -166 -74q-108 0 -165 73q-58 75 -58 218zM978 339q0 -101 23 -141t72 -40q50 0 73 41t23 140q0 95 -23 138
q-23 42 -73 42q-49 0 -72 -41t-23 -139zM1360 339q0 141 59 217q59 75 167 75q106 0 165 -75q58 -74 58 -217q0 -145 -57 -217q-59 -74 -166 -74q-109 0 -168 74q-58 73 -58 217zM1491 339q0 -101 22 -141t73 -40q49 0 71 40q23 41 23 141q0 98 -23 139t-71 41
q-52 0 -73 -41q-22 -42 -22 -139z" />
    <glyph glyph-name="glyph30" unicode="&#x2032;" horiz-adv-x="2048" 
d="M1036 858h-164l101 465h205z" />
    <glyph glyph-name="glyph31" unicode="&#x2033;" horiz-adv-x="2048" 
d="M881 879h-164l101 464h205zM1189 879h-162l101 464h203z" />
    <glyph glyph-name="glyph47" unicode="&#x203b;" horiz-adv-x="2048" 
d="M999 210q66 0 111 -45q46 -46 46 -111q0 -67 -45 -112t-112 -45q-66 0 -111 45q-46 46 -46 112q0 64 46 110t111 46zM999 1014q-65 0 -111 46t-46 110q0 66 46 112q45 45 111 45q67 0 112 -45t45 -112q0 -65 -46 -111q-45 -45 -111 -45zM1687 1183l-574 -575l574 -573
l-111 -112l-575 575l-573 -575l-113 112l575 573l-575 575l113 113l573 -575l575 575zM288 608q0 65 46 111t110 46q65 0 111 -46t46 -111q0 -64 -46 -110t-111 -46q-64 0 -110 46t-46 110zM1556 765q66 0 111 -45t45 -112q0 -65 -45 -110q-46 -46 -111 -46q-67 0 -112 45
t-45 111q0 67 45 112t112 45z" />
    <glyph glyph-name="glyph580" unicode="&#x2074;" horiz-adv-x="2048" 
d="M843 900v-150h-100v-184h-175v184h-414v139l392 639h197v-628h100zM334 900h234v381z" />
    <glyph glyph-name="glyph581" unicode="&#x207f;" horiz-adv-x="2048" 
d="M154 782v728h169v-122q19 63 74 102q53 38 133 38q103 0 163 -63t60 -186v-497h-170v477q0 127 -109 127q-68 0 -109 -50q-42 -51 -42 -132v-422h-169z" />
    <glyph glyph-name="glyph582" unicode="&#x2081;" horiz-adv-x="2048" 
d="M535 -307h-179v792l-202 -92v157l230 105h151v-962z" />
    <glyph glyph-name="glyph583" unicode="&#x2082;" horiz-adv-x="2048" 
d="M594 375q0 61 -34 98q-35 38 -97 38q-63 0 -98 -38q-34 -37 -34 -98v-33h-177v35q0 133 83 213t226 80q137 0 223 -80q85 -79 85 -213q0 -73 -25 -127q-24 -52 -84 -120l-254 -286h361v-151h-597v129l365 415q57 66 57 138z" />
    <glyph glyph-name="glyph584" unicode="&#x2083;" horiz-adv-x="2048" 
d="M478 539q-61 0 -94 -33t-33 -91v-14h-173v31q0 115 82 185q83 71 218 71q133 0 215 -71t82 -189q0 -160 -146 -208q172 -50 172 -234q0 -128 -86 -211q-85 -82 -237 -82q-155 0 -239 83q-85 84 -85 214v35h177v-32q0 -70 40 -111q41 -42 107 -42t105 41q39 40 39 109
q0 74 -40 112q-41 39 -111 39h-80v147h80q61 0 96 33q34 33 34 92q0 60 -32 92q-34 34 -91 34z" />
    <glyph glyph-name="glyph585" unicode="&#x2084;" horiz-adv-x="2048" 
d="M843 28v-151h-100v-184h-175v184h-414v138l392 640h197v-627h100zM334 28h234v380z" />
    <glyph glyph-name="glyph32" unicode="&#x2103;" horiz-adv-x="2048" 
d="M458 1357q121 0 196 -75t75 -188q0 -114 -75 -189t-196 -75q-120 0 -195 75q-76 76 -76 189q0 112 76 188q75 75 195 75zM458 968q55 0 89 34q35 35 35 92q0 56 -35 89q-36 34 -89 34t-89 -34q-34 -33 -34 -89q0 -58 34 -92t89 -34zM1607 182l120 -121
q-185 -185 -448 -185t-449 186t-186 448q0 263 186 449t449 186q262 0 448 -186l-120 -120q-135 136 -328 136t-329 -136t-136 -329q0 -192 136 -328t329 -136q192 0 328 136z" />
    <glyph glyph-name="glyph105" unicode="&#x2109;" horiz-adv-x="2048" 
d="M805 1085q0 -112 -76 -188q-75 -75 -195 -75q-121 0 -196 75t-75 188t75 188q76 76 196 76q119 0 195 -76t76 -188zM657 1085q0 57 -34 90q-36 34 -89 34t-89 -34q-35 -33 -35 -90q0 -56 35 -91q34 -34 89 -34t89 34t34 91zM936 -120v1452h849v-186h-634v-451h570v-185
h-570v-630h-215z" />
    <glyph glyph-name="glyph339" unicode="&#x2113;" horiz-adv-x="2048" 
d="M1130 -132q-154 0 -254 85t-124 237q-2 -1 -10.5 -2.5t-22 -5t-27.5 -7.5q-58 -16 -78 -20l-65 168q110 26 196 55v600q0 183 94 283t269 100q174 0 268 -100q95 -101 95 -283v-17q0 -228 -133 -406q-132 -177 -385 -291q17 -221 177 -221q60 0 106 39q47 39 62 120
l201 -39q-27 -145 -123 -220t-246 -75zM953 979v-508q312 177 312 490v18q0 207 -157 207q-155 0 -155 -207z" />
    <glyph glyph-name="glyph151" unicode="&#x2116;" horiz-adv-x="2048" 
d="M923 -64l-426 979v-979h-204v1445h186l426 -979v979h204v-1445h-186zM1894 611q0 -208 -79 -314q-80 -107 -256 -107q-178 0 -258 107q-79 106 -79 314q0 209 79 315q80 107 258 107q176 0 256 -107q79 -106 79 -315zM1231 -64v157h654v-157h-654zM1708 611
q0 139 -33 200t-116 61q-85 0 -119 -61t-34 -200t34 -200q35 -62 119 -62q83 0 116 61q33 62 33 201z" />
    <glyph glyph-name="glyph156" unicode="&#x2121;" horiz-adv-x="2048" 
d="M155 1113v186h791v-186h-288v-1265h-215v1265h-288zM1543 372v-66h-579q6 -172 51 -246q45 -73 137 -73q144 0 172 173h204q-54 -337 -376 -337q-194 0 -292 128t-98 415q0 286 98 414t292 128q193 0 292 -127t99 -409zM1152 744q-88 0 -135 -69q-46 -68 -49 -222h370
q-6 156 -50 223q-44 68 -136 68zM1838 -152h-205v1451h205v-1451z" />
    <glyph glyph-name="glyph153" unicode="&#x2122;" horiz-adv-x="2048" 
d="M343 1214v124h513v-124h-183v-569h-147v569h-183zM1302 645h-96l-158 374v-374h-141v693h129l218 -516l217 516h129v-693h-140v374z" />
    <glyph glyph-name="glyph392" unicode="&#x2126;" horiz-adv-x="2048" 
d="M1024 1353q290 0 429 -192q135 -187 135 -533q0 -215 -66 -362q-66 -146 -192 -205h229v-185h-461v185q145 50 209 183q65 135 65 358q0 169 -21 274q-21 104 -71 174q-84 116 -256 116q-171 0 -258 -116q-92 -133 -92 -448q0 -227 65 -358q66 -134 211 -183v-185h-461
v185h229q-126 59 -192 205q-66 147 -66 362q0 350 135 533q139 192 429 192z" />
    <glyph glyph-name="glyph33" unicode="&#x212b;" horiz-adv-x="2048" 
d="M1024 1066q-69 0 -112 43t-43 108t43 108t112 43t112 -43t43 -108t-43 -108t-112 -43zM1024 1288q-32 0 -51 -19q-20 -20 -20 -52t20 -52t51 -20t51 20t20 52t-20 52q-19 19 -51 19zM1025 1032l639 -1086h-183l-458 779l-476 -779h-184z" />
    <glyph glyph-name="glyph498" unicode="&#x2153;" horiz-adv-x="2048" 
d="M598 387h-179v792l-202 -94v157l230 107h151v-962zM1208 1349h174l-708 -1453h-175zM1662 407q169 -49 169 -234q0 -128 -85 -210q-86 -83 -237 -83q-155 0 -238 83q-85 85 -85 214v35h177v-32q0 -68 39 -110q40 -43 107 -43t106 42t39 109q0 75 -40 112q-41 38 -113 38
h-79v147h79q63 0 98 33t35 93q0 56 -34 92q-33 35 -91 35q-59 0 -92 -34q-34 -36 -34 -92v-14h-173v31q0 115 82 185q83 71 217 71q135 0 216 -71q82 -72 82 -189q0 -160 -145 -208z" />
    <glyph glyph-name="glyph499" unicode="&#x2154;" horiz-adv-x="2048" 
d="M208 507l365 416q56 64 56 136q0 62 -34 99q-35 38 -97 38q-64 0 -99 -38q-34 -37 -34 -99v-33h-177v35q0 136 83 215q85 80 227 80q137 0 223 -80q85 -79 85 -215q0 -72 -25 -126q-25 -55 -82 -119l-257 -286h364v-152h-598v129zM1287 1340h173l-708 -1451h-175z
M1688 398q172 -50 172 -234q0 -127 -86 -210q-84 -81 -238 -81t-238 83q-85 84 -85 211v35h177v-31q0 -68 39 -110q38 -41 107 -41q67 0 106 41t39 108q0 75 -39 112q-40 38 -112 38h-79v147h79q62 0 97 33q34 33 34 92t-33 93q-33 35 -92 35q-57 0 -92 -35q-34 -34 -34 -91
v-15h-173v32q0 115 82 185q83 71 216 71q135 0 217 -71t82 -189q0 -160 -146 -208z" />
    <glyph glyph-name="glyph502" unicode="&#x215b;" horiz-adv-x="2048" 
d="M594 388h-179v792l-202 -94v157l230 107h151v-962zM1204 1350h173l-707 -1453h-175zM1663 413q83 -28 127 -89q45 -63 45 -152q0 -129 -91 -211t-243 -82q-151 0 -241 82q-89 81 -89 211q0 88 44 152q44 63 126 89q-67 21 -107 79q-39 57 -39 128q0 113 83 184
q82 70 223 70t224 -70q84 -70 84 -184q0 -71 -39 -128q-40 -58 -107 -79zM1501 725q-61 0 -97 -33t-36 -89q0 -54 36 -87q35 -32 97 -32q64 0 99 32t35 87q0 57 -35 89q-36 33 -99 33zM1501 26q69 0 112 41t43 112q0 73 -43 116q-41 41 -112 41q-69 0 -111 -42t-42 -115
q0 -71 42 -112q43 -41 111 -41z" />
    <glyph glyph-name="glyph503" unicode="&#x215c;" horiz-adv-x="2048" 
d="M1280 1342h173l-707 -1453h-175zM827 656q0 -128 -86 -211q-85 -82 -237 -82q-153 0 -238 83q-84 82 -84 212v35h177v-30q0 -69 39 -111t106 -42q68 0 107 41t39 109q0 74 -40 112q-41 39 -111 39h-80v147h80q63 0 96 32q35 33 35 92q0 58 -33 93q-33 34 -93 34
q-59 0 -92 -33t-33 -91v-14h-173v29q0 114 82 186t216 72q135 0 216 -72t81 -190q0 -160 -144 -206q170 -50 170 -234zM1695 405q82 -27 126 -89q45 -63 45 -152q0 -131 -90 -212t-243 -81t-241 81q-89 81 -89 212q0 88 44 152q44 63 125 89q-66 21 -106 79q-39 57 -39 128
q0 113 83 184q82 70 223 70t224 -70q84 -71 84 -184q0 -71 -39 -128q-40 -58 -107 -79zM1533 717q-60 0 -97 -34q-36 -33 -36 -88q0 -54 36 -87t97 -33q62 0 98 33t36 87q0 55 -36 88q-37 34 -98 34zM1533 18q69 0 112 41t43 112q0 72 -43 115q-42 42 -112 42
q-69 0 -111 -42t-42 -115q0 -71 42 -112q43 -41 111 -41z" />
    <glyph glyph-name="glyph504" unicode="&#x215d;" horiz-adv-x="2048" 
d="M814 699q0 -153 -82 -239q-82 -87 -231 -87q-142 0 -225 77q-81 75 -92 212h177q6 -67 42 -103q37 -37 98 -37q65 0 103 47q37 46 37 132q0 85 -36 133t-102 48q-42 0 -78 -22q-33 -20 -49 -58h-163l26 548h527v-151h-366l-13 -244q51 72 158 72q128 0 198 -88
q71 -89 71 -240zM1692 413q82 -27 126 -89q45 -63 45 -152q0 -130 -90 -211q-91 -82 -244 -82q-151 0 -241 82q-88 81 -88 211q0 88 44 152q44 63 125 89q-67 21 -107 79q-39 57 -39 128q0 112 84 184q82 70 222 70q142 0 225 -70t83 -184q0 -71 -39 -128q-40 -58 -106 -79z
M1529 725q-60 0 -97 -34q-35 -32 -35 -88q0 -55 35 -87t97 -32q64 0 99 32q36 33 36 87q0 56 -36 89t-99 33zM1529 26q70 0 113 41q42 41 42 112q0 74 -42 116q-41 41 -113 41q-68 0 -110 -42t-42 -115q0 -71 42 -112q43 -41 110 -41zM1277 1350h173l-708 -1453h-175z" />
    <glyph glyph-name="glyph505" unicode="&#x215e;" horiz-adv-x="2048" 
d="M814 1350v-127l-315 -835h-184l311 809h-435v153h623zM1686 413q83 -28 127 -89q45 -63 45 -152q0 -129 -91 -211t-243 -82q-151 0 -241 82q-89 81 -89 211q0 88 44 152q44 63 125 89q-66 21 -106 79q-39 57 -39 128q0 113 83 184q82 70 223 70t224 -70q84 -70 84 -184
q0 -71 -39 -128q-40 -58 -107 -79zM1524 725q-60 0 -97 -34q-36 -33 -36 -88q0 -54 36 -87q35 -32 97 -32q64 0 99 32t35 87q0 56 -36 89t-98 33zM1524 26q69 0 112 41t43 112q0 73 -43 116q-41 41 -112 41q-69 0 -111 -42t-42 -115q0 -71 42 -112q43 -41 111 -41z
M1234 1350h174l-708 -1453h-175z" />
    <glyph glyph-name="glyph210" unicode="&#x2160;" horiz-adv-x="2048" 
d="M1247 -112h-446v183h118v1087h-118v182h446v-182h-116v-1087h116v-183z" />
    <glyph glyph-name="glyph211" unicode="&#x2161;" horiz-adv-x="2048" 
d="M957 -112h-419v181h105v1091h-105v180h419v-180h-105v-1091h105v-181zM1510 -112h-419v181h105v1091h-105v180h419v-180h-105v-1091h105v-181z" />
    <glyph glyph-name="glyph212" unicode="&#x2162;" horiz-adv-x="2048" 
d="M761 -112h-396v179h96v1095h-96v179h396v-179h-97v-1095h97v-179zM1222 -112h-396v179h96v1095h-96v179h396v-179h-98v-1095h98v-179zM1683 -112h-396v179h96v1095h-96v179h396v-179h-98v-1095h98v-179z" />
    <glyph glyph-name="glyph213" unicode="&#x2163;" horiz-adv-x="2048" 
d="M713 -111h-405v177h101v1095h-101v179h405v-179h-101v-1095h101v-177zM1375 -111h-263l-364 1451h213l282 -1208l283 1208h214z" />
    <glyph glyph-name="glyph214" unicode="&#x2164;" horiz-adv-x="2048" 
d="M1152 -117h-247l-490 1450h223l390 -1198l389 1198h223z" />
    <glyph glyph-name="glyph215" unicode="&#x2165;" horiz-adv-x="2048" 
d="M936 -111h-264l-363 1451h212l282 -1208l284 1208h213zM1739 -111h-405v177h101v1095h-101v179h405v-179h-101v-1095h101v-177z" />
    <glyph glyph-name="glyph216" unicode="&#x2166;" horiz-adv-x="2048" 
d="M749 -111h-262l-284 1451h209l206 -1197l206 1197h211zM1844 -111h-369v175h87v1099h-87v177h369v-177h-87v-1099h87v-175zM1427 -111h-368v175h86v1099h-86v177h368v-177h-86v-1099h86v-175z" />
    <glyph glyph-name="glyph217" unicode="&#x2167;" horiz-adv-x="2048" 
d="M638 -111h-282l-171 1451h199l114 -1200l115 1200h200zM1512 -111h-323v172h69v1105h-69v174h323v-174h-68v-1105h68v-172zM1862 -111h-313v172h63v1105h-63v174h313v-174h-64v-1105h64v-172zM1153 -111h-314v172h63v1105h-63v174h314v-174h-65v-1105h65v-172z" />
    <glyph glyph-name="glyph218" unicode="&#x2168;" horiz-adv-x="2048" 
d="M1770 -111h-215l-317 549l-319 -549h-214l424 739l-405 712h215l299 -522l298 522h216l-407 -712zM683 -111h-405v177h101v1095h-101v179h405v-179h-101v-1095h101v-177z" />
    <glyph glyph-name="glyph219" unicode="&#x2169;" horiz-adv-x="2048" 
d="M1613 -111h-234l-354 594l-356 -594h-236l456 747l-424 704h232l328 -555l326 555h234l-427 -704z" />
    <glyph glyph-name="glyph200" unicode="&#x2170;" horiz-adv-x="2048" 
d="M1126 1120h-204v219h204v-219zM1126 -111h-204v1036h204v-1036z" />
    <glyph glyph-name="glyph201" unicode="&#x2171;" horiz-adv-x="2048" 
d="M867 1120h-202v220h202v-220zM867 -111h-202v1036h202v-1036zM1383 1120h-202v220h202v-220zM1383 -111h-202v1036h202v-1036z" />
    <glyph glyph-name="glyph202" unicode="&#x2172;" horiz-adv-x="2048" 
d="M719 1120h-201v220h201v-220zM719 -111h-201v1036h201v-1036zM1124 1120h-200v220h201zM1124 -111h-200v1036h201zM1530 1120h-201v220h201v-220zM1530 -111h-201v1036h201v-1036z" />
    <glyph glyph-name="glyph203" unicode="&#x2173;" horiz-adv-x="2048" 
d="M634 1120h-201v220h201v-220zM634 -111h-201v1036h201v-1036zM1261 -111h-232l-356 1036h212l260 -817l258 817h212z" />
    <glyph glyph-name="glyph204" unicode="&#x2174;" horiz-adv-x="2048" 
d="M1141 -112h-232l-384 1038h214l286 -820l284 820h214z" />
    <glyph glyph-name="glyph205" unicode="&#x2175;" horiz-adv-x="2048" 
d="M1021 -111h-232l-356 1036h212l260 -817l258 817h212zM1615 1120h-201v220h201v-220zM1615 -111h-201v1036h201v-1036z" />
    <glyph glyph-name="glyph206" unicode="&#x2176;" horiz-adv-x="2048" 
d="M856 -111h-236l-284 1036h208l194 -815l192 815h208zM1385 1120h-197v220h197v-220zM1385 -111h-197v1036h197v-1036zM1707 1120h-197v220h197v-220zM1707 -111h-197v1036h197v-1036z" />
    <glyph glyph-name="glyph207" unicode="&#x2177;" horiz-adv-x="2048" 
d="M718 -111h-247l-229 1036h205l147 -817l148 817h204zM1188 1120h-194v220h194v-220zM1188 -111h-194v1036h194v-1036zM1498 1120h-194v220h194v-220zM1498 -111h-194v1036h194v-1036zM1805 1120h-193v220h193v-220zM1805 -111h-193v1036h193v-1036z" />
    <glyph glyph-name="glyph208" unicode="&#x2178;" horiz-adv-x="2048" 
d="M631 1121h-201v219h201v-219zM631 -111h-201v1036h201v-1036zM1618 -111h-216l-251 376l-249 -376h-215l357 539l-330 497h216l223 -335l221 335h214l-328 -496z" />
    <glyph glyph-name="glyph209" unicode="&#x2179;" horiz-adv-x="2048" 
d="M1499 -111h-222l-252 395l-254 -395h-222l351 531l-329 505h222l232 -371l232 371h221l-328 -505z" />
    <glyph glyph-name="glyph62" unicode="&#x2190;" horiz-adv-x="2048" 
d="M1841 746v-177h-1218v-217l-416 304l416 308v-218h1218z" />
    <glyph glyph-name="glyph63" unicode="&#x2191;" horiz-adv-x="2048" 
d="M1001 1429l304 -414h-217v-1221h-177v1221h-218z" />
    <glyph glyph-name="glyph61" unicode="&#x2192;" horiz-adv-x="2048" 
d="M207 483v176h1218v218l416 -304l-416 -308v218h-1218z" />
    <glyph glyph-name="glyph64" unicode="&#x2193;" horiz-adv-x="2048" 
d="M1047 -201l-304 415h217v1220h177v-1220h218z" />
    <glyph glyph-name="glyph65" unicode="&#x2194;" horiz-adv-x="2048" 
d="M1841 573l-414 -308v218h-806v-218l-414 308l414 304v-217h806v217z" />
    <glyph glyph-name="glyph137" unicode="&#x2195;" horiz-adv-x="2048" 
d="M717 224h219v805h-219l308 415l306 -415h-218v-805h218l-306 -415z" />
    <glyph glyph-name="glyph140" unicode="&#x2196;" horiz-adv-x="2048" 
d="M1601 68l-125 -125l-861 860l-155 -153l-75 511l508 -79l-153 -153z" />
    <glyph glyph-name="glyph138" unicode="&#x2197;" horiz-adv-x="2048" 
d="M498 5l-126 125l861 861l-153 153l509 79l-78 -510l-153 153z" />
    <glyph glyph-name="glyph141" unicode="&#x2198;" horiz-adv-x="2048" 
d="M337 1110l125 126l861 -861l153 153l78 -511l-509 79l153 153z" />
    <glyph glyph-name="glyph139" unicode="&#x2199;" horiz-adv-x="2048" 
d="M1518 1223l126 -125l-861 -861l153 -153l-509 -79l76 511l155 -154z" />
    <glyph glyph-name="glyph86" unicode="&#x21d2;" horiz-adv-x="2048" 
d="M1235 1055l659 -527l-658 -546l-97 117l199 160h-1064v145h1244l152 124l-146 112h-1250v148h1060l-195 153z" />
    <glyph glyph-name="glyph42" unicode="&#x2202;" horiz-adv-x="2048" 
d="M848 1001h-214q41 172 161 269q118 95 291 95q212 0 315 -138q103 -137 103 -439q0 -476 -128 -700t-414 -224q-190 0 -304 118t-114 326q0 241 130 381q130 141 336 141q104 0 178 -40t104 -109q6 75 6 138q0 193 -55 281t-168 88q-86 0 -146 -49q-58 -48 -81 -138z
M983 41q126 0 204 95q78 94 78 252q0 123 -61 195q-60 70 -168 70q-135 0 -211 -100q-75 -99 -75 -252q0 -124 62 -192t171 -68z" />
    <glyph glyph-name="glyph89" unicode="&#x2203;" horiz-adv-x="2048" 
d="M588 1341h872v-1453h-861v186h645v430h-571v186h571v466h-656v185z" />
    <glyph glyph-name="glyph43" unicode="&#x2207;" horiz-adv-x="2048" 
d="M1148 -111h-247l-490 1451h1226zM1025 105l332 1050h-666z" />
    <glyph glyph-name="glyph75" unicode="&#x2208;" horiz-adv-x="2048" 
d="M1707 548h-1172q48 -333 529 -333h643v-177h-647q-166 0 -294 35q-130 35 -229 107t-151 186q-54 119 -54 269q0 149 54 268q52 114 151 187q96 71 229 107q128 35 294 35h647v-179h-643q-478 0 -529 -328h1172v-177z" />
    <glyph glyph-name="glyph76" unicode="&#x220b;" horiz-adv-x="2048" 
d="M1596 548h-1174v177h1172q-22 157 -153 243q-130 85 -376 85h-643v179h647q167 0 295 -35q133 -36 229 -107q99 -73 151 -187q53 -117 53 -268q0 -152 -53 -269q-52 -114 -151 -186t-229 -107q-128 -35 -295 -35h-647v177h643q483 0 531 333z" />
    <glyph glyph-name="glyph103" unicode="&#x220f;" horiz-adv-x="2048" 
d="M1314 -180v1403h-578v-1403h-216v1589h1008v-1589h-214z" />
    <glyph glyph-name="glyph102" unicode="&#x2211;" horiz-adv-x="2048" 
d="M548 -13l341 610l-341 619v185h952v-187h-713l321 -589v-59l-319 -572h712v-182h-953v175z" />
    <glyph glyph-name="glyph69" unicode="&#x221a;" horiz-adv-x="2048" 
d="M1249 1220l-413 -1392h-223l-374 774h226l240 -518l380 1308h721v-172h-557z" />
    <glyph glyph-name="glyph71" unicode="&#x221d;" horiz-adv-x="2048" 
d="M1492 356l98 -138q-81 -54 -203 -54q-101 0 -192 53q-90 53 -156 157q-65 -103 -157 -157q-91 -53 -192 -53q-156 0 -245 85q-90 85 -90 231q0 144 90 228q91 85 245 85q101 0 192 -53q92 -54 157 -157q65 103 156 158q90 54 192 54q97 0 175 -39l-83 -146q-48 28 -99 28
q-140 0 -236 -159q96 -160 236 -160q68 0 112 37zM934 480q-95 158 -234 158q-72 0 -118 -42t-46 -116q0 -76 46 -118q48 -43 118 -43q138 0 234 161z" />
    <glyph glyph-name="glyph27" unicode="&#x221e;" horiz-adv-x="2048" 
d="M1371 903q156 0 247 -85t91 -228q0 -146 -91 -231t-247 -85q-101 0 -192 53q-90 53 -156 157q-66 -104 -156 -157q-91 -53 -192 -53q-156 0 -245 85q-91 86 -91 231q0 143 91 228t245 85q101 0 192 -53q90 -53 156 -157q66 104 156 157q91 53 192 53zM684 429
q138 0 234 161q-95 158 -234 158q-72 0 -118 -42t-46 -116q0 -76 46 -118q48 -43 118 -43zM1364 429q71 0 117 43q47 44 47 118t-47 116t-117 42q-141 0 -236 -158q96 -161 236 -161z" />
    <glyph glyph-name="glyph39" unicode="&#x2220;" horiz-adv-x="2048" 
d="M575 154h1095v-163h-1395v105l1157 1138v-238z" />
    <glyph glyph-name="glyph83" unicode="&#x2227;" horiz-adv-x="2048" 
d="M271 -102l700 1432h76l700 -1432h-208l-531 1115l-527 -1115h-210z" />
    <glyph glyph-name="glyph84" unicode="&#x2228;" horiz-adv-x="2048" 
d="M1013 -142l-701 1432h212l525 -1115l531 1115h209l-701 -1432h-75z" />
    <glyph glyph-name="glyph82" unicode="&#x2229;" horiz-adv-x="2048" 
d="M1035 1145q-189 0 -294 -141q-106 -142 -106 -430v-643h-197v647q0 166 35 294q37 135 107 230q73 99 187 151q117 53 268 53q150 0 267 -53q114 -52 187 -151q70 -95 107 -230q36 -132 36 -294v-647h-195v643q0 287 -107 430q-105 141 -295 141z" />
    <glyph glyph-name="glyph73" unicode="&#x222b;" horiz-adv-x="2048" 
d="M601 3h100q95 0 130 32t35 119v971q0 168 79 238t264 70q75 0 127 -9v-159h-99q-94 0 -130 -33t-36 -118v-971q0 -168 -79 -237q-80 -69 -264 -69q-77 0 -127 7v159z" />
    <glyph glyph-name="glyph74" unicode="&#x222c;" horiz-adv-x="2048" 
d="M383 3h99q96 0 131 32t35 119v971q0 168 79 238t264 70q75 0 127 -9v-159h-100q-94 0 -130 -33q-35 -32 -35 -118v-971q0 -168 -79 -237q-80 -69 -264 -69q-77 0 -127 7v159zM897 3h99q96 0 131 32t35 119v971q0 168 79 238t264 70q75 0 127 -9v-159h-99q-95 0 -131 -33
q-35 -32 -35 -118v-971q0 -168 -79 -237q-80 -69 -264 -69q-77 0 -127 7v159z" />
    <glyph glyph-name="glyph101" unicode="&#x222e;" horiz-adv-x="2048" 
d="M634 614q0 132 80 230q78 96 206 128v98q0 167 79 237t264 70q75 0 127 -9v-158h-100q-95 0 -130 -34q-36 -34 -36 -118v-86q129 -30 209 -127q81 -97 81 -231t-81 -231q-80 -96 -209 -128v-112q0 -168 -79 -238t-263 -70q-78 0 -128 7v161h100q95 0 130 32q36 33 36 119
v103q-128 32 -206 128q-80 98 -80 229zM795 614q0 -71 33 -121q35 -53 92 -80v402q-58 -26 -92 -78q-33 -50 -33 -123zM1253 614q0 73 -34 125t-95 78v-404q60 24 95 77q34 52 34 124z" />
    <glyph glyph-name="glyph28" unicode="&#x2234;" horiz-adv-x="2048" 
d="M1390 101v247h217v-247h-217zM450 101v247h217v-247h-217zM920 967v247h217v-247h-217z" />
    <glyph glyph-name="glyph72" unicode="&#x2235;" horiz-adv-x="2048" 
d="M663 1109v-247h-218v247h218zM1133 242v-247h-218v247h218zM1603 1109v-247h-218v247h218z" />
    <glyph glyph-name="glyph70" unicode="&#x223d;" horiz-adv-x="2048" 
d="M1115 423q-177 -258 -415 -258q-156 0 -245 85q-90 86 -90 230q0 145 90 229q91 85 245 85q81 0 155 -33l-57 -139q-43 17 -89 17q-71 0 -118 -42q-46 -42 -46 -117t46 -117q48 -43 118 -43q63 0 137 57q73 56 140 155q176 262 411 262q155 0 246 -85t91 -229
q0 -145 -91 -230t-246 -85q-92 0 -177 45l70 132q43 -22 99 -22q72 0 118 43t46 117t-46 116q-48 43 -118 43q-127 0 -274 -216z" />
    <glyph glyph-name="glyph45" unicode="&#x2252;" horiz-adv-x="2048" 
d="M574 715v167h900v-167h-900zM574 379v168h900v-168h-900zM919 1271v-243h-219v244zM1350 234v-245h-219v245h219z" />
    <glyph glyph-name="glyph24" unicode="&#x2260;" horiz-adv-x="2048" 
d="M1525 715h-319l-116 -205h435v-168h-529l-142 -247h-147l140 247h-221v168h317l116 205h-433v167h529l142 249h147l-142 -249h223v-167z" />
    <glyph glyph-name="glyph44" unicode="&#x2261;" horiz-adv-x="2048" 
d="M579 879v168h899v-168h-899zM579 545v168h899v-168h-899zM579 214v167h899v-167h-899z" />
    <glyph glyph-name="glyph25" unicode="&#x2264;" horiz-adv-x="2048" 
d="M573 18v166h902v-166h-902zM1458 486v-188l-868 374v168l868 376v-190l-640 -269z" />
    <glyph glyph-name="glyph26" unicode="&#x2265;" horiz-adv-x="2048" 
d="M1458 862v-168l-868 -374v188l640 271l-640 269v190zM573 40v166h902v-166h-902z" />
    <glyph glyph-name="glyph67" unicode="&#x226a;" horiz-adv-x="2048" 
d="M1171 1068l-693 -484l693 -486v-196l-933 655v55l933 653v-197zM1757 1265v-197l-693 -484l693 -486v-196l-933 655v55z" />
    <glyph glyph-name="glyph68" unicode="&#x226b;" horiz-adv-x="2048" 
d="M901 1068v197l933 -653v-55l-933 -655v196l693 486zM315 1265l933 -653v-55l-933 -655v196l693 486l-693 484v197z" />
    <glyph glyph-name="glyph79" unicode="&#x2282;" horiz-adv-x="2048" 
d="M506 610q0 -198 130 -309t408 -111h642v-177h-645q-167 0 -295 35q-133 36 -229 107q-99 73 -151 187q-53 117 -53 268t53 268q51 112 151 186q96 71 229 107q132 36 295 36h645v-179h-642q-280 0 -408 -110q-130 -112 -130 -308z" />
    <glyph glyph-name="glyph77" unicode="&#x2286;" horiz-adv-x="2048" 
d="M524 829q0 -169 114 -248q115 -80 357 -80h710v-175h-713q-312 0 -487 124t-175 379t175 378t487 123h713v-175h-710q-242 0 -357 -80q-114 -79 -114 -246zM376 68h1342v-170h-1342v170z" />
    <glyph glyph-name="glyph78" unicode="&#x2287;" horiz-adv-x="2048" 
d="M390 68h1342v-170h-1342v170zM1584 829q0 167 -114 246q-115 80 -358 80h-709v175h713q312 0 487 -123t175 -378t-175 -379t-487 -124h-713v175h709q243 0 358 80q114 79 114 248z" />
    <glyph glyph-name="glyph117" unicode="&#x2299;" horiz-adv-x="2048" 
d="M1836 613q0 -225 -107 -409q-108 -186 -294 -294t-410 -108q-225 0 -412 108t-294 294q-107 187 -107 409q0 221 108 409q109 189 295 296q188 108 410 108q219 0 408 -109q186 -107 295 -296q108 -187 108 -408zM371 613q0 -182 85 -334t236 -242q150 -89 333 -89
q184 0 334 89q152 90 237 242t85 334q0 279 -189 472t-467 193q-276 0 -465 -193t-189 -472zM691 613q0 142 97 240q98 99 237 99q141 0 238 -99q97 -98 97 -240t-97 -240q-97 -99 -238 -99q-139 0 -236 99q-98 100 -98 240z" />
    <glyph glyph-name="glyph40" unicode="&#x22a5;" horiz-adv-x="2048" 
d="M1067 32h601v-162h-1391v162h602v1128h188v-1128z" />
    <glyph glyph-name="glyph41" unicode="&#x2312;" horiz-adv-x="2048" 
d="M322 84l8 8q134 140 303 214q183 80 390 80q409 0 695 -294l8 -8l-92 -128l-12 12q-252 249 -599 249q-351 0 -597 -250l-12 -13z" />
    <glyph glyph-name="glyph482" unicode="&#x2460;" horiz-adv-x="2048" 
d="M1159 1142v-1043h-184v848l-239 -105v177l276 123h147zM1025 1450q232 0 423 -109q193 -110 304 -302q112 -194 112 -426q0 -230 -112 -424q-110 -190 -304 -301q-191 -109 -423 -109t-425 109t-304 301q-112 194 -112 424q0 232 112 426q112 193 304 302
q193 109 425 109zM1025 -92q297 0 498 202q200 201 200 503q0 301 -200 504q-201 204 -498 204t-498 -204t-201 -504t201 -503q201 -202 498 -202z" />
    <glyph glyph-name="glyph483" unicode="&#x2461;" horiz-adv-x="2048" 
d="M1371 272v-156h-660v136l395 450q66 74 66 155q0 75 -39 118q-39 44 -107 44q-66 0 -105 -44q-38 -42 -38 -118v-48h-187v48q0 139 88 228q89 91 242 91q155 0 244 -91q88 -89 88 -228q0 -73 -24 -130t-79 -121l-293 -334h409zM1024 1450q233 0 424 -109
q193 -110 304 -302t111 -426q0 -232 -111 -424q-110 -190 -304 -301q-191 -109 -424 -109q-231 0 -424 109q-195 110 -305 301q-111 192 -111 424q0 234 111 426t305 302q193 109 424 109zM1024 -92q297 0 498 202q201 203 201 503q0 301 -201 505q-200 203 -498 203
q-297 0 -497 -203q-201 -204 -201 -505q0 -300 201 -503q201 -202 497 -202z" />
    <glyph glyph-name="glyph484" unicode="&#x2462;" horiz-adv-x="2048" 
d="M1024 1450q233 0 424 -109q193 -110 304 -302t111 -426q0 -232 -111 -424q-110 -190 -304 -301q-191 -109 -424 -109q-231 0 -424 109q-195 110 -305 301q-111 192 -111 424q0 234 111 426t305 302q193 109 424 109zM1024 -92q297 0 498 202q201 203 201 503t-201 504
t-498 204q-296 0 -497 -204t-201 -504t201 -503q201 -202 497 -202zM1378 407q0 -144 -95 -230q-96 -87 -249 -87q-155 0 -251 87t-96 234v35h184v-28q0 -79 46 -124q47 -45 117 -45q71 0 114 44q44 46 44 121q0 79 -43 123q-43 45 -117 45h-120v157h122q62 0 96 37
q35 38 35 99q0 60 -37 99q-36 38 -94 38q-61 0 -97 -37t-36 -100v-29h-184v40q0 124 85 203t232 79q146 0 229 -79q84 -79 84 -203q0 -154 -122 -223q70 -34 112 -100q41 -64 41 -156z" />
    <glyph glyph-name="glyph485" unicode="&#x2463;" horiz-adv-x="2048" 
d="M1025 1450q233 0 424 -109q193 -110 304 -302t111 -426q0 -232 -111 -424q-110 -190 -304 -301q-191 -109 -424 -109q-231 0 -424 109q-195 110 -305 301q-111 192 -111 424q0 234 111 426t305 302q193 109 424 109zM1025 -92q297 0 498 202q201 203 201 503
q0 301 -201 505q-200 203 -498 203q-297 0 -497 -203q-201 -204 -201 -505q0 -300 201 -503q201 -202 497 -202zM1237 481h128v-159h-128v-214h-186v214h-416v146l411 684h191v-671zM1051 481v368l-214 -368h214z" />
    <glyph glyph-name="glyph486" unicode="&#x2464;" horiz-adv-x="2048" 
d="M1368 429q0 -166 -90 -259t-247 -93q-146 0 -237 86q-89 85 -100 239h186q8 -82 48 -125t103 -43q73 0 113 50t40 147q0 95 -40 145t-113 50q-84 0 -124 -84h-177l26 597h559v-159h-384l-13 -241q53 44 144 44q141 0 223 -91q83 -92 83 -263zM1025 1450q233 0 424 -109
q193 -110 304 -302t111 -426q0 -232 -111 -424q-110 -190 -304 -301q-191 -109 -424 -109q-231 0 -424 109q-195 110 -305 301q-111 192 -111 424q0 234 111 426t305 302q193 109 424 109zM1025 -92q297 0 498 202q201 203 201 503t-201 504t-498 204q-296 0 -497 -204
t-201 -504t201 -503q201 -202 497 -202z" />
    <glyph glyph-name="glyph487" unicode="&#x2465;" horiz-adv-x="2048" 
d="M1025 1450q232 0 423 -109q193 -110 304 -302q112 -194 112 -426q0 -230 -112 -424q-110 -190 -304 -301q-191 -109 -423 -109t-425 109t-304 301q-112 194 -112 424q0 232 112 426q112 193 304 302q193 109 425 109zM1025 -92q297 0 498 202q200 201 200 503
q0 301 -200 504q-201 204 -498 204t-498 -204t-201 -504t201 -503q201 -202 498 -202zM1045 788q145 0 233 -94t88 -258q0 -161 -95 -258q-94 -95 -246 -95q-345 0 -345 482q0 325 80 461q80 135 269 135q132 0 217 -74q83 -73 100 -214h-188q-20 131 -131 131
q-77 0 -113 -66q-37 -67 -44 -210q66 60 175 60zM1023 239q74 0 116 53q43 54 43 144q0 92 -43 144t-116 52q-71 0 -114 -52t-43 -144q0 -90 43 -144q42 -53 114 -53z" />
    <glyph glyph-name="glyph488" unicode="&#x2466;" horiz-adv-x="2048" 
d="M1357 1100v-127l-345 -916h-192l343 886h-464v157h658zM1025 1450q232 0 423 -109q193 -110 304 -302q112 -194 112 -426q0 -230 -112 -424q-110 -190 -304 -301q-191 -109 -423 -109t-425 109t-304 301q-112 194 -112 424q0 232 112 426q112 193 304 302
q193 109 425 109zM1025 -92q297 0 498 202q200 201 200 503q0 301 -200 504q-201 204 -498 204t-498 -204t-201 -504t201 -503q201 -202 498 -202z" />
    <glyph glyph-name="glyph489" unicode="&#x2467;" horiz-adv-x="2048" 
d="M1025 1450q233 0 424 -109q193 -110 304 -302t111 -426q0 -232 -111 -424q-110 -190 -304 -301q-191 -109 -424 -109q-232 0 -425 109t-304 301t-111 424q0 234 111 426q112 193 304 302q193 109 425 109zM1025 -92q297 0 498 202q201 203 201 503t-201 504t-498 204
t-498 -204q-200 -203 -200 -504q0 -302 200 -503q201 -202 498 -202zM1228 652q160 -73 160 -256q0 -144 -99 -230q-98 -85 -262 -85q-162 0 -260 85q-99 86 -99 230q0 184 158 256q-60 32 -95 92q-34 59 -34 133q0 123 89 203q88 79 241 79q152 0 242 -79q88 -78 88 -203
q0 -70 -35 -131q-36 -62 -94 -94zM1027 1002q-64 0 -105 -38t-41 -100q0 -61 41 -99q40 -37 105 -37q68 0 106 37q40 38 40 99q0 62 -40 100t-106 38zM1027 239q79 0 127 45t48 121q0 78 -48 123t-127 45t-127 -45t-48 -123q0 -76 48 -121t127 -45z" />
    <glyph glyph-name="glyph490" unicode="&#x2468;" horiz-adv-x="2048" 
d="M1024 1450q233 0 424 -109q193 -110 304 -302t111 -426q0 -232 -111 -424q-110 -190 -304 -301q-191 -109 -424 -109q-231 0 -424 109q-195 110 -305 301q-111 192 -111 424q0 234 111 426t305 302q193 109 424 109zM1024 -92q297 0 498 202q201 203 201 503t-201 504
t-498 204q-296 0 -497 -204t-201 -504t201 -503q201 -202 497 -202zM1019 1148q345 0 345 -485q0 -321 -82 -458q-81 -135 -267 -135q-134 0 -217 73q-84 73 -103 214h191q17 -131 131 -131q76 0 112 65t45 210q-65 -59 -177 -59q-143 0 -232 95t-89 255q0 164 96 260
t247 96zM1019 597q72 0 114 52q43 54 43 143q0 92 -42 145q-42 52 -115 52t-115 -52q-42 -53 -42 -145q0 -89 43 -143q42 -52 114 -52z" />
    <glyph glyph-name="glyph491" unicode="&#x2469;" horiz-adv-x="2048" 
d="M1025 1450q233 0 424 -109q192 -109 303 -302q112 -194 112 -426q0 -230 -112 -424q-111 -191 -303 -301q-191 -109 -424 -109q-232 0 -425 109t-304 301t-111 424q0 234 111 426q112 193 304 302q193 109 425 109zM1025 -92q297 0 498 202q201 203 201 503t-201 504
t-498 204t-498 -204q-200 -203 -200 -504q0 -302 200 -503q201 -202 498 -202zM841 1107v-984h-177v787l-194 -99v177l231 119h140zM1418 1078q138 -96 138 -461q0 -362 -138 -461q-68 -46 -163 -46q-97 0 -162 46q-140 99 -140 461q0 365 140 461q62 46 162 46
q99 0 163 -46zM1318 285q63 56 63 332t-63 332q-25 22 -63 22q-37 0 -62 -22q-36 -30 -49 -109q-14 -82 -14 -223q0 -140 14 -222q14 -81 49 -110q21 -20 62 -20q42 0 63 20z" />
    <glyph glyph-name="glyph492" unicode="&#x246a;" horiz-adv-x="2048" 
d="M1025 1450q232 0 423 -109q193 -110 304 -302q112 -194 112 -426q0 -230 -112 -424q-110 -190 -304 -301q-191 -109 -423 -109t-425 109t-304 301q-112 194 -112 424q0 232 112 426q112 193 304 302q193 109 425 109zM1025 -92q297 0 498 202q200 201 200 503
q0 301 -200 504q-201 204 -498 204t-498 -204t-201 -504t201 -503q201 -202 498 -202zM890 1107v-984h-177v787l-193 -99v177l230 119h140zM1421 1107v-984h-177v787l-193 -99v177l230 119h140z" />
    <glyph glyph-name="glyph493" unicode="&#x246b;" horiz-adv-x="2048" 
d="M841 1107v-984h-177v787l-194 -99v177l231 119h140zM1535 285v-154h-560v129l321 424q51 69 51 143q0 70 -27 108q-28 40 -78 40q-48 0 -75 -40q-28 -42 -28 -108v-48h-177v48q0 129 75 216t205 87q131 0 207 -87q75 -85 75 -216q0 -69 -18 -122t-66 -114l-234 -306h329z
M1025 1450q232 0 423 -109q193 -110 304 -302q112 -194 112 -426q0 -230 -112 -424q-110 -190 -304 -301q-191 -109 -423 -109t-425 109t-304 301q-112 194 -112 424q0 232 112 426q112 193 304 302q193 109 425 109zM1025 -92q297 0 498 202q200 201 200 503
q0 301 -200 504q-201 204 -498 204t-498 -204t-201 -504t201 -503q201 -202 498 -202z" />
    <glyph glyph-name="glyph494" unicode="&#x246c;" horiz-adv-x="2048" 
d="M840 1107v-984h-177v787l-193 -99v177l230 119h140zM1024 1450q233 0 424 -109q193 -110 304 -302t111 -426q0 -232 -111 -424q-110 -190 -304 -301q-191 -109 -424 -109q-231 0 -424 109q-195 110 -305 301q-111 192 -111 424q0 234 111 426t305 302q193 109 424 109z
M1024 -92q297 0 498 202q201 203 201 503t-201 504t-498 204q-296 0 -497 -204t-201 -504t201 -503q201 -202 497 -202zM1531 407q0 -138 -80 -219t-211 -81q-132 0 -213 82q-82 84 -82 222v33h177v-28q0 -74 33 -114q33 -41 85 -41q51 0 84 41q32 39 32 111t-32 113t-86 41
h-108v153h110q42 0 67 34t25 90q0 55 -25 89t-67 34t-69 -34q-27 -35 -27 -89v-31h-173v42q0 117 72 192t197 75q124 0 196 -75q71 -74 71 -192q0 -67 -27 -123q-26 -54 -76 -85q127 -64 127 -240z" />
    <glyph glyph-name="glyph495" unicode="&#x246d;" horiz-adv-x="2048" 
d="M841 1107v-984h-177v787l-194 -99v177l231 119h140zM1443 473h94v-155h-94v-200h-175v200h-339v137l337 647h177v-629zM1268 473v297l-151 -297h151zM1025 1450q232 0 423 -109q193 -110 304 -302q112 -194 112 -426q0 -230 -112 -424q-110 -190 -304 -301
q-191 -109 -423 -109t-425 109t-304 301q-112 194 -112 424q0 232 112 426q112 193 304 302q193 109 425 109zM1025 -92q297 0 498 202q200 201 200 503q0 301 -200 504q-201 204 -498 204t-498 -204t-201 -504t201 -503q201 -202 498 -202z" />
    <glyph glyph-name="glyph496" unicode="&#x246e;" horiz-adv-x="2048" 
d="M1025 1450q232 0 423 -109q193 -110 304 -302q112 -194 112 -426q0 -230 -112 -424q-110 -190 -304 -301q-191 -109 -423 -109t-425 109t-304 301q-112 194 -112 424q0 232 112 426q112 193 304 302q193 109 425 109zM1025 -92q297 0 498 202q200 201 200 503t-200 505
t-498 203t-498 -203q-201 -204 -201 -505q0 -300 201 -503q201 -202 498 -202zM841 1107v-984h-177v787l-194 -99v177l231 119h140zM1523 435q0 -154 -78 -244q-76 -88 -210 -88q-126 0 -201 82q-76 83 -86 228h176q14 -155 111 -155q111 0 111 180q0 179 -111 179
q-57 0 -90 -79h-166l20 564h479v-153h-311l-11 -206q48 27 104 27h1q119 0 190 -86q72 -87 72 -249z" />
    <glyph glyph-name="glyph562" unicode="&#x2474;" horiz-adv-x="2048" 
d="M208 614q0 418 260 780h135q-116 -178 -180 -380q-63 -199 -63 -400q0 -202 63 -401q64 -201 180 -378h-135q-260 362 -260 779zM1159 98h-184v848l-239 -105v177l276 124h147v-1044zM1840 614q0 -419 -258 -779h-135q116 179 178 379q63 204 63 400t-63 400
q-61 199 -178 380h135q258 -360 258 -780z" />
    <glyph glyph-name="glyph563" unicode="&#x2475;" horiz-adv-x="2048" 
d="M208 614q0 418 260 780h135q-116 -178 -180 -380q-63 -199 -63 -400q0 -202 63 -401q64 -201 180 -378h-135q-260 362 -260 779zM1359 856q0 -73 -24 -130q-23 -55 -80 -121l-293 -333h409v-157h-659v136l394 450q66 73 66 155q0 74 -39 118t-106 44t-106 -44
q-38 -42 -38 -118v-48h-186v48q0 139 88 228q89 91 242 91q154 0 243 -91t89 -228zM1840 614q0 -419 -258 -779h-135q116 179 178 379q63 204 63 400t-63 400q-61 199 -178 380h135q258 -360 258 -780z" />
    <glyph glyph-name="glyph564" unicode="&#x2476;" horiz-adv-x="2048" 
d="M208 614q0 418 260 780h135q-116 -178 -180 -380q-63 -199 -63 -400q0 -202 63 -401q64 -201 180 -378h-135q-260 362 -260 779zM1193 413q0 77 -44 123q-43 45 -117 45h-120v157h122q62 0 96 37q35 38 35 99q0 60 -37 99q-36 38 -94 38q-61 0 -97 -37q-36 -38 -36 -100
v-29h-184v40q0 124 85 203t232 79t230 -79t83 -203q0 -154 -121 -223q69 -34 111 -100t42 -156q0 -143 -96 -230t-249 -87q-155 0 -251 87q-95 86 -95 234v35h184v-28q0 -79 46 -124q47 -45 116 -45q72 0 115 44q44 46 44 121zM1840 614q0 -419 -258 -779h-135
q116 179 178 379q63 204 63 400t-63 400q-61 199 -178 380h135q258 -360 258 -780z" />
    <glyph glyph-name="glyph565" unicode="&#x2477;" horiz-adv-x="2048" 
d="M208 614q0 418 260 780h135q-116 -178 -180 -380q-63 -199 -63 -400q0 -202 63 -401q64 -201 180 -378h-135q-260 362 -260 779zM1364 480v-159h-127v-213h-186v213h-417v146l411 684h192v-671h127zM837 480h214v368zM1840 614q0 -419 -258 -779h-135q116 179 178 379
q63 204 63 400t-63 400q-61 199 -178 380h135q258 -360 258 -780z" />
    <glyph glyph-name="glyph566" unicode="&#x2478;" horiz-adv-x="2048" 
d="M208 614q0 418 260 780h135q-116 -178 -180 -380q-63 -199 -63 -400q0 -202 63 -401q64 -201 180 -378h-135q-260 362 -260 779zM1030 625q-83 0 -123 -84h-177l26 597h558v-159h-383l-13 -241q53 44 144 44q141 0 223 -91q83 -92 83 -263q0 -166 -90 -259t-248 -93
q-146 0 -237 86q-89 85 -100 239h186q8 -82 48 -125t103 -43q72 0 113 51q40 50 40 146t-39 145q-40 50 -114 50zM1840 614q0 -419 -258 -779h-135q116 179 178 379q63 204 63 400t-63 400q-61 199 -178 380h135q258 -360 258 -780z" />
    <glyph glyph-name="glyph567" unicode="&#x2479;" horiz-adv-x="2048" 
d="M208 614q0 418 260 780h135q-116 -178 -180 -380q-63 -199 -63 -400q0 -202 63 -401q64 -201 180 -378h-135q-260 362 -260 779zM1027 1003q-78 0 -113 -65q-37 -67 -44 -211q67 61 175 61q144 0 233 -95q88 -94 88 -257q0 -161 -95 -258q-95 -96 -246 -96
q-345 0 -345 483q0 324 80 460q80 135 269 135q132 0 217 -74q83 -73 100 -214h-188q-20 131 -131 131zM866 436q0 -91 43 -145q42 -53 114 -53q74 0 116 53q43 54 43 145t-43 143t-116 52q-71 0 -114 -52t-43 -143zM1840 614q0 -419 -258 -779h-135q116 179 178 379
q63 204 63 400t-63 400q-61 199 -178 380h135q258 -360 258 -780z" />
    <glyph glyph-name="glyph568" unicode="&#x247a;" horiz-adv-x="2048" 
d="M208 614q0 418 260 780h135q-116 -178 -180 -380q-63 -199 -63 -400q0 -202 63 -401q64 -201 180 -378h-135q-260 362 -260 779zM699 942v157h658v-127l-345 -916h-192l343 887zM1840 614q0 -419 -258 -779h-135q116 179 178 379q63 204 63 400t-63 400q-61 199 -178 380
h135q258 -360 258 -780z" />
    <glyph glyph-name="glyph569" unicode="&#x247b;" horiz-adv-x="2048" 
d="M208 614q0 418 260 780h135q-116 -178 -180 -380q-63 -199 -63 -400q0 -202 63 -401q64 -201 180 -378h-135q-260 362 -260 779zM1027 80q-160 0 -260 86t-100 229q0 184 159 256q-60 32 -95 92q-34 59 -34 133q0 123 89 203q88 79 241 79q151 0 241 -79q89 -78 89 -203
q0 -70 -35 -131q-36 -62 -94 -94q160 -73 160 -256q0 -143 -100 -229t-261 -86zM1027 572q-79 0 -127 -45t-48 -123q0 -76 48 -121t127 -45t127 45t48 121q0 78 -48 123t-127 45zM1027 1001q-65 0 -106 -38q-40 -37 -40 -100q0 -62 40 -99t106 -37q68 0 106 37q39 38 39 99
q0 63 -39 101q-38 37 -106 37zM1840 614q0 -419 -258 -779h-135q116 179 178 379q63 204 63 400t-63 400q-61 199 -178 380h135q258 -360 258 -780z" />
    <glyph glyph-name="glyph570" unicode="&#x247c;" horiz-adv-x="2048" 
d="M208 614q0 418 260 780h135q-116 -178 -180 -380q-63 -199 -63 -400q0 -202 63 -401q64 -201 180 -378h-135q-260 362 -260 779zM1018 225q75 0 111 65q36 64 45 210q-65 -59 -177 -59q-143 0 -232 95q-88 94 -88 255q0 165 95 260q96 96 247 96q345 0 345 -485
q0 -321 -82 -458q-81 -135 -266 -135q-135 0 -218 73q-84 73 -103 214h192q17 -131 131 -131zM1176 791q0 93 -42 146q-42 52 -115 52q-72 0 -114 -52q-42 -53 -42 -146q0 -91 42 -143t114 -52q73 0 115 52t42 143zM1840 614q0 -419 -258 -779h-135q116 179 178 379
q63 204 63 400t-63 400q-61 199 -178 380h135q258 -360 258 -780z" />
    <glyph glyph-name="glyph571" unicode="&#x247d;" horiz-adv-x="2048" 
d="M208 614q0 418 260 780h135q-116 -178 -180 -380q-63 -199 -63 -400q0 -202 63 -401q64 -201 180 -378h-135q-260 362 -260 779zM841 122h-177v787l-194 -99v177l231 120h140v-985zM953 616q0 365 140 461q62 46 162 46q99 0 163 -46q138 -96 138 -461q0 -362 -138 -461
q-68 -46 -163 -46q-97 0 -162 46q-140 99 -140 461zM1130 616q0 -145 13 -222q14 -80 50 -110q21 -20 62 -20q42 0 63 20q63 55 63 332q0 276 -63 332q-25 22 -63 22q-37 0 -62 -22q-37 -31 -50 -109q-13 -77 -13 -223zM1840 614q0 -419 -258 -779h-135q116 179 178 379
q63 204 63 400t-63 400q-61 199 -178 380h135q258 -360 258 -780z" />
    <glyph glyph-name="glyph572" unicode="&#x247e;" horiz-adv-x="2048" 
d="M208 614q0 418 260 780h135q-116 -178 -180 -380q-63 -199 -63 -400q0 -202 63 -401q64 -201 180 -378h-135q-260 362 -260 779zM890 122h-177v787l-193 -99v177l230 120h140v-985zM1421 122h-177v787l-193 -99v177l230 120h140v-985zM1840 614q0 -419 -258 -779h-135
q116 179 178 379q63 204 63 400t-63 400q-61 199 -178 380h135q258 -360 258 -780z" />
    <glyph glyph-name="glyph573" unicode="&#x247f;" horiz-adv-x="2048" 
d="M208 614q0 418 260 780h135q-116 -178 -180 -380q-63 -199 -63 -400q0 -202 63 -401q64 -201 180 -378h-135q-260 362 -260 779zM841 122h-177v787l-194 -99v177l231 120h140v-985zM1524 826q0 -70 -18 -122t-66 -114l-234 -306h329v-154h-560v129l321 424q51 69 51 143
q0 70 -27 108q-28 40 -78 40q-48 0 -75 -40q-28 -42 -28 -108v-48h-177v48q0 129 75 216t205 87q131 0 207 -87q75 -86 75 -216zM1840 614q0 -419 -258 -779h-135q116 179 178 379q63 204 63 400t-63 400q-61 199 -178 380h135q258 -360 258 -780z" />
    <glyph glyph-name="glyph574" unicode="&#x2480;" horiz-adv-x="2048" 
d="M208 614q0 418 260 780h135q-116 -178 -180 -380q-63 -199 -63 -400q0 -202 63 -401q64 -201 180 -378h-135q-260 362 -260 779zM841 122h-177v787l-194 -99v177l231 120h140v-985zM1357 412q0 72 -32 113t-86 41h-109v153h111q42 0 67 34t25 90q0 54 -26 89
q-25 34 -66 34q-43 0 -70 -34q-26 -33 -26 -89v-31h-174v42q0 117 72 192t198 75q123 0 195 -75t72 -192q0 -65 -28 -123q-27 -55 -75 -85q127 -64 127 -240q0 -136 -81 -219q-80 -81 -210 -81q-133 0 -214 82t-81 222v33h177v-28q0 -75 32 -114q33 -41 86 -41q50 0 83 41
t33 111zM1840 614q0 -419 -258 -779h-135q116 179 178 379q63 204 63 400t-63 400q-61 199 -178 380h135q258 -360 258 -780z" />
    <glyph glyph-name="glyph575" unicode="&#x2481;" horiz-adv-x="2048" 
d="M208 614q0 418 260 780h135q-116 -178 -180 -380q-63 -199 -63 -400q0 -202 63 -401q64 -201 180 -378h-135q-260 362 -260 779zM841 122h-177v787l-194 -99v177l231 120h140v-985zM1537 472v-154h-94v-201h-175v201h-339v136l337 647h177v-629h94zM1117 472h151v297z
M1840 614q0 -419 -258 -779h-135q116 179 178 379q63 204 63 400t-63 400q-61 199 -178 380h135q258 -360 258 -780z" />
    <glyph glyph-name="glyph576" unicode="&#x2482;" horiz-adv-x="2048" 
d="M208 614q0 418 260 780h135q-116 -178 -180 -380q-63 -199 -63 -400q0 -202 63 -401q64 -201 180 -378h-135q-260 362 -260 779zM841 122h-177v787l-194 -99v177l231 120h140v-985zM1235 616q-57 0 -90 -79h-166l20 564h479v-153h-311l-11 -206q48 27 104 27h1
q119 0 190 -86q72 -87 72 -249q0 -154 -78 -244q-76 -88 -210 -88q-126 0 -201 82q-76 83 -86 228h176q14 -155 111 -155q111 0 111 180q0 179 -111 179zM1840 614q0 -419 -258 -779h-135q116 179 178 379q63 204 63 400t-63 400q-61 199 -178 380h135q258 -360 258 -780z
" />
    <glyph glyph-name="glyph536" unicode="&#x249c;" horiz-adv-x="2048" 
d="M208 613q0 418 260 780h135q-116 -178 -180 -380q-63 -199 -63 -400q0 -202 63 -401q64 -201 180 -378h-135q-260 362 -260 779zM1172 232q-12 29 -13 40q-67 -58 -191 -58q-137 0 -215 65t-78 183q0 117 78 183t215 66q118 0 186 -53v61q0 134 -135 134
q-115 0 -130 -109h-188q12 123 92 193q82 71 226 71q157 0 238 -78t81 -211v-369q0 -54 24 -118h-190zM1008 361q146 0 146 101q0 102 -146 102q-145 0 -145 -102q0 -101 145 -101zM1840 613q0 -419 -258 -779h-135q116 179 178 379q63 204 63 400t-63 400q-61 199 -178 380
h135q258 -360 258 -780z" />
    <glyph glyph-name="glyph537" unicode="&#x249d;" horiz-adv-x="2048" 
d="M208 614q0 418 260 780h135q-116 -178 -180 -380q-63 -199 -63 -400q0 -202 63 -401q64 -201 180 -378h-135q-260 362 -260 779zM924 1175v-345q72 72 188 72q147 0 228 -99t81 -297t-81 -297q-82 -100 -228 -100q-116 0 -188 72v-55h-187v1049h187zM924 506
q0 -120 36 -181t120 -61q155 0 155 242q0 241 -155 241q-84 0 -120 -61q-36 -62 -36 -180zM1840 614q0 -419 -258 -779h-135q116 179 178 379q63 204 63 400t-63 400q-61 199 -178 380h135q258 -360 258 -780z" />
    <glyph glyph-name="glyph538" unicode="&#x249e;" horiz-adv-x="2048" 
d="M208 614q0 418 260 780h135q-116 -178 -180 -380q-63 -199 -63 -400q0 -202 63 -401q64 -201 180 -378h-135q-260 362 -260 779zM684 611q0 191 86 294q86 102 255 102q145 0 231 -76q87 -77 101 -215h-186q-9 64 -46 100t-100 36q-83 0 -119 -61t-36 -180t36 -180
q36 -62 119 -62q63 0 100 36q37 35 46 102h186q-13 -139 -101 -216t-231 -77q-169 0 -255 103t-86 294zM1840 614q0 -419 -258 -779h-135q116 179 178 379q64 207 64 400t-64 400q-61 199 -178 380h135q258 -360 258 -780z" />
    <glyph glyph-name="glyph539" unicode="&#x249f;" horiz-adv-x="2048" 
d="M208 614q0 418 260 780h135q-116 -178 -180 -380q-63 -199 -63 -400q0 -202 63 -401q64 -201 180 -378h-135q-260 362 -260 779zM1123 837v345h186v-1049h-186v56q-72 -72 -187 -72q-149 0 -230 99t-81 297t81 297t230 99q115 0 187 -72zM1123 513q0 117 -37 180
q-36 61 -118 61q-84 0 -120 -61q-37 -63 -37 -180t37 -180q36 -61 120 -61q82 0 118 61q37 63 37 180zM1840 614q0 -419 -258 -779h-135q116 179 178 379q63 204 63 400t-63 400q-61 199 -178 380h135q258 -360 258 -780z" />
    <glyph glyph-name="glyph540" unicode="&#x24a0;" horiz-adv-x="2048" 
d="M208 614q0 418 260 780h135q-116 -178 -180 -380q-63 -199 -63 -400q0 -202 63 -401q64 -201 180 -378h-135q-260 362 -260 779zM1163 489h190q-24 -132 -108 -202q-85 -71 -220 -71q-171 0 -257 102q-86 103 -86 295q0 191 86 294q86 102 255 102q171 0 256 -102
q85 -101 85 -294v-61h-496q12 -183 157 -183q55 0 92 32q35 31 46 88zM870 692h306q-18 166 -153 166q-137 0 -153 -166zM1840 614q0 -419 -258 -779h-135q116 179 178 379q63 204 63 400t-63 400q-61 199 -178 380h135q258 -360 258 -780z" />
    <glyph glyph-name="glyph541" unicode="&#x24a1;" horiz-adv-x="2048" 
d="M208 614q0 418 260 780h135q-116 -178 -180 -380q-63 -199 -63 -400q0 -202 63 -401q64 -201 180 -378h-135q-260 362 -260 779zM1250 981h-92q-53 0 -72 -19q-21 -21 -21 -67v-58h185v-154h-185v-605h-186v605h-105v154h105v65q0 126 61 181q59 53 199 53h4
q52 0 107 -11v-144zM1840 614q0 -419 -258 -779h-135q116 179 178 379q63 204 63 400t-63 400q-61 199 -178 380h135q258 -360 258 -780z" />
    <glyph glyph-name="glyph542" unicode="&#x24a2;" horiz-adv-x="2048" 
d="M208 614q0 418 260 780h135q-116 -178 -180 -380q-63 -199 -63 -400q0 -202 63 -401q64 -201 180 -378h-135q-260 362 -260 779zM1163 351v77q-68 -74 -186 -74q-149 0 -230 101t-81 298q0 198 81 297t230 99q114 0 186 -72v55h186v-770q0 -146 -82 -234
q-83 -89 -246 -89q-137 0 -221 69t-99 189h189q7 -53 42 -82q34 -28 91 -28q69 0 105 42q35 41 35 122zM1163 753q0 241 -155 241q-156 0 -156 -241q0 -121 36 -182q36 -62 120 -62q83 0 119 62q36 61 36 182zM1840 614q0 -419 -258 -779h-135q116 179 178 379
q63 204 63 400t-63 400q-61 199 -178 380h135q258 -360 258 -780z" />
    <glyph glyph-name="glyph543" unicode="&#x24a3;" horiz-adv-x="2048" 
d="M209 614q0 418 260 780h135q-116 -178 -180 -380t-64 -400q0 -199 64 -401q64 -201 180 -378h-135q-260 362 -260 779zM1387 587v-472h-186v457q0 164 -120 164q-72 0 -116 -56t-44 -158v-407h-187v1049h187v-352q64 79 195 79q130 0 201 -79q70 -77 70 -225zM1840 614
q0 -419 -258 -779h-134q116 179 178 379q63 204 63 400t-63 400q-61 199 -178 380h134q258 -360 258 -780z" />
    <glyph glyph-name="glyph544" unicode="&#x24a4;" horiz-adv-x="2048" 
d="M208 614q0 418 260 780h135q-116 -178 -180 -380q-63 -199 -63 -400q0 -202 63 -401q64 -201 180 -378h-135q-260 362 -260 779zM1117 954h-188v189h188v-189zM1117 96h-188v760h188v-760zM1840 614q0 -419 -258 -779h-135q116 179 178 379q63 204 63 400t-63 400
q-61 199 -178 380h135q258 -360 258 -780z" />
    <glyph glyph-name="glyph545" unicode="&#x24a5;" horiz-adv-x="2048" 
d="M208 614q0 418 260 780h135q-116 -178 -180 -380q-63 -199 -63 -400q0 -202 63 -401q64 -201 180 -378h-135q-260 362 -260 779zM1161 935v-698q0 -117 -63 -177q-62 -59 -184 -59q-56 0 -84 5v149h70q73 0 73 87v693h188zM1161 1033h-188v191h188v-191zM1840 614
q0 -419 -258 -779h-135q116 179 178 379q63 204 63 400t-63 400q-61 199 -178 380h135q258 -360 258 -780z" />
    <glyph glyph-name="glyph546" unicode="&#x24a6;" horiz-adv-x="2048" 
d="M208 614q0 418 260 780h135q-116 -178 -180 -380q-63 -199 -63 -400q0 -202 63 -401q64 -201 180 -378h-135q-260 362 -260 779zM951 126h-186v1049h186v-579h37l199 289h208l-250 -363l286 -396h-216l-227 321h-37v-321zM1840 614q0 -419 -258 -779h-135
q116 179 178 379q63 204 63 400t-63 400q-61 199 -178 380h135q258 -360 258 -780z" />
    <glyph glyph-name="glyph547" unicode="&#x24a7;" horiz-adv-x="2048" 
d="M208 614q0 418 260 780h135q-116 -178 -180 -380q-63 -199 -63 -400q0 -202 63 -401q64 -201 180 -378h-135q-260 362 -260 779zM1124 87h-188v1047h188v-1047zM1840 614q0 -419 -258 -779h-135q116 179 178 379q63 204 63 400t-63 400q-61 199 -178 380h135
q258 -360 258 -780z" />
    <glyph glyph-name="glyph548" unicode="&#x24a8;" horiz-adv-x="2048" 
d="M208 614q0 418 260 780h135q-116 -178 -180 -380q-63 -199 -63 -400q0 -202 63 -401q64 -201 180 -378h-135q-260 362 -260 779zM1126 637v-406h-186v485q0 136 -107 136q-65 0 -104 -56t-39 -159v-406h-187v759h187v-60q62 77 180 77q153 0 214 -118q76 118 221 118
q124 0 190 -76q66 -77 66 -219v-481h-186v485q0 136 -105 136q-66 0 -104 -56q-40 -58 -40 -159zM1840 614q0 -419 -258 -779h-135q116 179 178 379q63 204 63 400t-63 400q-61 199 -178 380h135q258 -360 258 -780z" />
    <glyph glyph-name="glyph549" unicode="&#x24a9;" horiz-adv-x="2048" 
d="M208 614q0 418 260 780h135q-116 -178 -180 -380q-63 -199 -63 -400q0 -202 63 -401q64 -201 180 -378h-135q-260 362 -260 779zM1357 703v-472h-185v457q0 164 -121 164q-72 0 -116 -56q-45 -57 -45 -158v-407h-186v759h186v-62q67 79 198 79q130 0 199 -79
q70 -81 70 -225zM1840 614q0 -419 -258 -779h-135q116 179 178 379q63 204 63 400t-63 400q-61 199 -178 380h135q258 -360 258 -780z" />
    <glyph glyph-name="glyph550" unicode="&#x24aa;" horiz-adv-x="2048" 
d="M212 614q0 418 260 780h134q-114 -175 -179 -380q-64 -202 -64 -400q0 -199 64 -401q65 -204 179 -378h-134q-260 362 -260 779zM1369 614q0 -192 -85 -295t-256 -103q-170 0 -255 103q-86 104 -86 295t86 294t255 103q170 0 256 -103q85 -101 85 -294zM874 614
q0 -120 36 -181q36 -62 118 -62q84 0 120 61q35 60 35 182q0 120 -35 180q-36 62 -120 62q-154 0 -154 -242zM1843 614q0 -419 -258 -779h-135q116 179 178 379q64 207 64 400t-64 400q-61 199 -178 380h135q258 -360 258 -780z" />
    <glyph glyph-name="glyph551" unicode="&#x24ab;" horiz-adv-x="2048" 
d="M208 614q0 418 260 780h135q-116 -178 -180 -380q-63 -199 -63 -400q0 -202 63 -401q64 -201 180 -378h-135q-260 362 -260 779zM920 406v-369h-186v1073h186v-55q72 72 186 72q148 0 230 -100t82 -296t-82 -298q-81 -101 -230 -101q-118 0 -186 74zM920 731
q0 -121 36 -182q36 -62 119 -62q156 0 156 244q0 241 -156 241q-155 0 -155 -241zM1840 614q0 -419 -258 -779h-135q116 179 178 379q63 204 63 400t-63 400q-61 199 -178 380h135q258 -360 258 -780z" />
    <glyph glyph-name="glyph552" unicode="&#x24ac;" horiz-adv-x="2048" 
d="M208 614q0 418 260 780h135q-116 -178 -180 -380q-63 -199 -63 -400q0 -202 63 -401q64 -201 180 -378h-135q-260 362 -260 779zM1124 37v369q-68 -74 -186 -74q-149 0 -230 101t-81 298t81 296q82 100 230 100q114 0 186 -72v55h187v-1073h-187zM1124 731
q0 241 -154 241q-157 0 -157 -241q0 -121 36 -182q36 -62 121 -62q82 0 118 62q36 61 36 182zM1840 614q0 -419 -258 -779h-135q116 179 178 379q63 204 63 400t-63 400q-61 199 -178 380h135q258 -360 258 -780z" />
    <glyph glyph-name="glyph553" unicode="&#x24ad;" horiz-adv-x="2048" 
d="M208 612q0 418 260 780h135q-115 -177 -180 -381q-63 -199 -63 -399q0 -202 63 -401q64 -203 180 -379h-135q-260 362 -260 780zM1193 831q-82 0 -129 -59q-46 -58 -46 -171v-389h-187v759h187v-59q62 76 178 76q43 0 78 -11l-2 -151q-28 5 -79 5zM1840 612
q0 -420 -258 -780h-135q116 179 178 379q63 204 63 401q0 195 -63 399q-62 201 -178 381h135q258 -360 258 -780z" />
    <glyph glyph-name="glyph554" unicode="&#x24ae;" horiz-adv-x="2048" 
d="M208 614q0 418 260 780h135q-116 -178 -180 -380q-63 -199 -63 -400q0 -202 63 -401q64 -201 180 -378h-135q-260 362 -260 779zM1021 1009q137 0 215 -63t78 -166v-33h-186v35q0 31 -29 54q-30 24 -78 24t-76 -22q-29 -23 -29 -54t24 -49q21 -16 79 -30q176 -25 250 -81
q73 -55 73 -172q0 -102 -85 -169t-223 -67q-140 0 -224 66t-84 170v39h186v-39q0 -39 35 -63q33 -23 87 -23q50 0 85 25q37 26 37 59q0 65 -98 85q-187 38 -257 84q-71 47 -71 159q0 102 78 167q77 64 213 64zM1840 614q0 -419 -258 -779h-135q116 179 178 379
q63 204 63 400t-63 400q-61 199 -178 380h135q258 -360 258 -780z" />
    <glyph glyph-name="glyph555" unicode="&#x24af;" horiz-adv-x="2048" 
d="M208 612q0 418 260 780h135q-116 -178 -180 -380q-63 -199 -63 -400q0 -202 63 -401q64 -201 180 -378h-135q-260 362 -260 779zM1056 758v-367q0 -55 23 -75q22 -19 82 -19h94v-149q-39 -6 -119 -6q-144 0 -204 50q-62 51 -62 177v389h-105v155h105v202h186v-202h199
v-155h-199zM1840 612q0 -419 -258 -779h-135q116 179 178 379q63 204 63 400q0 195 -63 399q-62 201 -178 381h135q258 -360 258 -780z" />
    <glyph glyph-name="glyph556" unicode="&#x24b0;" horiz-adv-x="2048" 
d="M208 612q0 418 260 780h135q-116 -178 -180 -380q-63 -199 -63 -400q0 -202 63 -401q64 -201 180 -378h-135q-260 362 -260 779zM680 505v470h185v-455q0 -166 121 -166q71 0 116 57t45 157v407h186v-759h-186v64q-69 -81 -198 -81q-131 0 -200 80t-69 226zM1840 612
q0 -419 -258 -779h-135q116 179 178 379q63 204 63 400q0 195 -63 399q-62 201 -178 381h135q258 -360 258 -780z" />
    <glyph glyph-name="glyph557" unicode="&#x24b1;" horiz-adv-x="2048" 
d="M208 614q0 418 260 780h135q-116 -178 -180 -380q-63 -199 -63 -400q0 -202 63 -401q64 -201 180 -378h-135q-260 362 -260 779zM1110 194h-194l-278 760h193l183 -524l182 524h194zM1840 614q0 -419 -258 -779h-135q116 179 178 379q63 204 63 400t-63 400
q-61 199 -178 380h135q258 -360 258 -780z" />
    <glyph glyph-name="glyph558" unicode="&#x24b2;" horiz-adv-x="2048" 
d="M208 614q0 418 260 780h135q-116 -178 -180 -380q-63 -199 -63 -400q0 -202 63 -401q64 -201 180 -378h-135q-260 362 -260 779zM935 968h173l157 -499l151 499h190l-247 -759h-183l-155 498l-153 -498h-182l-249 759h192l151 -501zM1840 614q0 -419 -258 -779h-135
q116 179 178 379q63 204 63 400t-63 400q-61 199 -178 380h135q258 -360 258 -780z" />
    <glyph glyph-name="glyph559" unicode="&#x24b3;" horiz-adv-x="2048" 
d="M208 614q0 418 260 780h135q-116 -178 -180 -380q-63 -199 -63 -400q0 -202 63 -401q64 -201 180 -378h-135q-260 362 -260 779zM1394 224h-205l-162 254l-166 -254h-203l256 389l-241 370h204l150 -236l147 236h207l-244 -372zM1840 614q0 -419 -258 -779h-135
q116 179 178 379q63 204 63 400t-63 400q-61 199 -178 380h135q258 -360 258 -780z" />
    <glyph glyph-name="glyph560" unicode="&#x24b4;" horiz-adv-x="2048" 
d="M208 612q0 418 260 780h135q-115 -177 -180 -381q-63 -199 -63 -399q0 -202 63 -401q64 -203 180 -379h-135q-260 362 -260 780zM905 216l39 108l-284 741h194l184 -512l181 512h195l-337 -897q-37 -98 -94 -137q-56 -38 -148 -38q-56 0 -83 5v149h68q59 0 85 69z
M1840 612q0 -420 -258 -780h-135q116 179 178 379q64 207 64 401q0 192 -64 399q-62 201 -178 381h135q258 -360 258 -780z" />
    <glyph glyph-name="glyph561" unicode="&#x24b5;" horiz-adv-x="2048" 
d="M208 614q0 418 260 780h135q-116 -178 -180 -380q-63 -199 -63 -400q0 -202 63 -401q64 -201 180 -378h-135q-260 362 -260 779zM1307 992v-129l-345 -477h356v-153h-594v127l345 477h-333v155h571zM1840 614q0 -419 -258 -779h-135q116 179 178 379q63 204 63 400
t-63 400q-61 199 -178 380h135q258 -360 258 -780z" />
    <glyph glyph-name="glyph456" unicode="&#x24d0;" horiz-adv-x="2048" 
d="M187 613q0 234 111 426t305 302q193 109 424 109q233 0 424 -109q193 -110 304 -302t111 -426q0 -232 -111 -424q-110 -190 -304 -301q-191 -109 -424 -109q-231 0 -424 109q-195 110 -305 301q-111 192 -111 424zM329 613q0 -300 201 -503q201 -202 497 -202
q297 0 498 202q201 203 201 503q0 301 -201 505q-200 203 -498 203q-297 0 -497 -203q-201 -204 -201 -505zM1175 234q-12 29 -13 40q-68 -59 -192 -59q-134 0 -214 66q-79 66 -79 183q0 116 79 183q78 66 214 66q118 0 186 -53v60q0 135 -134 135q-116 0 -131 -109h-188
q12 123 92 193q82 71 227 71q157 0 238 -78t81 -212v-368q0 -54 24 -118h-190zM1011 363q145 0 145 101q0 102 -145 102q-146 0 -146 -102q0 -101 146 -101z" />
    <glyph glyph-name="glyph457" unicode="&#x24d1;" horiz-adv-x="2048" 
d="M184 613q0 234 111 426t305 302q193 109 424 109q233 0 424 -109q193 -110 304 -302t111 -426q0 -232 -111 -424q-110 -190 -304 -301q-191 -109 -424 -109q-231 0 -424 109q-195 110 -305 301q-111 192 -111 424zM326 613q0 -302 200 -503q201 -202 498 -202t498 202
q201 203 201 503q0 301 -201 505q-200 203 -498 203q-297 0 -497 -203q-201 -204 -201 -505zM923 1176v-345q72 72 188 72q146 0 228 -100t82 -297q0 -196 -82 -296t-228 -100q-116 0 -188 72v-55h-186v1049h186zM923 506q0 -118 36 -180q36 -61 121 -61q154 0 154 241
q0 242 -154 242q-85 0 -121 -61t-36 -181z" />
    <glyph glyph-name="glyph458" unicode="&#x24d2;" horiz-adv-x="2048" 
d="M184 613q0 234 111 426t305 302q193 109 424 109q233 0 424 -109q193 -110 304 -302t111 -426q0 -232 -111 -424q-110 -190 -304 -301q-191 -109 -424 -109q-231 0 -424 109q-195 110 -305 301q-111 192 -111 424zM326 613q0 -300 201 -503q201 -202 497 -202
q297 0 498 202q201 203 201 503q0 301 -201 505q-200 203 -498 203q-297 0 -497 -203q-201 -204 -201 -505zM683 612q0 191 86 294q85 102 255 102q146 0 232 -76t100 -215h-186q-9 64 -46 100q-38 36 -100 36q-82 0 -118 -61q-36 -62 -36 -180t36 -180t118 -62q62 0 100 36
q37 35 46 102h186q-14 -140 -100 -216q-88 -77 -232 -77q-169 0 -255 103t-86 294z" />
    <glyph glyph-name="glyph459" unicode="&#x24d3;" horiz-adv-x="2048" 
d="M184 613q0 232 112 426q112 193 304 302q193 109 425 109t423 -109q193 -110 304 -302q112 -194 112 -426q0 -230 -112 -424q-110 -190 -304 -301q-191 -109 -423 -109t-425 109t-304 301q-112 194 -112 424zM326 613q0 -300 201 -503q201 -202 498 -202t498 202
q200 201 200 503t-200 505t-498 203t-498 -203q-201 -204 -201 -505zM1123 838v345h186v-1049h-186v56q-72 -72 -187 -72q-149 0 -230 99t-81 297t81 297t230 99q115 0 187 -72zM1123 514q0 117 -37 180q-36 61 -118 61q-84 0 -120 -61q-37 -63 -37 -180t37 -180
q36 -62 120 -62q82 0 118 62q37 63 37 180z" />
    <glyph glyph-name="glyph460" unicode="&#x24d4;" horiz-adv-x="2048" 
d="M184 613q0 232 112 426q112 193 304 302q193 109 425 109t423 -109q193 -110 304 -302q112 -194 112 -426q0 -230 -112 -424q-110 -190 -304 -301q-191 -109 -423 -109t-425 109t-304 301q-112 194 -112 424zM326 613q0 -300 201 -503q201 -202 498 -202t498 202
q200 201 200 503t-200 505t-498 203t-498 -203q-201 -204 -201 -505zM1163 490h190q-24 -132 -108 -202q-85 -71 -220 -71q-171 0 -257 102q-86 103 -86 294t86 294t255 103q171 0 256 -102q85 -101 85 -295v-60h-496q12 -183 157 -183q55 0 92 32q35 31 46 88zM870 693h306
q-18 166 -153 166q-137 0 -153 -166z" />
    <glyph glyph-name="glyph461" unicode="&#x24d5;" horiz-adv-x="2048" 
d="M184 613q0 234 111 426t305 302q193 109 424 109q233 0 424 -109q193 -110 304 -302t111 -426q0 -232 -111 -424q-110 -190 -304 -301q-191 -109 -424 -109q-231 0 -424 109q-195 110 -305 301q-111 192 -111 424zM326 613q0 -300 201 -503q201 -202 497 -202
q297 0 498 202q201 203 201 503q0 301 -201 505q-200 203 -498 203q-297 0 -497 -203q-201 -204 -201 -505zM1249 982h-92q-53 0 -72 -19q-20 -20 -20 -68v-57h184v-154h-184v-605h-186v605h-105v154h105v65q0 127 60 181q59 53 200 53h4q51 0 106 -11v-144z" />
    <glyph glyph-name="glyph462" unicode="&#x24d6;" horiz-adv-x="2048" 
d="M188 613q0 234 111 426t305 302q193 109 425 109t423 -109q193 -110 304 -302t111 -426q0 -232 -111 -424q-110 -190 -304 -301q-191 -109 -423 -109t-425 109q-195 110 -305 301q-111 192 -111 424zM330 613q0 -300 201 -503q201 -202 498 -202q296 0 497 202
q201 203 201 503q0 301 -201 505q-200 203 -497 203q-298 0 -498 -203q-201 -204 -201 -505zM1167 352v77q-68 -74 -186 -74q-149 0 -230 101q-82 102 -82 298q0 197 82 297q81 99 230 99q114 0 186 -72v55h186v-770q0 -146 -82 -234q-83 -89 -246 -89q-138 0 -222 69
t-99 189h190q7 -53 42 -82q34 -28 91 -28q68 0 104 42t36 122zM1167 754q0 241 -155 241q-157 0 -157 -241q0 -119 37 -182q36 -62 120 -62q83 0 119 62q36 61 36 182z" />
    <glyph glyph-name="glyph463" unicode="&#x24d7;" horiz-adv-x="2048" 
d="M184 613q0 234 111 426t305 302q193 109 424 109q233 0 424 -109q193 -110 304 -302t111 -426q0 -232 -111 -424q-110 -190 -304 -301q-191 -109 -424 -109q-231 0 -424 109q-195 110 -305 301q-111 192 -111 424zM326 613q0 -300 201 -503q201 -202 497 -202
q297 0 498 202q201 203 201 503t-201 504t-498 204q-296 0 -497 -204t-201 -504zM1386 588v-472h-186v457q0 164 -120 164q-72 0 -116 -56q-45 -57 -45 -158v-407h-186v1049h186v-352q64 79 196 79q130 0 201 -79q70 -77 70 -225z" />
    <glyph glyph-name="glyph464" unicode="&#x24d8;" horiz-adv-x="2048" 
d="M186 613q0 232 112 426q112 193 304 302q193 109 425 109t423 -109q193 -110 304 -302q112 -194 112 -426q0 -230 -112 -424q-110 -190 -304 -301q-191 -109 -423 -109t-425 109t-304 301q-112 194 -112 424zM328 613q0 -300 201 -503q201 -202 498 -202t498 202
q200 201 200 503t-200 505t-498 203q-297 0 -498 -204t-201 -504zM1119 954h-188v190h188v-190zM1119 97h-188v760h188v-760z" />
    <glyph glyph-name="glyph465" unicode="&#x24d9;" horiz-adv-x="2048" 
d="M185 613q0 232 112 426q112 193 304 302q193 109 425 109t423 -109q193 -110 304 -302t111 -426q0 -232 -111 -424q-110 -190 -304 -301q-191 -109 -423 -109t-425 109t-304 301q-112 194 -112 424zM327 613q0 -300 201 -503q201 -202 498 -202t498 202q200 201 200 503
t-200 505t-498 203t-498 -203q-201 -204 -201 -505zM1162 936v-699q0 -116 -63 -176t-184 -60q-52 0 -85 6v149h71q73 0 73 87v693h188zM1162 1034h-188v191h188v-191z" />
    <glyph glyph-name="glyph466" unicode="&#x24da;" horiz-adv-x="2048" 
d="M184 613q0 232 112 426q112 193 304 302q193 109 425 109t423 -109q193 -110 304 -302q112 -194 112 -426q0 -230 -112 -424q-110 -190 -304 -301q-191 -109 -423 -109t-425 109t-304 301q-112 194 -112 424zM326 613q0 -300 201 -503q201 -202 498 -202t498 202
q200 201 200 503t-200 505t-498 203t-498 -203q-201 -204 -201 -505zM951 127h-186v1049h186v-579h37l199 289h208l-250 -363l285 -396h-215l-227 321h-37v-321z" />
    <glyph glyph-name="glyph467" unicode="&#x24db;" horiz-adv-x="2048" 
d="M185 613q0 232 112 426q112 193 304 302q193 109 425 109t423 -109q193 -110 304 -302t111 -426q0 -232 -111 -424q-110 -190 -304 -301q-191 -109 -423 -109t-425 109t-304 301q-112 194 -112 424zM327 613q0 -300 201 -503q201 -202 498 -202t498 202q200 201 200 503
t-200 505t-498 203t-498 -203q-201 -204 -201 -505zM1125 88h-188v1047h188v-1047z" />
    <glyph glyph-name="glyph468" unicode="&#x24dc;" horiz-adv-x="2048" 
d="M185 613q0 232 112 426q112 193 304 302q193 109 425 109t423 -109q193 -110 304 -302t111 -426q0 -232 -111 -424q-110 -190 -304 -301q-191 -109 -423 -109t-425 109t-304 301q-112 194 -112 424zM327 613q0 -300 201 -503q201 -202 498 -202t498 202q200 201 200 503
t-200 505t-498 203t-498 -203q-201 -204 -201 -505zM1127 637v-405h-186v485q0 136 -107 136q-65 0 -104 -56q-40 -57 -40 -160v-405h-186v759h186v-61q63 78 181 78q153 0 214 -118q76 118 221 118q124 0 190 -76t66 -219v-481h-186v485q0 136 -105 136q-66 0 -104 -56
q-40 -58 -40 -160z" />
    <glyph glyph-name="glyph469" unicode="&#x24dd;" horiz-adv-x="2048" 
d="M184 613q0 234 111 426t305 302q193 109 424 109q233 0 424 -109q193 -110 304 -302t111 -426q0 -232 -111 -424q-110 -190 -304 -301q-191 -109 -424 -109q-231 0 -424 109q-195 110 -305 301q-111 192 -111 424zM326 613q0 -300 201 -503q201 -202 497 -202
q297 0 498 202q201 203 201 503q0 301 -201 505q-200 203 -498 203q-297 0 -497 -203q-201 -204 -201 -505zM1356 704v-472h-184v457q0 164 -122 164q-72 0 -116 -56t-44 -158v-407h-186v759h186v-62q67 79 197 79q131 0 200 -79t69 -225z" />
    <glyph glyph-name="glyph470" unicode="&#x24de;" horiz-adv-x="2048" 
d="M185 613q0 234 111 426t305 302q193 109 424 109q233 0 424 -109q193 -110 304 -302t111 -426q0 -232 -111 -424q-110 -190 -304 -301q-191 -109 -424 -109q-231 0 -424 109q-195 110 -305 301q-111 192 -111 424zM327 613q0 -300 201 -503q201 -202 497 -202
q297 0 498 202q201 203 201 503q0 301 -201 505q-200 203 -498 203q-297 0 -497 -203q-201 -204 -201 -505zM1366 615q0 -192 -85 -295t-256 -103q-170 0 -255 103q-86 104 -86 295t86 294t255 103q170 0 256 -103q85 -101 85 -294zM871 615q0 -120 36 -181q36 -62 118 -62
q84 0 120 61q35 60 35 182q0 119 -36 180q-36 62 -119 62q-154 0 -154 -242z" />
    <glyph glyph-name="glyph471" unicode="&#x24df;" horiz-adv-x="2048" 
d="M184 613q0 234 111 426t305 302q193 109 424 109q233 0 424 -109q193 -110 304 -302t111 -426q0 -232 -111 -424q-110 -190 -304 -301q-191 -109 -424 -109q-231 0 -424 109q-195 110 -305 301q-111 192 -111 424zM326 613q0 -300 201 -503q201 -202 497 -202
q297 0 498 202q201 203 201 503t-201 504t-498 204q-296 0 -497 -204t-201 -504zM919 407v-369h-186v1073h186v-55q72 72 187 72q148 0 230 -100q81 -99 81 -297q0 -196 -82 -298q-81 -100 -229 -100q-119 0 -187 74zM919 731q0 -118 37 -181q36 -62 118 -62q157 0 157 243
q0 242 -157 242q-155 0 -155 -242z" />
    <glyph glyph-name="glyph472" unicode="&#x24e0;" horiz-adv-x="2048" 
d="M184 613q0 232 112 426q112 193 304 302q193 109 425 109t423 -109q193 -110 304 -302q112 -194 112 -426q0 -230 -112 -424q-110 -190 -304 -301q-191 -109 -423 -109t-425 109t-304 301q-112 194 -112 424zM326 613q0 -300 201 -503q201 -202 498 -202t498 202
q200 201 200 503t-200 505t-498 203t-498 -203q-201 -204 -201 -505zM1124 38v369q-68 -74 -186 -74q-149 0 -230 100q-81 101 -81 298q0 198 81 297q82 100 230 100q114 0 186 -72v55h187v-1073h-187zM1124 731q0 242 -154 242q-157 0 -157 -242q0 -119 36 -181t121 -62
q82 0 118 62t36 181z" />
    <glyph glyph-name="glyph473" unicode="&#x24e1;" horiz-adv-x="2048" 
d="M184 613q0 234 111 426t305 302q193 109 424 109q233 0 424 -109q193 -110 304 -302t111 -426q0 -232 -111 -424q-110 -190 -304 -301q-191 -109 -424 -109q-231 0 -424 109q-195 110 -305 301q-111 192 -111 424zM326 613q0 -302 200 -503q201 -202 498 -202t498 202
q201 203 201 503q0 301 -201 505q-200 203 -498 203q-297 0 -497 -203q-201 -204 -201 -505zM1192 835q-82 0 -129 -59q-46 -58 -46 -172v-389h-186v760h186v-59q61 75 179 75q42 0 77 -11l-2 -151q-33 6 -79 6z" />
    <glyph glyph-name="glyph474" unicode="&#x24e2;" horiz-adv-x="2048" 
d="M184 613q0 234 111 426t305 302q193 109 424 109q233 0 424 -109q193 -110 304 -302t111 -426q0 -232 -111 -424q-110 -190 -304 -301q-191 -109 -424 -109q-231 0 -424 109q-195 110 -305 301q-111 192 -111 424zM326 613q0 -300 201 -503q201 -202 497 -202
q297 0 498 202q201 203 201 503q0 301 -201 505q-200 203 -498 203q-297 0 -497 -203q-201 -204 -201 -505zM1021 1010q136 0 214 -63q79 -64 79 -166v-33h-186v35q0 30 -30 54q-29 23 -77 23q-49 0 -77 -22t-28 -53t24 -49q21 -16 79 -30q175 -25 249 -81q73 -55 73 -172
q0 -103 -84 -169q-85 -67 -223 -67q-140 0 -224 66t-84 170v39h186v-39q0 -39 34 -63t88 -24q48 0 85 26q36 26 36 59q0 66 -97 85q-188 38 -258 84q-71 47 -71 159q0 101 78 166q79 65 214 65z" />
    <glyph glyph-name="glyph475" unicode="&#x24e3;" horiz-adv-x="2048" 
d="M184 613q0 233 111 425q112 193 304 302q193 109 425 109q233 0 424 -109q192 -109 303 -302q112 -194 112 -425q0 -230 -112 -424q-111 -193 -303 -302q-191 -109 -424 -109q-232 0 -425 109q-192 109 -304 302q-111 192 -111 424zM326 613q0 -302 200 -503
q201 -203 498 -203t498 203t201 503t-201 504q-200 203 -498 203t-498 -203t-200 -504zM1055 760v-367q0 -54 24 -75q22 -19 82 -19h94v-149q-39 -6 -120 -6q-143 0 -204 51q-62 51 -62 176v389h-105v155h105v203h186v-203h200v-155h-200z" />
    <glyph glyph-name="glyph476" unicode="&#x24e4;" horiz-adv-x="2048" 
d="M184 613q0 234 111 426t305 302q193 109 424 109q233 0 424 -109q193 -110 304 -302t111 -426q0 -232 -111 -424q-110 -190 -304 -301q-191 -109 -424 -109q-231 0 -424 109q-195 110 -305 301q-111 192 -111 424zM326 613q0 -300 201 -503q201 -202 497 -202
q297 0 498 202q201 203 201 503q0 301 -201 505q-200 203 -498 203q-297 0 -497 -203q-201 -204 -201 -505zM680 508v470h184v-455q0 -166 122 -166q70 0 115 57t45 157v407h186v-759h-186v65q-70 -82 -197 -82q-131 0 -200 80t-69 226z" />
    <glyph glyph-name="glyph477" unicode="&#x24e5;" horiz-adv-x="2048" 
d="M184 613q0 234 111 426t305 302q193 109 424 109q233 0 424 -109q193 -110 304 -302t111 -426q0 -232 -111 -424q-110 -190 -304 -301q-191 -109 -424 -109q-231 0 -424 109q-195 110 -305 301q-111 192 -111 424zM326 613q0 -300 201 -503q201 -202 497 -202
q297 0 498 202q201 203 201 503q0 301 -201 505q-200 203 -498 203q-297 0 -497 -203q-201 -204 -201 -505zM1109 195h-193l-279 759h194l182 -523l183 523h193z" />
    <glyph glyph-name="glyph478" unicode="&#x24e6;" horiz-adv-x="2048" 
d="M184 613q0 234 111 426t305 302q193 109 424 109q233 0 424 -109q193 -110 304 -302t111 -426q0 -232 -111 -424q-110 -190 -304 -301q-191 -109 -424 -109q-231 0 -424 109q-195 110 -305 301q-111 192 -111 424zM326 613q0 -300 201 -503q201 -202 497 -202
q297 0 498 202q201 203 201 503q0 301 -201 505q-200 203 -498 203q-297 0 -497 -203q-201 -204 -201 -505zM934 969h173l157 -499l151 499h190l-247 -759h-182l-155 497l-153 -497h-183l-249 759h192l151 -501z" />
    <glyph glyph-name="glyph479" unicode="&#x24e7;" horiz-adv-x="2048" 
d="M184 613q0 232 112 426q112 193 304 302q193 109 425 109t423 -109q193 -110 304 -302q112 -194 112 -426q0 -230 -112 -424q-110 -190 -304 -301q-191 -109 -423 -109t-425 109t-304 301q-112 194 -112 424zM326 613q0 -300 201 -503q201 -202 498 -202t498 202
q200 201 200 503t-200 505t-498 203t-498 -203q-201 -204 -201 -505zM1394 225h-205l-162 254l-166 -254h-203l256 388l-241 371h204l150 -236l147 236h207l-244 -372z" />
    <glyph glyph-name="glyph480" unicode="&#x24e8;" horiz-adv-x="2048" 
d="M184 613q0 232 112 426q112 193 304 302q193 109 425 109t423 -109q193 -110 304 -302q112 -194 112 -426q0 -230 -112 -424q-110 -190 -304 -301q-191 -109 -423 -109t-425 109t-304 301q-112 194 -112 424zM326 613q0 -300 201 -503q201 -202 498 -202t498 202
q200 201 200 503t-200 505t-498 203t-498 -203q-201 -204 -201 -505zM905 219l39 109l-284 741h194l184 -513l181 513h195l-337 -898q-37 -98 -94 -137q-56 -38 -148 -38q-50 0 -83 6v149h68q60 0 85 68z" />
    <glyph glyph-name="glyph481" unicode="&#x24e9;" horiz-adv-x="2048" 
d="M184 613q0 232 112 426q112 193 304 302q193 109 425 109t423 -109q193 -110 304 -302q112 -194 112 -426q0 -230 -112 -424q-110 -190 -304 -301q-191 -109 -423 -109t-425 109t-304 301q-112 194 -112 424zM326 613q0 -300 201 -503q201 -202 498 -202t498 202
q200 201 200 503q0 301 -200 504q-201 204 -498 204t-498 -204t-201 -504zM1307 993v-129l-345 -477h356v-153h-594v127l345 477h-333v155h571z" />
    <glyph glyph-name="glyph268" unicode="&#x2500;" horiz-adv-x="2048" 
d="M1909 669v-109h-1770v109h1770z" />
    <glyph glyph-name="glyph279" unicode="&#x2501;" horiz-adv-x="2048" 
d="M139 679h1770v-174h-1770v174z" />
    <glyph glyph-name="glyph269" unicode="&#x2502;" horiz-adv-x="2048" 
d="M970 1536h108v-1843h-108v1843z" />
    <glyph glyph-name="glyph280" unicode="&#x2503;" horiz-adv-x="2048" 
d="M937 1536h174v-1843h-174v1843z" />
    <glyph glyph-name="glyph270" unicode="&#x250c;" horiz-adv-x="2048" 
d="M956 -330v975h938v-108h-829v-867h-109z" />
    <glyph glyph-name="glyph307" unicode="&#x250d;" horiz-adv-x="2048" 
d="M975 701h919v-173h-851v-835h-68v1008z" />
    <glyph glyph-name="glyph306" unicode="&#x250e;" horiz-adv-x="2048" 
d="M1096 579v-886h-173v953h971v-67h-798z" />
    <glyph glyph-name="glyph281" unicode="&#x250f;" horiz-adv-x="2048" 
d="M923 701h971v-173h-798v-835h-173v1008z" />
    <glyph glyph-name="glyph271" unicode="&#x2510;" horiz-adv-x="2048" 
d="M983 -330v867h-829v108h938v-975h-109z" />
    <glyph glyph-name="glyph301" unicode="&#x2511;" horiz-adv-x="2048" 
d="M1003 528h-849v173h918v-1008h-69v835z" />
    <glyph glyph-name="glyph300" unicode="&#x2512;" horiz-adv-x="2048" 
d="M953 579h-798v67h972v-953h-174v886z" />
    <glyph glyph-name="glyph282" unicode="&#x2513;" horiz-adv-x="2048" 
d="M1125 -307h-173v835h-798v173h971v-1008z" />
    <glyph glyph-name="glyph273" unicode="&#x2514;" horiz-adv-x="2048" 
d="M1063 1513v-868h831v-108h-940v976h109z" />
    <glyph glyph-name="glyph305" unicode="&#x2515;" horiz-adv-x="2048" 
d="M1043 701h851v-173h-919v1008h68v-835z" />
    <glyph glyph-name="glyph304" unicode="&#x2516;" horiz-adv-x="2048" 
d="M1096 646h798v-67h-971v957h173v-890z" />
    <glyph glyph-name="glyph284" unicode="&#x2517;" horiz-adv-x="2048" 
d="M1096 701h798v-173h-971v1008h173v-835z" />
    <glyph glyph-name="glyph272" unicode="&#x2518;" horiz-adv-x="2048" 
d="M1094 1513v-976h-940v108h831v868h109z" />
    <glyph glyph-name="glyph303" unicode="&#x2519;" horiz-adv-x="2048" 
d="M1003 701v835h69v-1008h-918v173h849z" />
    <glyph glyph-name="glyph302" unicode="&#x251a;" horiz-adv-x="2048" 
d="M953 646v890h173v-957h-971v67h798z" />
    <glyph glyph-name="glyph283" unicode="&#x251b;" horiz-adv-x="2048" 
d="M952 1536h173v-1008h-971v173h798v835z" />
    <glyph glyph-name="glyph274" unicode="&#x251c;" horiz-adv-x="2048" 
d="M956 1513h109v-868h829v-108h-829v-867h-109v1843z" />
    <glyph glyph-name="glyph295" unicode="&#x251d;" horiz-adv-x="2048" 
d="M1894 701v-173h-851v-835h-68v1843h68v-835h851z" />
    <glyph glyph-name="glyph308" unicode="&#x251e;" horiz-adv-x="2048" 
d="M923 1536h173v-890h798v-67h-851v-886h-68v886h-52v957z" />
    <glyph glyph-name="glyph309" unicode="&#x251f;" horiz-adv-x="2048" 
d="M975 1536h68v-890h851v-67h-798v-886h-173v953h52v890z" />
    <glyph glyph-name="glyph290" unicode="&#x2520;" horiz-adv-x="2048" 
d="M1894 646v-67h-798v-886h-173v1843h173v-890h798z" />
    <glyph glyph-name="glyph310" unicode="&#x2521;" horiz-adv-x="2048" 
d="M975 -310v835h-52v1008h173v-835h798v-173h-851v-835h-68z" />
    <glyph glyph-name="glyph311" unicode="&#x2522;" horiz-adv-x="2048" 
d="M923 -308v1008h52v835h68v-835h851v-174h-798v-834h-173z" />
    <glyph glyph-name="glyph285" unicode="&#x2523;" horiz-adv-x="2048" 
d="M923 1536h173v-835h798v-173h-798v-835h-173v1843z" />
    <glyph glyph-name="glyph276" unicode="&#x2524;" horiz-adv-x="2048" 
d="M1094 1536v-1843h-109v866h-831v109h831v868h109z" />
    <glyph glyph-name="glyph297" unicode="&#x2525;" horiz-adv-x="2048" 
d="M1003 701v835h69v-1843h-69v835h-849v173h849z" />
    <glyph glyph-name="glyph312" unicode="&#x2526;" horiz-adv-x="2048" 
d="M952 1535h173v-957h-53v-886h-69v886h-849v66h798v891z" />
    <glyph glyph-name="glyph313" unicode="&#x2527;" horiz-adv-x="2048" 
d="M154 644h849v891h69v-891h53v-952h-173v886h-798v66z" />
    <glyph glyph-name="glyph292" unicode="&#x2528;" horiz-adv-x="2048" 
d="M1125 -307h-173v886h-798v67h798v890h173v-1843z" />
    <glyph glyph-name="glyph314" unicode="&#x2529;" horiz-adv-x="2048" 
d="M154 528v173h798v835h173v-1008h-53v-835h-69v835h-849z" />
    <glyph glyph-name="glyph315" unicode="&#x252a;" horiz-adv-x="2048" 
d="M154 526v173h849v835h69v-835h53v-1008h-173v835h-798z" />
    <glyph glyph-name="glyph287" unicode="&#x252b;" horiz-adv-x="2048" 
d="M154 528v173h798v835h173v-1843h-173v835h-798z" />
    <glyph glyph-name="glyph275" unicode="&#x252c;" horiz-adv-x="2048" 
d="M1909 645v-108h-830v-867h-108v867h-832v108h1770z" />
    <glyph glyph-name="glyph316" unicode="&#x252d;" horiz-adv-x="2048" 
d="M139 526v173h918v-55h852v-67h-852v-886h-68v835h-850z" />
    <glyph glyph-name="glyph317" unicode="&#x252e;" horiz-adv-x="2048" 
d="M139 577v67h850v55h920v-173h-852v-835h-68v886h-850z" />
    <glyph glyph-name="glyph291" unicode="&#x252f;" horiz-adv-x="2048" 
d="M1908 701v-173h-851v-835h-68v835h-850v173h1769z" />
    <glyph glyph-name="glyph296" unicode="&#x2530;" horiz-adv-x="2048" 
d="M1909 646v-67h-798v-886h-174v886h-798v67h1770z" />
    <glyph glyph-name="glyph318" unicode="&#x2531;" horiz-adv-x="2048" 
d="M139 526v173h972v-55h798v-67h-798v-886h-174v835h-798z" />
    <glyph glyph-name="glyph319" unicode="&#x2532;" horiz-adv-x="2048" 
d="M139 577v67h798v55h972v-173h-798v-835h-174v886h-798z" />
    <glyph glyph-name="glyph286" unicode="&#x2533;" horiz-adv-x="2048" 
d="M139 528v173h1770v-173h-798v-835h-174v835h-798z" />
    <glyph glyph-name="glyph277" unicode="&#x2534;" horiz-adv-x="2048" 
d="M1909 537h-1770v108h832v868h108v-868h830v-108z" />
    <glyph glyph-name="glyph320" unicode="&#x2535;" horiz-adv-x="2048" 
d="M139 526v173h850v835h68v-890h852v-67h-852v-51h-918z" />
    <glyph glyph-name="glyph321" unicode="&#x2536;" horiz-adv-x="2048" 
d="M1057 699h852v-173h-920v51h-850v67h850v890h68v-835z" />
    <glyph glyph-name="glyph293" unicode="&#x2537;" horiz-adv-x="2048" 
d="M989 701v835h68v-835h852v-173h-1770v173h850z" />
    <glyph glyph-name="glyph298" unicode="&#x2538;" horiz-adv-x="2048" 
d="M937 646v890h174v-890h798v-67h-1770v67h798z" />
    <glyph glyph-name="glyph322" unicode="&#x2539;" horiz-adv-x="2048" 
d="M1111 644h798v-67h-798v-51h-972v173h798v835h174v-890z" />
    <glyph glyph-name="glyph323" unicode="&#x253a;" horiz-adv-x="2048" 
d="M139 577v67h798v890h174v-835h798v-173h-972v51h-798z" />
    <glyph glyph-name="glyph288" unicode="&#x253b;" horiz-adv-x="2048" 
d="M937 701v835h174v-835h798v-173h-1770v173h798z" />
    <glyph glyph-name="glyph278" unicode="&#x253c;" horiz-adv-x="2048" 
d="M970 1514h109v-868h829v-109h-829v-867h-109v867h-831v109h831v868z" />
    <glyph glyph-name="glyph324" unicode="&#x253d;" horiz-adv-x="2048" 
d="M139 522v173h850v835h68v-890h852v-67h-852v-886h-68v835h-850z" />
    <glyph glyph-name="glyph325" unicode="&#x253e;" horiz-adv-x="2048" 
d="M1057 1536v-835h852v-173h-852v-835h-68v886h-850v67h850v890h68z" />
    <glyph glyph-name="glyph294" unicode="&#x253f;" horiz-adv-x="2048" 
d="M989 701v835h68v-835h852v-173h-852v-835h-68v835h-850v173h850z" />
    <glyph glyph-name="glyph326" unicode="&#x2540;" horiz-adv-x="2048" 
d="M1111 1536v-890h798v-67h-852v-886h-68v886h-850v67h798v890h174z" />
    <glyph glyph-name="glyph327" unicode="&#x2541;" horiz-adv-x="2048" 
d="M1057 1536v-890h852v-67h-798v-886h-174v886h-798v67h850v890h68z" />
    <glyph glyph-name="glyph299" unicode="&#x2542;" horiz-adv-x="2048" 
d="M937 646v890h173v-890h798v-67h-798v-886h-173v886h-798v67h798z" />
    <glyph glyph-name="glyph328" unicode="&#x2543;" horiz-adv-x="2048" 
d="M1112 1536v-890h798v-67h-798v-51h-53v-835h-68v835h-850v173h798v835h173z" />
    <glyph glyph-name="glyph329" unicode="&#x2544;" horiz-adv-x="2048" 
d="M1057 -307h-68v835h-52v51h-798v67h798v890h174v-835h798v-173h-852v-835z" />
    <glyph glyph-name="glyph330" unicode="&#x2545;" horiz-adv-x="2048" 
d="M1057 1536v-835h54v-55h798v-67h-798v-886h-174v835h-798v173h850v835h68z" />
    <glyph glyph-name="glyph331" unicode="&#x2546;" horiz-adv-x="2048" 
d="M1057 1536v-835h852v-175h-798v-833h-174v886h-798v67h798v55h52v835h68z" />
    <glyph glyph-name="glyph332" unicode="&#x2547;" horiz-adv-x="2048" 
d="M1112 1536v-835h798v-173h-851v-835h-68v835h-850v173h798v835h173z" />
    <glyph glyph-name="glyph333" unicode="&#x2548;" horiz-adv-x="2048" 
d="M1057 1536v-835h852v-173h-798v-835h-174v835h-798v173h850v835h68z" />
    <glyph glyph-name="glyph334" unicode="&#x2549;" horiz-adv-x="2048" 
d="M1111 1536v-890h798v-67h-798v-886h-174v835h-798v173h798v835h174z" />
    <glyph glyph-name="glyph335" unicode="&#x254a;" horiz-adv-x="2048" 
d="M1111 1536v-835h798v-173h-798v-835h-174v886h-798v67h798v890h174z" />
    <glyph glyph-name="glyph289" unicode="&#x254b;" horiz-adv-x="2048" 
d="M937 701v835h174v-835h798v-173h-798v-835h-174v835h-798v173h798z" />
    <glyph glyph-name="glyph122" unicode="&#x2592;" horiz-adv-x="2048" 
d="M1718 -96h-1430v1417h1430v-1417zM384 -21h1235v1257h-1235v-1257zM539 1082h-105v110h105v-110zM539 907h-105v108h105v-108zM539 733h-105v109h105v-109zM539 553h-105v114h105v-114zM539 379h-105v109h105v-109zM539 206h-105v107h105v-107zM539 27h-105v111h105v-111
zM710 1082h-103v110h103v-110zM710 907h-103v108h103v-108zM710 733h-103v109h103v-109zM710 553h-103v114h103v-114zM710 379h-103v109h103v-109zM710 206h-103v107h103v-107zM710 27h-103v111h103v-111zM880 1082h-105v110h105v-110zM880 907h-105v108h105v-108zM880 733
h-105v109h105v-109zM880 553h-105v114h105v-114zM880 379h-105v109h105v-109zM880 206h-105v107h105v-107zM880 27h-105v111h105v-111zM946 1082v110h107v-110h-107zM946 907v108h107v-108h-107zM946 733v109h107v-109h-107zM946 553v114h107v-114h-107zM946 379v109h107
v-109h-107zM946 206v107h107v-107h-107zM946 27v111h107v-111h-107zM1224 1082h-107v110h107v-110zM1224 907h-107v108h107v-108zM1224 733h-107v109h107v-109zM1224 553h-107v114h107v-114zM1224 379h-107v109h107v-109zM1224 206h-107v107h107v-107zM1224 27h-107v111h107
v-111zM1291 1192h103v-110h-103v110zM1291 1015h103v-108h-103v108zM1291 842h103v-109h-103v109zM1291 667h103v-114h-103v114zM1291 488h103v-109h-103v109zM1291 313h103v-107h-103v107zM1291 138h103v-111h-103v111zM1460 1192h105v-110h-105v110zM1460 1015h105v-108
h-105v108zM1460 842h105v-109h-105v109zM1460 667h105v-114h-105v114zM1460 488h105v-109h-105v109zM1460 313h105v-107h-105v107zM1460 138h105v-111h-105v111z" />
    <glyph glyph-name="glyph56" unicode="&#x25a0;" horiz-adv-x="2048" 
d="M325 -79v1386h1398v-1386h-1398z" />
    <glyph glyph-name="glyph55" unicode="&#x25a1;" horiz-adv-x="2048" 
d="M1723 -79h-1398v1386h1398v-1386zM483 67h1082v1095h-1082v-1095z" />
    <glyph glyph-name="glyph119" unicode="&#x25a3;" horiz-adv-x="2048" 
d="M1723 -78h-1398v1386h1398v-1386zM483 68h1082v1095h-1082v-1095zM1309 328h-570v577h570v-577z" />
    <glyph glyph-name="glyph123" unicode="&#x25a4;" horiz-adv-x="2048" 
d="M1698 -101h-1431v1418h1431v-1418zM1598 1119v113h-1235v-113h1235zM363 1049v-121h1235v121h-1235zM363 856v-120h1235v120h-1235zM363 666v-123h1235v123h-1235zM363 471v-120h1235v120h-1235zM363 281v-122h1235v122h-1235zM363 -25h1235v114h-1235v-114z" />
    <glyph glyph-name="glyph124" unicode="&#x25a5;" horiz-adv-x="2048" 
d="M1725 -104h-1430v1417h1430v-1417zM383 1224v-1246h116v1246h-116zM569 1224v-1246h120v1246h-120zM759 1224v-1246h118v1246h-118zM947 1224v-1246h118v1246h-118zM1135 1224v-1246h120v1246h-120zM1325 1224v-1246h118v1246h-118zM1515 -22h116v1246h-116v-1246z" />
    <glyph glyph-name="glyph127" unicode="&#x25a6;" horiz-adv-x="2048" 
d="M1739 -107h-1430v1417h1430v-1417zM395 1227v-114h118v114h-118zM395 1047v-126h118v126h-118zM395 853v-123h118v123h-118zM395 663v-127h118v127h-118zM395 468v-124h118v124h-118zM395 278v-125h118v125h-118zM395 86v-116h118v116h-118zM580 1227v-114h123v114h-123z
M580 1047v-126h123v126h-123zM580 853v-123h123v123h-123zM580 663v-127h123v127h-123zM580 468v-124h123v124h-123zM580 278v-125h123v125h-123zM580 86v-116h123v116h-123zM770 1227v-114h123v114h-123zM770 1047v-126h123v126h-123zM770 853v-123h123v123h-123zM770 663
v-127h123v127h-123zM770 468v-124h123v124h-123zM770 278v-125h123v125h-123zM770 86v-116h123v116h-123zM959 1227v-114h124v114h-124zM959 1047v-126h124v126h-124zM959 853v-123h124v123h-124zM959 663v-127h124v127h-124zM959 468v-124h124v124h-124zM959 278v-125h124
v125h-124zM959 86v-116h124v116h-124zM1149 1227v-114h124v114h-124zM1149 1047v-126h124v126h-124zM1149 853v-123h124v123h-124zM1149 663v-127h124v127h-124zM1149 468v-124h124v124h-124zM1149 278v-125h124v125h-124zM1149 86v-116h124v116h-124zM1339 1227v-114h124
v114h-124zM1339 1047v-126h124v126h-124zM1339 853v-123h124v123h-124zM1339 663v-127h124v127h-124zM1339 468v-124h124v124h-124zM1339 278v-125h124v125h-124zM1339 86v-116h124v116h-124zM1649 1113v114h-120v-114h120zM1529 1047v-126h120v126h-120zM1529 853v-124h120
v124h-120zM1529 663v-127h120v127h-120zM1529 468v-124h120v124h-120zM1529 278v-125h120v125h-120zM1529 -30h120v116h-120v-116z" />
    <glyph glyph-name="glyph126" unicode="&#x25a7;" horiz-adv-x="2048" 
d="M1736 -117h-1430v1417h1430v-1417zM1452 -38h148l-1200 1202v-152zM1194 -38h159l-953 953v-161zM938 -38h157l-695 695v-159zM680 -38h158l-438 439v-159zM400 -38h180l-180 182v-182zM1642 17v153l-1047 1043h-149zM1642 268v158l-789 787h-160zM1638 520v161l-536 532
h-157zM1638 778v157l-278 278h-158zM1638 1033v180h-178z" />
    <glyph glyph-name="glyph125" unicode="&#x25a8;" horiz-adv-x="2048" 
d="M1739 -89h-1430v1418h1430v-1418zM401 199v-153l1196 1196h-151zM401 455v-159l947 946h-158zM405 709v-160l693 693h-159zM405 964v-157l435 435h-157zM405 1242v-181l178 181h-178zM442 -10h149l1050 1051v151zM690 -10h157l794 793v160zM947 -10h158l536 537v158z
M1205 -10h156l280 281v158zM1461 -10h180v183z" />
    <glyph glyph-name="glyph128" unicode="&#x25a9;" horiz-adv-x="2048" 
d="M1759 -160h-1430v1417h1430v-1417zM427 1121v-129l64 65zM427 872v-134l66 66zM427 614v-134l66 66zM427 358v-129l64 65zM427 102v-124l61 61zM460 421l79 -79l80 79l-80 79zM460 165l77 -76l80 79l-78 76zM462 675l81 -79l79 79l-79 81zM462 -81h146l-72 74zM539 1007
l-75 -76l79 -77l76 76zM537 1103l67 68h-133zM584 41l75 -74l79 80l-75 73zM587 1055l78 -79l75 75l-77 79zM589 550l79 -79l80 79l-80 79zM589 294l76 -78l79 79l-76 78zM667 880l-76 -76l81 -79l76 75zM711 -81h153l-76 78zM712 170l74 -75l79 79l-73 75zM790 1001
l-76 -73l80 -81l75 75zM716 421l78 -76l79 80l-76 77zM794 754l-76 -75l79 -79l76 75zM790 1101l70 70h-140zM915 124l-79 -79l79 -78l80 80zM840 1051l79 -79l79 79l-79 79zM915 876l-75 -76l79 -79l76 76zM840 297l75 -73l80 79l-74 75zM921 625l-76 -75l78 -76l75 76z
M965 926l79 -79l80 79l-80 79zM965 174l79 -78l80 80l-80 77zM967 -81h155l-78 78zM1044 749l-75 -76l75 -77l76 75zM969 426l75 -73l76 75l-76 74zM1044 1097l74 74h-147zM1090 1051l80 -79l79 79l-79 79zM1092 797l78 -76l79 79l-78 76zM1092 550l74 -76l75 76l-73 75z
M1170 378l-76 -75l77 -79l76 75zM1173 126l-79 -79l79 -80l80 80zM1216 673l75 -73l80 79l-76 74zM1291 500l-75 -76l79 -77l76 76zM1218 922l77 -75l79 79l-77 75zM1297 249l-76 -75l79 -79l76 75zM1225 -81h153l-76 78zM1299 1101l70 70h-140zM1341 799l76 -74l79 79
l-76 74zM1341 550l78 -79l79 79l-78 79zM1420 373l-75 -76l79 -79l76 76zM1347 1051l77 -75l77 77l-75 77zM1426 120l-76 -75l80 -78l73 74zM1546 754l-80 -79l78 -79l81 79zM1548 500l-80 -79l80 -79l79 79zM1470 928l76 -74l77 77l-74 76zM1548 244l-76 -76l79 -79l76 76z
M1481 -80h146l-74 71zM1618 1171h-133l66 -68zM1662 872l-68 -68l68 -66v134zM1662 614l-68 -68l68 -66v134zM1662 1121l-65 -64l65 -65v129zM1662 358l-65 -64l65 -65v129zM1662 102l-61 -63l61 -61v124z" />
    <glyph glyph-name="glyph58" unicode="&#x25b2;" horiz-adv-x="2048" 
d="M1864 -110h-1672l837 1449z" />
    <glyph glyph-name="glyph57" unicode="&#x25b3;" horiz-adv-x="2048" 
d="M1029 1339l835 -1449h-1672zM1029 1051l-582 -1021h1163z" />
    <glyph glyph-name="glyph110" unicode="&#x25b6;" horiz-adv-x="2048" 
d="M1804 599l-1451 -837v1672z" />
    <glyph glyph-name="glyph109" unicode="&#x25b7;" horiz-adv-x="2048" 
d="M1804 599l-1451 -837v1672zM1522 599l-1009 582v-1165z" />
    <glyph glyph-name="glyph60" unicode="&#x25bc;" horiz-adv-x="2048" 
d="M184 1339h1672l-837 -1449z" />
    <glyph glyph-name="glyph59" unicode="&#x25bd;" horiz-adv-x="2048" 
d="M1019 -110l-835 1449h1672zM1019 178l583 1021h-1164z" />
    <glyph glyph-name="glyph108" unicode="&#x25c0;" horiz-adv-x="2048" 
d="M1695 1467v-1672l-1451 835z" />
    <glyph glyph-name="glyph107" unicode="&#x25c1;" horiz-adv-x="2048" 
d="M244 630l1451 837v-1672zM526 630l1009 -582v1164z" />
    <glyph glyph-name="glyph54" unicode="&#x25c6;" horiz-adv-x="2048" 
d="M1826 614l-802 -837l-802 837l802 838z" />
    <glyph glyph-name="glyph53" unicode="&#x25c7;" horiz-adv-x="2048" 
d="M1024 1452l802 -838l-802 -837l-802 837zM1024 1255l-613 -641l613 -640l610 640z" />
    <glyph glyph-name="glyph118" unicode="&#x25c8;" horiz-adv-x="2048" 
d="M1024 1485l848 -887l-848 -885l-848 885zM1024 1277l-649 -679l649 -676l645 676zM668 596l354 367l352 -367l-352 -366z" />
    <glyph glyph-name="glyph50" unicode="&#x25cb;" horiz-adv-x="2048" 
d="M1835 607q0 -224 -107 -408q-109 -188 -294 -295q-186 -108 -410 -108t-412 108t-294 294q-107 187 -107 409t108 410q108 187 295 295q188 108 410 108q220 0 408 -108q186 -107 295 -296q108 -188 108 -409zM370 607q0 -182 85 -334t236 -242q150 -89 333 -89
q184 0 334 89q152 90 237 242t85 334q0 279 -189 472q-189 194 -467 194q-276 0 -465 -194q-189 -193 -189 -472z" />
    <glyph glyph-name="glyph52" unicode="&#x25ce;" horiz-adv-x="2048" 
d="M1836 613q0 -221 -107 -408q-107 -186 -294 -295q-186 -108 -410 -108q-225 0 -413 108t-294 294q-106 185 -106 409q0 223 108 411q107 187 294 294q188 108 411 108q224 0 410 -108t294 -295q107 -186 107 -410zM354 613q0 -187 87 -344t242 -249t342 -92t342 92
t243 249t88 344q0 188 -88 345q-88 158 -243 249q-155 92 -342 92t-342 -92t-242 -249q-87 -158 -87 -345zM481 613q0 230 158 388t386 158q227 0 385 -158q157 -157 157 -388q0 -229 -157 -386t-385 -157q-229 0 -386 157q-158 158 -158 386zM1434 613q0 186 -115 306
q-114 118 -294 118q-181 0 -295 -118q-114 -119 -114 -306t114 -305t295 -118q180 0 294 118q115 120 115 305z" />
    <glyph glyph-name="glyph51" unicode="&#x25cf;" horiz-adv-x="2048" 
d="M1835 607q0 -224 -107 -408q-109 -188 -294 -295q-186 -108 -410 -108t-412 108t-294 294q-107 187 -107 409t108 410q108 187 295 295q188 108 410 108q220 0 408 -108q186 -107 295 -296q108 -188 108 -409z" />
    <glyph glyph-name="glyph120" unicode="&#x25d0;" horiz-adv-x="2048" 
d="M1836 613q0 -225 -107 -409q-109 -188 -294 -295q-184 -107 -410 -107t-412 107q-187 108 -294 295t-107 409q0 221 108 409q108 187 295 295q188 108 410 108q221 0 408 -108q186 -107 295 -296q108 -187 108 -408zM1025 1278v-1331q183 0 334 90q152 90 237 242t85 334
q0 277 -189 471t-467 194z" />
    <glyph glyph-name="glyph121" unicode="&#x25d1;" horiz-adv-x="2048" 
d="M1836 613q0 -222 -108 -408q-110 -189 -294 -295q-188 -108 -411 -108q-224 0 -410 108q-187 109 -294 295q-107 187 -107 408q0 223 108 410t294 295t409 108q221 0 409 -108t296 -296q108 -187 108 -409zM369 613q0 -181 85 -333q86 -153 237 -243q150 -89 334 -89
v1331q-278 0 -467 -194q-189 -193 -189 -472z" />
    <glyph glyph-name="glyph49" unicode="&#x2605;" horiz-adv-x="2048" 
d="M1392 484l237 -625l-42 -35l-540 411l-544 -411l-44 33l242 627l-485 355l15 54h595l192 590h57l191 -590h598l12 -54z" />
    <glyph glyph-name="glyph48" unicode="&#x2606;" horiz-adv-x="2048" 
d="M826 893l192 590h57l191 -590h598l13 -54l-485 -355l237 -625l-42 -35l-540 411l-544 -411l-44 33l242 627l-485 355l15 54h595zM920 766l-439 12l376 -245l-195 -448l385 305l384 -312l-201 461l374 247l-428 -13l-129 424z" />
    <glyph glyph-name="glyph131" unicode="&#x260e;" horiz-adv-x="2048" 
d="M1742 690l-302 31q-41 5 -41 43q0 77 -7 123q-12 79 -57 79h-65v-204q38 -9 99 -61q64 -55 126 -131q170 -212 170 -365l-15 -175q-5 -44 -52 -44h-1172q-49 0 -52 46l-14 164q0 166 166 372q137 169 228 194v204h-65q-45 0 -60 -75q-10 -53 -6 -122q3 -42 -39 -48
l-307 -31q-25 -3 -38 8q-12 10 -10 38q8 143 64 243q93 158 286 161h866q185 -3 277 -164q60 -100 68 -240q3 -52 -48 -46zM1263 377q0 101 -73 174t-174 73q-105 0 -178 -71q-71 -70 -71 -176q0 -109 70 -179t179 -70q106 0 176 72q71 73 71 177zM1119 966h-214v-202h214
v202z" />
    <glyph glyph-name="glyph130" unicode="&#x260f;" horiz-adv-x="2048" 
d="M609 1140h848q77 -2 136 -28q62 -28 98 -67q38 -41 65 -95q25 -49 38 -106q13 -55 17 -106q0 -27 -11 -38q-10 -10 -39 -10l-295 31q-48 3 -48 52l-2 88q-2 51 -16 73q-15 23 -54 23h-27v-197q24 -10 87 -66q52 -47 122 -128q61 -71 110 -175q47 -100 47 -186l-13 -160
q-6 -59 -53 -59h-1167q-28 0 -41 11t-16 39l-15 160q0 82 47 184q48 103 109 179q63 78 122 134q60 57 89 67v197h-27q-42 0 -54 -28q-13 -31 -13 -92v-62q0 -49 -42 -54l-317 -31q-21 -2 -33 12q-11 12 -11 38q0 70 19 134q18 62 61 127q41 62 112 99q74 39 167 40z
M1501 793l214 -24q-7 119 -75 209t-179 90h-858q-65 0 -115 -26t-78 -70t-43 -92q-16 -50 -20 -103l220 22v64q0 73 32 119q31 45 100 45h666q64 0 100 -43t36 -113v-78zM476 190l9 -117h1093l15 125q-3 140 -127 307q-123 166 -234 218v234h-48v-258h-306v258h-44v-234
q-115 -67 -235 -231q-120 -163 -123 -302zM767 377q0 113 78 186q79 74 192 74q108 0 187 -77q78 -76 78 -183q0 -111 -77 -188q-76 -76 -188 -76q-116 0 -193 74t-77 190zM1214 377q0 75 -51 127q-51 53 -126 53q-79 0 -130 -51t-51 -129q0 -79 50 -132t131 -53
q77 0 127 53t50 132zM1097 957h-130v-186h131z" />
    <glyph glyph-name="glyph132" unicode="&#x261c;" horiz-adv-x="2048" 
d="M1818 154h-180v27h-83q-24 0 -24 26v83q-72 4 -169 -63q-66 -45 -123 -62q-56 -17 -139 -17q-17 0 -30 1t-27 1h-46q-48 0 -98 11q-43 11 -66 42q-39 5 -64 40t-25 67q0 19 7 30q-22 9 -37 36q-14 25 -14 54q0 30 16 46q-18 7 -32 38t-14 52q0 14 6 23h-385q-46 0 -71 30
q-25 29 -25 73q0 42 26 73q25 30 75 30h527q9 90 159 90h35q198 0 269 -62q78 -68 117 -89q49 -27 106 -27h22v70q0 25 26 25h81v24h179zM816 736h-509q-55 0 -55 -46q0 -21 14 -32q15 -12 39 -12h470q-1 4 4 19q4 13 10 23t15 27t12 21zM923 592q-91 -3 -147 -3
q-41 0 -41 -34q0 -40 59 -40q18 0 96 4q79 6 79 40q0 33 -46 33zM1004 437q0 11 -11 20q-11 10 -28 8q-92 -7 -153 -7q-27 0 -37 -7q-11 -8 -11 -25q0 -23 16 -33q15 -9 49 -9q63 0 109 7q66 9 66 41v5zM1026 312q-3 26 -42 26q-52 -7 -111 -7h-3h-2h-35q-26 0 -26 -26
t14 -35q13 -9 43 -9q32 0 87 3q75 6 75 39v9zM842 681q-6 -11 -6 -17q0 -16 30 -16q85 0 110 75q7 22 26 22q23 0 26 -44q15 -124 146 -199q18 -12 18 -28q0 -10 -8 -20q-7 -8 -20 -5q-52 11 -103 47q24 -86 24 -169q0 -35 -10 -58t-22 -35q-11 -11 -40 -17t-42 -6h-50
q17 -13 79 -13q12 0 66 2q11 0 23 0.5t18.5 1t10.5 0.5q79 0 128 25q39 20 114 69q47 31 84 40q36 9 87 9v303h-16q-86 0 -155 47q-8 5 -55 44q-37 31 -69 50q-64 39 -219 39h-57q-52 0 -66 -10t-17 -47t-35 -90zM1588 238h50v507h-50v-507z" />
    <glyph glyph-name="glyph133" unicode="&#x261e;" horiz-adv-x="2048" 
d="M437 154h-179v672h179v-24h81q26 0 26 -25v-70h22q56 0 106 27q39 21 117 89q71 62 269 62h35q150 0 159 -90h527q49 0 75 -30q27 -32 27 -73q0 -42 -26 -73q-25 -30 -70 -30h-386q6 -9 6 -23q0 -21 -14 -52t-32 -38q16 -16 16 -46q0 -29 -14 -54q-15 -27 -37 -36
q7 -11 7 -30q0 -32 -25 -67t-63 -40q-22 -31 -67 -42q-50 -11 -97 -11h-46q-15 0 -28 -1t-29 -1q-84 0 -140 17q-55 17 -122 62q-98 68 -170 63v-83q0 -26 -24 -26h-83v-27zM437 238h50v507h-50v-507zM1234 681q-32 51 -35 90q-3 37 -18 47q-14 10 -65 10h-58
q-155 0 -219 -39q-28 -17 -68 -50q-47 -39 -55 -44q-69 -47 -155 -47h-17v-303q52 0 88 -9q37 -9 84 -40q75 -49 114 -69q49 -25 127 -25q4 0 10.5 -0.5t19.5 -1t23 -0.5q54 -2 65 -2q62 0 79 13h-50q-14 0 -42 6t-39 17q-12 12 -22 35q-11 25 -11 58q0 83 24 169
q-51 -36 -103 -47q-13 -3 -20 5q-8 10 -8 20q0 15 19 28q130 75 145 199q3 44 26 44q19 0 26 -22q25 -75 111 -75q29 0 29 16q0 8 -5 17zM1049 312v-9q0 -33 76 -39q74 -4 86 -4q28 0 43 10t15 35q0 26 -26 26h-35h-7q-59 0 -109 7q-40 0 -43 -26zM1071 437v-5q0 -32 67 -41
q46 -7 108 -7q35 0 50 9t15 33q0 17 -11 25q-10 7 -37 7q-61 0 -153 7q-17 2 -28 -8q-11 -9 -11 -20zM1152 592q-46 0 -46 -33q0 -34 80 -40q78 -4 95 -4q59 0 59 40q0 34 -40 34q-86 0 -148 3zM1768 736h-509q3 -4 12 -21t15 -27t10 -23q5 -15 4 -19h470q24 0 39 12
q14 11 14 32q0 46 -55 46z" />
    <glyph glyph-name="glyph38" unicode="&#x2640;" horiz-adv-x="2048" 
d="M502 921q0 215 150 364q151 149 364 149q214 0 365 -149q149 -148 149 -364q0 -195 -126 -339q-125 -143 -307 -169v-209h244v-145h-244v-268h-164v268h-241v145h241v209q-187 27 -308 169q-123 144 -123 339zM675 921q0 -150 98 -256q97 -105 243 -105t243 105
q98 106 98 256q0 151 -98 257q-97 105 -243 105t-243 -105q-98 -106 -98 -257z" />
    <glyph glyph-name="glyph37" unicode="&#x2642;" horiz-adv-x="2048" 
d="M515 780l509 686l509 -686l-122 -90l-306 429v-457q163 -27 266 -151q105 -126 105 -294q0 -185 -132 -314q-133 -130 -320 -130q-190 0 -320 129q-132 130 -132 315q0 168 105 294q103 124 266 151v457l-306 -427zM746 217q0 -125 79 -208q80 -85 199 -85t199 85
q79 83 79 208q0 128 -79 213q-80 86 -199 86t-199 -86q-79 -85 -79 -213z" />
    <glyph glyph-name="glyph112" unicode="&#x2660;" horiz-adv-x="2048" 
d="M1805 594q0 -157 -115 -254q-90 -78 -248 -81q-97 -2 -181 37q-87 40 -140 106q18 -153 105 -269q88 -118 230 -151v-103h-871v103q138 28 228 150q89 120 107 269q-48 -66 -135 -105q-86 -39 -182 -37q-164 3 -254 81q-107 92 -107 254q0 205 254 428q162 144 527 361
q353 -208 525 -359q257 -228 257 -430z" />
    <glyph glyph-name="glyph113" unicode="&#x2661;" horiz-adv-x="2048" 
d="M1812 911q0 -270 -244 -555q-109 -129 -249 -241q-145 -116 -289 -194q-326 173 -542 431q-239 284 -239 559q0 198 112 304q95 92 251 92q136 0 252 -94q120 -96 166 -245q44 151 162 245q116 94 258 94q158 0 253 -92q109 -106 109 -304zM1093 809h-129q-14 72 -56 151
q-41 77 -94 131q-82 85 -191 85q-101 0 -159 -73q-59 -74 -59 -213q0 -216 198 -453q180 -220 427 -358q244 134 426 360q199 250 199 451q0 286 -216 286q-118 0 -201 -83q-50 -51 -91 -130q-40 -79 -54 -154z" />
    <glyph glyph-name="glyph116" unicode="&#x2663;" horiz-adv-x="2048" 
d="M1455 -16v-103h-872v103q159 37 260 170q101 132 125 328h104q23 -200 121 -328t262 -170zM1807 500q0 -137 -94 -232q-95 -96 -234 -96t-234 95q-94 94 -94 233q0 137 94 232q95 96 234 96q137 0 233 -96q95 -95 95 -232zM891 500q0 -137 -94 -232q-95 -96 -234 -96
t-234 95q-94 94 -94 233q0 137 94 232q95 96 234 96q137 0 233 -96q95 -95 95 -232zM692 1053q0 136 96 232t232 96t232 -96t96 -232t-96 -232t-232 -96t-232 96t-96 232z" />
    <glyph glyph-name="glyph111" unicode="&#x2664;" horiz-adv-x="2048" 
d="M242 594q0 205 254 428q162 144 527 361q353 -208 525 -359q257 -228 257 -430q0 -157 -115 -254q-90 -78 -248 -81q-97 -2 -181 37q-87 40 -140 106q18 -153 105 -269q88 -118 230 -151v-103h-871v103q138 28 228 150q89 120 107 269q-48 -66 -135 -105
q-86 -39 -182 -37q-164 3 -254 81q-107 92 -107 254zM986 668h76q6 -57 40 -110q35 -54 89 -95q109 -81 230 -81q236 0 236 232q0 150 -217 339q-176 155 -417 294q-258 -150 -420 -295q-212 -192 -212 -338q0 -112 53 -173q53 -60 179 -59q44 -1 110 20q65 21 115 58
q56 40 95 97q38 56 43 111zM1241 -20v8q-198 129 -216 514h-7q-25 -388 -216 -514v-8h439z" />
    <glyph glyph-name="glyph114" unicode="&#x2665;" horiz-adv-x="2048" 
d="M1812 911q0 -270 -244 -555q-109 -129 -249 -241q-145 -116 -289 -194q-326 173 -542 431q-239 284 -239 559q0 198 112 304q95 92 251 92q136 0 252 -94q120 -96 166 -245q44 151 162 245q116 94 258 94q158 0 253 -92q109 -106 109 -304z" />
    <glyph glyph-name="glyph115" unicode="&#x2667;" horiz-adv-x="2048" 
d="M891 500q0 -137 -94 -232q-95 -96 -234 -96t-234 95q-94 94 -94 233q0 138 94 233t234 95q137 0 233 -96q95 -95 95 -232zM764 500q0 92 -57 151t-144 59q-90 0 -145 -58q-56 -59 -56 -152q0 -96 55 -154t146 -58q89 0 145 59t56 153zM1455 -16v-103h-872v103
q159 37 260 170q101 132 125 328h104q23 -200 121 -328t262 -170zM1348 1053q0 -137 -94 -232q-94 -96 -234 -96q-139 0 -234 95q-94 94 -94 233q0 137 94 232q94 96 234 96q137 0 233 -96q95 -95 95 -232zM1239 -18v6q-82 36 -143 122q-62 88 -74 186h-6q-13 -97 -76 -185
q-63 -89 -139 -123v-6h438zM1221 1053q0 93 -57 151q-57 59 -144 59q-90 0 -145 -58q-56 -59 -56 -152q0 -95 56 -154q55 -58 145 -58q89 0 145 59t56 153zM1807 500q0 -137 -94 -232q-95 -96 -234 -96t-234 95q-94 94 -94 233q0 137 94 232q95 96 234 96q137 0 233 -96
q95 -95 95 -232zM1680 500q0 92 -57 151t-144 59q-90 0 -145 -58q-56 -59 -56 -152q0 -95 56 -154q55 -58 145 -58q89 0 145 59t56 153z" />
    <glyph glyph-name="glyph129" unicode="&#x2668;" horiz-adv-x="2048" 
d="M616 450q25 1 28 -21q3 -23 -21 -29q-89 -20 -138 -64q-50 -45 -50 -107q0 -45 56 -83q53 -36 147 -59q80 -20 200 -33q99 -11 222 -11q152 0 291 21q140 21 235 67q97 47 97 107q0 54 -46 94q-44 38 -115 52q-23 6 -19 28q5 24 27 22q139 -12 221 -79q81 -66 81 -150
q0 -105 -119 -184t-292 -115t-361 -36q-147 0 -276 20q-139 22 -248 59q-115 39 -183 103q-69 64 -67 144q2 102 84 171q81 68 246 83zM877 518q0 -100 -47 -188q-48 -90 -113 -149q-39 -34 -66 -10q-18 15 -2 40q80 134 72 269q-4 67 -56 184q-47 104 -51 195
q-9 189 166 360q21 21 45 19q23 -1 29 -19t-10 -44q-78 -111 -72 -277q6 -104 50 -197q55 -120 55 -183zM1172 518q0 -91 -47 -190q-46 -96 -121 -162q-26 -23 -54 -5q-27 18 -10 48q71 109 74 273q1 88 -54 241q-53 153 -51 249q3 90 55 182q55 96 134 166q27 26 54 6
q26 -19 4 -50q-84 -114 -87 -269q-1 -81 50 -245q53 -165 53 -244zM1467 518q0 -100 -47 -188q-48 -90 -113 -149q-39 -34 -66 -10q-18 15 -2 40q79 132 71 269q-5 70 -55 184q-47 104 -51 195q-9 190 165 360q21 21 45 19t30 -19q6 -18 -10 -44q-78 -111 -72 -277
q6 -104 50 -197q55 -120 55 -183z" />
    <glyph glyph-name="glyph146" unicode="&#x2669;" horiz-adv-x="2048" 
d="M1112 177v1303h111v-1374q0 -156 -117 -256q-118 -101 -292 -101q-80 0 -133 42q-52 42 -52 116q0 114 116 201q115 87 249 87q68 0 118 -18z" />
    <glyph glyph-name="glyph147" unicode="&#x266a;" horiz-adv-x="2048" 
d="M1003 177v1303h81q0 -71 16 -126q17 -58 52 -105q32 -43 74 -83q36 -35 100 -83q127 -96 194 -200q69 -106 69 -244q0 -222 -175 -484h-53q125 213 125 414q0 159 -105 276q-106 118 -265 170v-909q0 -156 -117 -256q-118 -101 -293 -101q-80 0 -133 42t-53 116
q0 114 116 201t251 87q67 0 116 -18z" />
    <glyph glyph-name="glyph148" unicode="&#x266c;" horiz-adv-x="2048" 
d="M1770 1477v-1165q0 -154 -116 -255q-115 -100 -290 -100q-80 0 -131 42t-51 116q0 112 114 199t251 87q69 0 112 -17v538l-875 -158v-658q0 -156 -116 -255t-290 -99q-81 0 -131 41q-51 42 -51 116q0 112 114 199q113 86 251 86q71 0 112 -16v1055zM1659 1102v164
l-875 -197v-166z" />
    <glyph glyph-name="glyph142" unicode="&#x266d;" horiz-adv-x="2048" 
d="M811 1415v-922q43 84 119 133q77 50 176 50q120 0 195 -87q74 -86 74 -226q0 -153 -94 -280q-95 -128 -250 -200q-153 -72 -330 -70v1602h110zM811 213v-295q151 10 273 140q120 128 120 279q0 221 -146 221q-99 0 -173 -101t-74 -244z" />
    <glyph glyph-name="glyph0" unicode="&#x3001;" horiz-adv-x="2048" 
d="M1180 11l-129 -122q-191 240 -401 417l116 114q205 -164 414 -409z" />
    <glyph glyph-name="glyph1" unicode="&#x3002;" horiz-adv-x="2048" 
d="M1027 311q117 0 200 -83t83 -200q0 -118 -83 -201t-200 -83q-118 0 -201 83t-83 201q0 117 83 200t201 83zM1027 -106q55 0 94 39q40 40 40 95q0 54 -40 94t-94 40q-55 0 -95 -40t-40 -94q0 -55 40 -95q39 -39 95 -39z" />
    <glyph glyph-name="glyph6" unicode="&#x3003;" horiz-adv-x="2048" 
d="M824 1007l182 -72l-359 -848l-125 50zM1344 999l182 -72l-359 -848l-125 50z" />
    <glyph glyph-name="glyph11" unicode="&#x3008;" horiz-adv-x="2048" 
d="M859 614l557 -864h-179l-557 864l557 865h180z" />
    <glyph glyph-name="glyph12" unicode="&#x3009;" horiz-adv-x="2048" 
d="M744 1479h180l556 -865l-556 -864h-180l558 864z" />
    <glyph glyph-name="glyph13" unicode="&#x300a;" horiz-adv-x="2048" 
d="M723 612l400 -863l-136 -1l-404 864l404 866l136 -2zM1014 612l400 -863l-136 -3l-404 866l404 865l136 -1z" />
    <glyph glyph-name="glyph14" unicode="&#x300b;" horiz-adv-x="2048" 
d="M886 1476l136 2l404 -866l-404 -864l-136 1l399 863zM594 1476l137 1l403 -865l-403 -866l-137 3l400 863z" />
    <glyph glyph-name="glyph15" unicode="&#x300c;" horiz-adv-x="2048" 
d="M749 291v1174h601v-146h-437v-1028h-164z" />
    <glyph glyph-name="glyph16" unicode="&#x300d;" horiz-adv-x="2048" 
d="M1276 1023v-1175h-601v146h437v1029h164z" />
    <glyph glyph-name="glyph17" unicode="&#x300e;" horiz-adv-x="2048" 
d="M1387 1187h-358v-911h-319v1204h677v-293zM1308 1406h-518v-1056h160v910h358v146z" />
    <glyph glyph-name="glyph18" unicode="&#x300f;" horiz-adv-x="2048" 
d="M767 39h356v913h321v-1204h-677v291zM846 -178h518v1056h-162v-913h-356v-143z" />
    <glyph glyph-name="glyph19" unicode="&#x3010;" horiz-adv-x="2048" 
d="M829 1473h562v-5q-164 -149 -265 -371q-100 -219 -100 -483q0 -268 100 -489q99 -220 265 -364v-6h-562v1718z" />
    <glyph glyph-name="glyph20" unicode="&#x3011;" horiz-adv-x="2048" 
d="M1296 1473v-1718h-562v6q164 143 264 364q101 223 101 489q0 261 -101 483q-102 224 -264 371v5h562z" />
    <glyph glyph-name="glyph66" unicode="&#x3013;" horiz-adv-x="2048" 
d="M1040 512h435v-168h-900v168h465zM1475 717h-900v167h900v-167z" />
    <glyph glyph-name="glyph9" unicode="&#x3014;" horiz-adv-x="2048" 
d="M945 33l249 -147v-155l-398 240v1283l398 239v-159l-249 -149v-1152z" />
    <glyph glyph-name="glyph10" unicode="&#x3015;" horiz-adv-x="2048" 
d="M749 1495l398 -239v-1283l-398 -240v156l249 147v1152l-249 148v159z" />
    <glyph glyph-name="glyph586" unicode="&#x3041;" horiz-adv-x="2048" 
d="M771 520q-2 44 -2 100v103h-301v151h301v164h180v-164h570v-151h-570v-151q64 13 134 13q1 0 3 -1q33 0 42 -1q12 49 15 64l181 -33q-6 -28 -15 -57q154 -43 243 -143t89 -239q0 -133 -79 -228q-80 -97 -201 -144q-120 -47 -281 -59l-48 159q201 12 314 79
q114 67 114 191q0 80 -52 141q-54 63 -145 94q-103 -292 -267 -450q-163 -157 -336 -157q-112 0 -182 72q-71 73 -71 190q0 148 102 270q99 119 262 187zM830 11q-37 143 -52 339q-87 -51 -139 -124q-51 -72 -51 -156q0 -118 92 -118q71 0 150 59zM953 419q6 -138 18 -240
q68 108 115 254q-67 0 -133 -14z" />
    <glyph glyph-name="glyph587" unicode="&#x3042;" horiz-adv-x="2048" 
d="M739 773v256h-368v155h368v192h185v-192h682v-155h-682v-203q88 17 173 17q40 0 72 -2l16 72l181 -35l-17 -68q185 -53 292 -173q108 -121 108 -286q0 -117 -52 -209q-52 -93 -145 -151q-97 -61 -209 -94q-113 -33 -253 -44l-48 162q151 9 267 46q115 37 185 110
q71 74 71 184q0 114 -69 192q-68 76 -191 113q-119 -357 -311 -548q-193 -191 -398 -191q-131 0 -214 85t-83 223q0 181 123 324q122 141 317 220zM804 159q-44 181 -59 444q-118 -60 -190 -153t-72 -212q0 -162 125 -162q93 0 196 83zM927 668q6 -186 26 -339
q102 154 172 359h-26q-83 0 -172 -20z" />
    <glyph glyph-name="glyph588" unicode="&#x3043;" horiz-adv-x="2048" 
d="M865 218l169 -61q-28 -219 -97 -314q-68 -95 -178 -95q-142 0 -236 174q-95 175 -95 497q0 266 37 455h182q-39 -198 -39 -451q0 -135 15 -240q15 -107 37 -165q21 -56 49 -89q25 -30 51 -30q80 0 105 319zM1620 34l-182 -26q-3 354 -214 776l175 48q108 -219 163 -402
t58 -396z" />
    <glyph glyph-name="glyph589" unicode="&#x3044;" horiz-adv-x="2048" 
d="M849 491l173 -66q-68 -474 -315 -474q-170 0 -277 203q-108 204 -108 589q0 304 42 535h186q-44 -226 -44 -531q0 -169 19 -295q20 -131 51 -202q32 -74 65 -108q35 -36 70 -36q98 0 138 385zM1726 292l-182 -31q0 432 -256 919l178 48q124 -244 193 -473
q67 -223 67 -463z" />
    <glyph glyph-name="glyph590" unicode="&#x3045;" horiz-adv-x="2048" 
d="M791 -256l-72 149q287 31 463 138q175 106 175 277q0 108 -60 164q-59 55 -172 55q-239 0 -573 -131l-46 152q360 130 623 130q198 0 303 -93q106 -94 106 -277q0 -108 -45 -196q-46 -91 -117 -150q-70 -58 -173 -106q-102 -47 -200 -72q-96 -24 -212 -40zM1398 922
l-32 -144q-336 32 -665 101l24 150q315 -64 673 -107z" />
    <glyph glyph-name="glyph591" unicode="&#x3046;" horiz-adv-x="2048" 
d="M753 -144l-76 158q221 24 390 87q171 64 275 172t104 248q0 137 -78 209q-77 71 -221 71q-308 0 -683 -153l-46 155q390 153 733 153q237 0 357 -110q122 -111 122 -323q0 -125 -53 -231t-137 -177q-88 -74 -203 -127q-116 -54 -236 -84q-131 -33 -248 -48zM1463 1249
l-35 -151q-416 45 -774 120l22 155q371 -73 787 -124z" />
    <glyph glyph-name="glyph592" unicode="&#x3047;" horiz-adv-x="2048" 
d="M1280 94l6 -66q6 -73 36 -98q31 -26 115 -26q97 0 186 22l9 -151q-84 -22 -212 -22q-158 0 -231 55q-74 55 -84 187l-5 66q-7 94 -78 94q-38 0 -75 -24q-33 -21 -113 -98q-149 -149 -280 -289l-138 120q390 396 696 667h-591v151h844v-138q-156 -142 -276 -260q16 4 23 4
q151 0 168 -194zM668 892q16 100 24 146q353 -64 618 -85q-1 -17 -10 -145q-352 18 -632 84z" />
    <glyph glyph-name="glyph593" unicode="&#x3048;" horiz-adv-x="2048" 
d="M1322 227l3 -38q10 -106 49 -140t138 -34q113 0 215 26l11 -158q-102 -24 -247 -24q-171 0 -251 64q-81 64 -97 234l-4 39q-7 82 -35 116q-27 33 -79 33q-58 0 -107 -32q-54 -35 -131 -115q-170 -173 -335 -347l-142 116q519 541 844 830h-730v155h995v-144
q-205 -185 -370 -350q47 18 98 18q153 0 175 -249zM603 1223l27 154q417 -77 719 -99l-7 -155q-398 24 -739 100z" />
    <glyph glyph-name="glyph594" unicode="&#x3049;" horiz-adv-x="2048" 
d="M1093 494q206 -2 328 -97q124 -97 124 -251q0 -171 -129 -268q-130 -98 -347 -134l-51 153q142 16 244 81q102 64 102 160q0 98 -72 152q-71 53 -203 53q-104 0 -195 -20v-345q0 -122 -54 -177t-165 -55q-134 0 -220 76t-86 204q0 120 92 227q94 109 252 173v245h-283
v151h283v212h181v-212h291v-151h-291v-193q93 16 195 16h2h2zM713 255q-164 -93 -164 -229q0 -60 32 -95q31 -34 81 -34q28 0 40 19q11 18 11 71v268zM1679 645l-116 -114q-144 165 -346 293l99 114q215 -134 363 -293z" />
    <glyph glyph-name="glyph595" unicode="&#x304a;" horiz-adv-x="2048" 
d="M1111 731q247 0 390 -117q142 -117 142 -304q0 -194 -150 -306q-149 -112 -404 -151l-56 159q116 14 205 46q92 33 156 99q65 67 65 151q0 123 -91 195q-93 73 -265 73q-127 0 -252 -30v-426q0 -144 -55 -205q-56 -62 -179 -62q-151 0 -257 94t-106 245q0 131 110 257
q111 127 302 202v314h-339v154h339v257h185v-257h359v-154h-359v-260q125 26 260 26zM666 476q-105 -56 -167 -132q-61 -74 -61 -152q0 -79 47 -131q47 -51 117 -51q35 0 50 26q14 24 14 94v346zM1794 915l-119 -120q-166 190 -404 339l105 122q247 -155 418 -341z" />
    <glyph glyph-name="glyph596" unicode="&#x304b;" horiz-adv-x="2048" 
d="M267 1020h341q22 144 35 341h185q-11 -176 -33 -341h119q217 0 308 -79q90 -78 90 -257q0 -321 -37 -497q-37 -178 -112 -248q-76 -71 -206 -71q-125 0 -245 35l7 157q123 -37 221 -37q67 0 104 46q39 48 61 192q23 150 23 416q0 107 -49 147q-50 41 -192 41h-118
q-100 -557 -356 -995l-173 70q245 408 343 925h-316v155zM1808 493l-175 -61q-72 365 -278 656l157 76q207 -298 296 -671z" />
    <glyph glyph-name="glyph597" unicode="&#x304c;" horiz-adv-x="2048" 
d="M246 981h341q22 144 35 341h184q-11 -176 -33 -341h120q216 0 307 -79t91 -256q0 -321 -37 -497q-37 -178 -113 -249t-205 -71q-126 0 -246 35l8 157q123 -37 221 -37q67 0 104 46q39 48 61 192q23 150 23 416q0 108 -49 148t-193 40h-117q-100 -557 -356 -995l-173 70
q244 405 342 925h-315v155zM1317 961l159 72q163 -267 236 -579l-176 -61q-60 308 -219 568zM1380 1289l108 44q94 -121 144 -256l-112 -41q-51 137 -140 253zM1577 1355l109 45q91 -117 143 -257l-112 -40q-50 135 -140 252z" />
    <glyph glyph-name="glyph598" unicode="&#x304d;" horiz-adv-x="2048" 
d="M863 1360l184 20q16 -90 44 -208q231 9 408 37l14 -157q-164 -24 -377 -33q31 -101 66 -188q214 15 435 53l18 -153q-170 -32 -385 -49q97 -193 214 -321l-153 -105q-140 150 -260 411q-197 -9 -348 -9h-330v154h331q140 0 284 6q-36 97 -64 194q-100 -4 -220 -4h-322
v155h326q134 0 173 1q-24 108 -38 196zM607 512l106 -112q-125 -82 -125 -199q0 -95 96 -146q98 -52 289 -52q337 0 526 57v-156q-248 -56 -511 -56q-284 0 -435 86q-149 85 -149 254q0 102 55 185q54 82 148 139z" />
    <glyph glyph-name="glyph599" unicode="&#x304e;" horiz-adv-x="2048" 
d="M748 1328l184 20q16 -90 44 -208q183 7 365 31l15 -157q-132 -17 -336 -27q28 -91 67 -188q214 15 435 53l18 -153q-179 -34 -385 -50q95 -191 214 -320l-153 -105q-140 150 -260 411q-218 -10 -349 -10h-329v155h331q140 0 284 6q-38 100 -64 193q-75 -3 -220 -3h-322
v154h326q95 0 173 2q-18 78 -38 196zM491 480l107 -113q-125 -82 -125 -199q0 -95 96 -146t289 -51q336 0 525 57v-156q-248 -56 -510 -56q-284 0 -435 86q-149 85 -149 253q0 103 55 186t147 139zM1321 1302l109 44q92 -118 143 -256l-112 -41q-51 137 -140 253zM1518 1368
l109 45q91 -117 143 -257l-112 -40q-50 135 -140 252z" />
    <glyph glyph-name="glyph600" unicode="&#x304f;" horiz-adv-x="2048" 
d="M1489 -41l-132 -129q-253 298 -671 625q-75 59 -100 97q-27 40 -27 96q0 105 178 229q370 255 622 522l130 -131q-225 -216 -659 -522q-87 -62 -87 -98q0 -24 25 -49q21 -21 113 -94q347 -270 608 -546z" />
    <glyph glyph-name="glyph601" unicode="&#x3050;" horiz-adv-x="2048" 
d="M1374 -41l-133 -129q-255 300 -670 625q-75 59 -100 97q-28 42 -28 96q0 104 179 229q368 253 621 522l131 -131q-222 -213 -660 -522q-86 -61 -86 -98q0 -24 25 -49q21 -21 113 -94q347 -270 608 -546zM1159 919l108 43q89 -116 142 -255l-110 -40q-49 124 -140 252z
M1354 988l109 42q90 -117 142 -254l-111 -41q-50 127 -140 253z" />
    <glyph glyph-name="glyph602" unicode="&#x3051;" horiz-adv-x="2048" 
d="M395 1377h185q-70 -287 -85 -696q-15 -411 29 -814h-184q-44 403 -29 814q15 414 84 696zM1741 1025v-155h-284v-363q1 -228 -96 -387q-97 -158 -300 -268l-126 138q338 177 338 520v360h-588v155h588v352h184v-352h284z" />
    <glyph glyph-name="glyph603" unicode="&#x3052;" horiz-adv-x="2048" 
d="M325 1338h185q-70 -287 -85 -696q-15 -411 29 -814h-184q-44 403 -29 814q15 414 84 696zM1634 986v-155h-284v-363q2 -228 -96 -387q-96 -157 -300 -267l-126 138q338 177 338 520v359h-570v155h570v352h184v-352h284zM1380 1305l108 44q94 -121 144 -256l-112 -41
q-51 137 -140 253zM1558 1371l109 44q94 -121 144 -256l-113 -41q-51 137 -140 253z" />
    <glyph glyph-name="glyph604" unicode="&#x3053;" horiz-adv-x="2048" 
d="M1642 178l10 -156q-245 -55 -594 -55q-250 0 -393 38q-148 39 -208 111q-61 73 -61 188q0 158 155 337l142 -83q-112 -127 -112 -250q0 -60 39 -99q40 -40 148 -64t290 -24q318 0 584 57zM1550 1262v-155h-1063v155h1063z" />
    <glyph glyph-name="glyph605" unicode="&#x3054;" horiz-adv-x="2048" 
d="M1510 53l9 -157q-245 -55 -594 -55q-246 0 -393 39q-148 39 -208 111t-60 187q0 159 155 338l141 -83q-112 -127 -112 -251q0 -60 39 -99t148 -63q108 -24 290 -24q318 0 585 57zM1362 1137v-155h-1008v155h1008zM1335 1277l108 44q94 -121 144 -256l-112 -40
q-50 135 -140 252zM1532 1343l109 45q91 -117 143 -257l-112 -40q-49 132 -140 252z" />
    <glyph glyph-name="glyph606" unicode="&#x3055;" horiz-adv-x="2048" 
d="M875 1354l183 25q23 -162 68 -330q291 20 509 61l18 -155q-237 -42 -477 -57q111 -304 298 -494l-153 -103q-207 216 -335 586q-109 -5 -258 -5h-338v154h340q22 0 208 4q-42 153 -63 314zM612 548l112 -118q-127 -82 -127 -214q0 -105 92 -158q93 -54 304 -54
q292 0 511 57v-156q-226 -56 -507 -56q-584 0 -584 358q0 218 199 341z" />
    <glyph glyph-name="glyph607" unicode="&#x3056;" horiz-adv-x="2048" 
d="M764 1320l183 26q23 -162 68 -330q294 20 509 61l18 -155q-237 -42 -477 -57q112 -306 298 -494l-153 -103q-207 216 -335 586q-131 -6 -258 -6h-338v155h339q23 0 209 4q-42 154 -63 313zM501 515l112 -118q-127 -82 -127 -214q0 -105 92 -158q93 -54 304 -54
q292 0 511 57v-156q-226 -56 -507 -56q-585 0 -585 358q0 218 200 341zM1560 1118l-112 -41q-52 121 -129 225l109 44q78 -98 132 -228zM1516 1368l109 45q93 -120 144 -257l-113 -40q-50 135 -140 252z" />
    <glyph glyph-name="glyph608" unicode="&#x3057;" horiz-adv-x="2048" 
d="M1449 567l182 -27q-23 -155 -74 -275q-52 -121 -138 -215q-85 -93 -212 -144q-124 -50 -285 -50q-254 0 -379 134q-126 135 -126 376v1007h184v-1008q0 -354 321 -354q216 0 352 142t175 414z" />
    <glyph glyph-name="glyph609" unicode="&#x3058;" horiz-adv-x="2048" 
d="M1449 567l182 -27q-23 -155 -74 -275q-52 -121 -138 -215q-85 -93 -212 -144q-124 -50 -285 -50q-254 0 -379 134q-126 135 -126 376v1007h184v-1008q0 -354 321 -354q216 0 352 142t175 414zM1307 916l-111 -45q-55 147 -171 295l103 54q115 -138 179 -304zM1523 984
l-111 -44q-55 147 -171 295l103 53q114 -137 179 -304z" />
    <glyph glyph-name="glyph610" unicode="&#x3059;" horiz-adv-x="2048" 
d="M1346 427q0 -249 -147 -394q-146 -145 -471 -190l-68 159q225 24 350 105q129 83 148 215q-30 -44 -94 -71q-61 -26 -135 -26q-150 0 -252 96t-102 241q0 147 102 243t254 96q103 0 160 -48v173h-789v155h789v205h188v-205h467v-155h-467v-319q67 -111 67 -280zM759 562
q0 -80 53 -131q54 -52 130 -52t130 52q52 51 52 131t-52 132t-130 52t-130 -52q-53 -53 -53 -132z" />
    <glyph glyph-name="glyph611" unicode="&#x305a;" horiz-adv-x="2048" 
d="M1318 427q0 -249 -147 -394t-470 -190l-69 159q227 24 351 105q128 83 147 215q-30 -44 -94 -71q-61 -26 -135 -26q-150 0 -252 96q-101 95 -101 241q0 148 101 243q102 96 254 96q104 0 161 -48v173h-789v155h789v205h188v-205h466v-155h-466v-319q66 -109 66 -280z
M732 562q0 -80 52 -131q54 -52 130 -52q77 0 131 52q52 51 52 131t-52 132t-131 52q-78 0 -130 -52t-52 -132zM1324 829l108 44q94 -121 144 -256l-112 -40q-50 135 -140 252zM1521 895l108 45q94 -121 144 -256l-112 -41q-49 131 -140 252z" />
    <glyph glyph-name="glyph612" unicode="&#x305b;" horiz-adv-x="2048" 
d="M735 778v-449q0 -125 34 -186t121 -88t263 -27q244 0 477 35v-156q-209 -34 -484 -34q-342 0 -469 95t-127 351v459h-322v155h322v382h185v-382h564v422h184v-422h337v-155h-337v-250q0 -138 -62 -200t-192 -62q-116 0 -207 20v153q80 -20 179 -20q55 0 76 27
q22 28 22 104v228h-564z" />
    <glyph glyph-name="glyph613" unicode="&#x305c;" horiz-adv-x="2048" 
d="M677 739v-450q0 -124 34 -185q35 -62 121 -89q84 -26 263 -26q244 0 477 35v-157q-202 -33 -484 -33q-344 0 -469 94q-127 95 -127 352v459h-322v155h322v381h185v-381h564v422h184v-422h337v-155h-337v-251q0 -138 -62 -200t-192 -62q-111 0 -207 21v153q84 -21 179 -21
q54 0 76 28t22 103v229h-564zM1469 1316l113 31q82 -139 114 -267l-113 -32q-35 131 -114 268zM1652 1364l112 31q82 -139 114 -267l-112 -32q-35 131 -114 268z" />
    <glyph glyph-name="glyph614" unicode="&#x305d;" horiz-adv-x="2048" 
d="M329 576l-16 155q133 20 282 31q359 214 602 439h-671v154h937v-147q-262 -238 -572 -422q352 25 828 39l16 -155q-80 0 -289 -11q-219 -10 -374 -136q-155 -125 -155 -266q0 -119 123 -173t432 -54l-15 -157q-267 0 -427 43q-163 44 -230 123t-67 205q0 124 83 229
t226 167q-404 -25 -713 -64z" />
    <glyph glyph-name="glyph615" unicode="&#x305e;" horiz-adv-x="2048" 
d="M287 576l-17 155q133 20 282 31q362 215 603 439h-671v154h936v-147q-264 -239 -571 -422q352 25 827 39l17 -155q-80 0 -289 -11q-219 -10 -374 -136q-155 -125 -155 -266q0 -119 123 -173t432 -54l-15 -157q-268 0 -428 43q-161 43 -229 123t-68 205q0 122 84 229
q83 105 226 167q-404 -25 -713 -64zM1595 889l-110 -41q-46 125 -137 246l109 42q92 -117 138 -247zM1778 959l-111 -40q-46 125 -136 245l109 42q92 -117 138 -247z" />
    <glyph glyph-name="glyph616" unicode="&#x305f;" horiz-adv-x="2048" 
d="M267 1140h317q15 132 23 237h184q-6 -94 -22 -237h352v-155h-371q-90 -674 -289 -1134l-179 54q194 447 284 1080h-299v155zM1781 63v-158q-196 -35 -411 -35q-287 0 -411 77q-126 78 -126 238q0 69 33 141q33 71 93 124l140 -94q-33 -32 -57 -78t-24 -86q0 -89 77 -128
t269 -39q220 0 417 38zM1001 637l-13 154q217 43 426 43h287v-155h-282q-203 0 -418 -42z" />
    <glyph glyph-name="glyph617" unicode="&#x3060;" horiz-adv-x="2048" 
d="M267 1119h317q15 130 23 238h184q-6 -96 -22 -238h352v-154h-371q-90 -674 -289 -1134l-179 53q194 447 284 1081h-299v154zM1781 43v-159q-196 -35 -411 -35q-285 0 -411 78t-126 238q0 69 33 141q33 71 93 124l140 -94q-33 -32 -57 -78q-24 -47 -24 -86q0 -89 77 -128
q78 -40 269 -40q214 0 417 39zM1001 616l-13 155q212 42 426 42h287v-154h-282q-198 0 -418 -43zM1288 1287l109 44q94 -121 144 -256l-112 -40q-49 132 -141 252zM1486 1354l108 44q94 -121 144 -256l-112 -41q-51 137 -140 253z" />
    <glyph glyph-name="glyph618" unicode="&#x3061;" horiz-adv-x="2048" 
d="M792 1363h184q-18 -122 -39 -236h797v-155h-830q-51 -212 -140 -407q74 75 187 121q111 45 239 45q219 0 348 -108q127 -106 127 -291q0 -216 -165 -341q-166 -125 -498 -125q-233 0 -415 37v158q175 -40 400 -40q241 0 368 77q126 76 126 225q0 117 -83 185t-241 68
q-141 0 -269 -65t-222 -175l-160 65q140 285 214 571h-406v155h441q24 124 37 236z" />
    <glyph glyph-name="glyph619" unicode="&#x3062;" horiz-adv-x="2048" 
d="M704 1324h184q-24 -158 -38 -236h602v-155h-636q-51 -212 -140 -407q74 75 187 121q111 45 239 45q220 0 348 -107t128 -291q0 -217 -166 -342t-498 -125q-233 0 -415 37v159q179 -41 400 -41q241 0 368 77q126 77 126 225q0 118 -82 185q-83 68 -242 68q-142 0 -269 -64
q-125 -63 -221 -176l-161 65q140 285 214 571h-405v155h440q24 124 37 236zM1384 1291l109 44q94 -121 144 -256l-113 -41q-51 137 -140 253zM1581 1357l109 44q94 -121 144 -256l-113 -40q-50 135 -140 252z" />
    <glyph glyph-name="glyph620" unicode="&#x3063;" horiz-adv-x="2048" 
d="M722 -256l-43 157q409 15 596 117q188 102 188 323q0 127 -82 195q-80 67 -239 67q-110 0 -239 -23q-115 -21 -253 -55q-121 -30 -194 -40l-51 149q76 13 227 46q156 34 284 54q129 20 233 20q242 0 369 -109q125 -107 125 -319q0 -285 -224 -422q-225 -138 -697 -160z
" />
    <glyph glyph-name="glyph621" unicode="&#x3064;" horiz-adv-x="2048" 
d="M666 19l-41 157q478 18 711 140t233 385q0 354 -408 354q-132 0 -277 -26q-151 -27 -296 -64q-147 -37 -239 -52l-54 157q77 12 268 52q173 37 331 63q150 25 278 25q581 0 581 -502q0 -339 -265 -502t-822 -187z" />
    <glyph glyph-name="glyph622" unicode="&#x3065;" horiz-adv-x="2048" 
d="M618 -121l-40 157q476 18 711 133q233 114 233 364q0 327 -408 327q-132 0 -277 -26q-138 -25 -296 -65q-135 -34 -240 -51l-53 156q77 12 268 52q173 37 331 63q150 25 278 25q291 0 436 -120t145 -353q0 -325 -265 -482q-264 -156 -823 -180zM1352 1239l109 44
q94 -121 144 -256l-113 -40q-50 135 -140 252zM1549 1306l109 44q94 -121 144 -256l-113 -41q-51 137 -140 253z" />
    <glyph glyph-name="glyph623" unicode="&#x3066;" horiz-adv-x="2048" 
d="M298 1039v155q648 101 1273 101h179v-154h-153q-179 0 -344 -94q-162 -92 -262 -248q-98 -153 -98 -326q0 -192 179 -285q176 -91 546 -96l-32 -159q-432 3 -655 137q-222 133 -222 394q0 116 41 228q40 110 109 197q65 82 149 149q76 61 167 99q-397 -16 -877 -98z" />
    <glyph glyph-name="glyph624" unicode="&#x3067;" horiz-adv-x="2048" 
d="M288 1039v155q648 101 1273 101h179v-154h-153q-179 0 -344 -94q-162 -92 -262 -248q-98 -153 -98 -326q0 -192 179 -285q176 -91 545 -96l-31 -159q-432 3 -655 137q-222 133 -222 394q0 116 41 228q40 110 109 197q62 79 149 148q79 63 167 100q-397 -16 -877 -98z
M1311 875l108 44q94 -121 144 -256l-112 -40q-50 135 -140 252zM1508 942l109 44q92 -118 143 -256l-112 -41q-50 133 -140 253z" />
    <glyph glyph-name="glyph625" unicode="&#x3068;" horiz-adv-x="2048" 
d="M1628 962l25 -162q-571 -81 -834 -214q-264 -133 -264 -326q0 -123 123 -183q121 -59 399 -59q358 0 601 39v-157q-213 -37 -601 -37q-362 0 -534 94t-172 299q0 181 124 309q125 129 375 222q-53 116 -53 287v292h184v-279q0 -145 35 -247q235 67 592 122z" />
    <glyph glyph-name="glyph626" unicode="&#x3069;" horiz-adv-x="2048" 
d="M1554 923l26 -162q-574 -82 -834 -213q-265 -134 -265 -327q0 -122 123 -182t399 -60q358 0 601 39v-157q-207 -36 -601 -36q-362 0 -534 94t-172 298q0 181 124 309q125 129 375 222q-53 116 -53 288v291h184v-279q0 -145 35 -247q235 67 592 122zM1301 1294l109 44
q94 -121 144 -256l-113 -41q-50 133 -140 253zM1499 1360l108 44q94 -121 144 -256l-112 -41q-51 137 -140 253z" />
    <glyph glyph-name="glyph627" unicode="&#x306a;" horiz-adv-x="2048" 
d="M279 1132h316q13 90 23 238h185q-7 -101 -26 -238h356v-154h-382q-85 -458 -278 -830l-179 52q198 363 277 778h-292v154zM1236 434v409h184v-466q165 -69 339 -225l-121 -120q-112 107 -225 171q-21 -181 -120 -263q-97 -81 -278 -81q-168 0 -266 79q-99 80 -99 208
q0 136 107 221t285 85q107 0 194 -18zM1236 273q-88 24 -192 24q-102 0 -155 -40q-55 -41 -55 -109q0 -65 50 -100q49 -34 131 -34q113 0 164 58q51 59 57 201zM1769 887l-113 -116q-156 153 -378 275l105 120q236 -130 386 -279z" />
    <glyph glyph-name="glyph628" unicode="&#x306b;" horiz-adv-x="2048" 
d="M403 1369h184q-86 -353 -86 -894q0 -312 31 -615h-184q-32 290 -32 615q0 537 87 894zM1723 112l9 -155q-193 -55 -500 -55q-283 0 -400 81q-118 82 -118 256q0 83 45 185q46 104 127 188l144 -87q-60 -58 -96 -143q-35 -82 -35 -141q0 -96 71 -140q70 -44 262 -44
q280 0 491 55zM1630 1249v-154h-807v154h807z" />
    <glyph glyph-name="glyph629" unicode="&#x306c;" horiz-adv-x="2048" 
d="M430 804q-53 213 -74 398l182 34q15 -153 45 -301q169 115 361 140q21 122 40 291h185q-21 -157 -43 -283q292 -18 434 -196q143 -179 143 -472q0 -54 -7 -134q78 -65 149 -164l-123 -105q-34 50 -72 92q-50 -118 -141 -180q-92 -62 -217 -62q-135 0 -234 73
q-98 72 -98 193q0 127 95 210t252 83q110 0 212 -39v35q0 492 -422 513q-63 -303 -154 -540q-88 -229 -205 -369q-116 -138 -242 -138q-131 0 -212 112t-81 291q0 127 60 265q59 136 167 253zM667 198q-103 172 -178 407q-102 -157 -102 -319q0 -122 32 -186q31 -63 81 -63
q72 0 167 161zM621 762q59 -236 131 -393q97 237 160 544q-163 -38 -291 -151zM1502 222q-91 44 -190 44h-2h-1q-77 0 -121 -36q-43 -36 -43 -97q0 -57 41 -86q42 -30 106 -30q165 0 210 205z" />
    <glyph glyph-name="glyph630" unicode="&#x306d;" horiz-adv-x="2048" 
d="M1292 458q118 0 239 -48q4 112 4 140q0 270 -62 374q-61 103 -209 103q-122 0 -260 -84q-140 -85 -265 -240v-844h-185v619q-95 -224 -232 -370l-120 134q228 237 352 546v182h-298v155h299v245h184v-245h33v-103q-2 -4 -7.5 -15.5t-8.5 -17.5q-9 -18 -17 -32v-70
q107 132 259 215q151 82 283 82q228 0 333 -152q106 -153 106 -484q0 -124 -17 -238q84 -64 144 -158l-124 -109q-37 53 -66 85q-107 -262 -389 -262q-157 0 -264 80t-107 213q0 139 106 219t289 80zM1509 244q-109 59 -230 59h-2q-92 0 -144 -37q-51 -36 -51 -103t51 -104
q52 -38 135 -38q99 0 157 52q59 53 84 171z" />
    <glyph glyph-name="glyph631" unicode="&#x306e;" horiz-adv-x="2048" 
d="M1131 1137q-1 -302 -41 -530q-39 -226 -106 -354t-152 -190q-83 -61 -186 -61q-179 0 -288 140q-110 142 -110 359q0 220 108 403q107 182 292 287q183 104 404 104q340 0 544 -189t204 -489q0 -565 -684 -684l-44 164q544 81 544 526q0 214 -128 353q-126 137 -357 161z
M954 1133q-228 -35 -375 -214q-147 -180 -147 -418q0 -155 59 -250t151 -95q54 0 104 50q52 52 97 155q49 112 78 305q30 199 33 467z" />
    <glyph glyph-name="glyph632" unicode="&#x306f;" horiz-adv-x="2048" 
d="M366 1370h184q-69 -282 -84 -696q-15 -411 29 -813h-184q-45 401 -30 813q15 408 85 696zM1247 441v454h-580v154h580v321h185v-321h274v-154h-274v-511q171 -72 339 -225l-126 -122q-118 112 -221 170q-24 -186 -125 -267t-286 -81q-167 0 -269 80q-103 81 -103 213
q0 139 112 223q114 85 299 85q92 0 195 -19zM1052 305q-111 0 -169 -42t-58 -111q0 -68 52 -103t138 -35q120 0 173 56t59 209q-90 26 -195 26z" />
    <glyph glyph-name="glyph633" unicode="&#x3070;" horiz-adv-x="2048" 
d="M319 1331h184q-69 -282 -84 -696q-15 -411 29 -813h-184q-45 400 -30 813q15 408 85 696zM1182 402v454h-581v155h581v320h184v-320h275v-155h-275v-511q171 -72 339 -225l-125 -121q-115 109 -221 169q-24 -186 -125 -267q-100 -81 -286 -81q-168 0 -270 80
q-103 81 -103 213q0 139 112 223q114 85 299 85q93 0 196 -19zM986 266q-111 0 -168 -41q-58 -42 -58 -112q0 -69 51 -103q52 -35 138 -35q121 0 174 56t59 209q-89 26 -196 26zM1408 1330l113 31q83 -139 114 -267l-112 -32q-34 128 -115 268zM1591 1377l112 32
q84 -142 115 -267l-113 -32q-35 129 -114 267z" />
    <glyph glyph-name="glyph634" unicode="&#x3071;" horiz-adv-x="2048" 
d="M320 1326h184q-69 -282 -84 -696q-15 -411 29 -814h-184q-45 401 -30 814q15 408 85 696zM1183 397v453h-581v155h581v321h184v-321h275v-155h-275v-510q171 -72 339 -225l-125 -122q-118 112 -221 170q-24 -185 -126 -267t-285 -82q-167 0 -270 81t-103 213
q0 139 112 223t299 84q99 0 196 -18zM987 261q-109 0 -168 -42t-59 -111t52 -104t138 -35q120 0 174 57q53 56 59 209q-89 26 -196 26zM1621 1042q-83 0 -138 52t-55 134t55 134t138 52q84 0 139 -52t55 -134t-55 -134t-139 -52zM1621 1140q39 0 63 25t24 63t-24 64
q-24 25 -63 25q-38 0 -62 -25q-24 -26 -24 -64t24 -63t62 -25z" />
    <glyph glyph-name="glyph635" unicode="&#x3072;" horiz-adv-x="2048" 
d="M1790 560l-149 -105q-120 155 -208 367q37 -141 37 -269q0 -289 -164 -479q-163 -188 -441 -190q-235 -2 -374 143q-140 146 -140 400q0 202 88 377t233 300l-388 -48l-25 156l582 67l20 -155q-326 -315 -326 -695q0 -183 88 -287q89 -105 238 -104q196 2 314 159
q119 158 119 418q0 390 -110 671l169 59q55 -187 170 -396q118 -213 267 -389z" />
    <glyph glyph-name="glyph636" unicode="&#x3073;" horiz-adv-x="2048" 
d="M1747 496l-149 -105q-120 155 -208 367q37 -141 37 -269q0 -288 -164 -478t-441 -191q-234 -2 -374 144t-140 400q0 201 88 376q89 176 232 300l-387 -48l-25 157l582 66l20 -155q-326 -315 -326 -694q0 -183 88 -287q89 -105 238 -104q196 2 314 158q119 158 119 419
q0 390 -110 671l169 59q55 -187 170 -396q119 -216 267 -390zM1406 1330l113 31q83 -139 114 -267l-112 -32q-34 128 -115 268zM1607 1377l113 32q82 -139 114 -267l-113 -32q-35 129 -114 267z" />
    <glyph glyph-name="glyph637" unicode="&#x3074;" horiz-adv-x="2048" 
d="M1745 491l-150 -105q-120 155 -208 367q37 -141 37 -269q0 -289 -164 -479t-441 -191q-234 -2 -374 144t-140 400q0 201 89 377t232 300l-387 -48l-26 156l582 67l21 -155q-327 -316 -327 -695q0 -181 89 -287q89 -105 238 -104q196 2 314 159q119 158 119 418
q0 388 -111 671l170 59q56 -191 169 -396q116 -210 268 -389zM1641 1042q-83 0 -138 52t-55 134t55 134t138 52q84 0 139 -52t55 -134t-55 -134t-139 -52zM1641 1140q40 0 63 24q24 26 24 64t-24 64q-24 25 -63 25q-38 0 -62 -25q-24 -26 -24 -64t24 -64q23 -24 62 -24z" />
    <glyph glyph-name="glyph638" unicode="&#x3075;" horiz-adv-x="2048" 
d="M564 543l148 -84q-64 -116 -159 -242q-93 -124 -199 -225l-138 100q96 90 195 217q96 123 153 234zM1324 178q0 -158 -101 -235q-100 -76 -281 -76q-154 0 -262 42l-7 157q132 -44 262 -44q204 0 204 147q0 57 -38 116t-92 110q-18 17 -54.5 51t-54.5 51q-57 54 -93 114
q-38 64 -38 126q0 69 49 133t165 136l119 -111q-80 -51 -117 -90q-32 -34 -32 -68q0 -36 38 -85q32 -41 93 -97q63 -58 109 -105q56 -57 92 -127q39 -75 39 -145zM1368 1166l-63 -140q-283 128 -616 196l67 140q323 -64 612 -196zM1834 81l-168 -78q-33 138 -110 308
q-76 166 -164 279l151 71q90 -116 171 -281q83 -169 120 -299z" />
    <glyph glyph-name="glyph639" unicode="&#x3076;" horiz-adv-x="2048" 
d="M563 502l148 -85q-64 -116 -159 -242q-91 -121 -199 -224l-138 99q93 87 195 218q96 123 153 234zM1323 137q0 -158 -101 -235q-100 -76 -281 -76q-154 0 -262 42l-7 157q135 -45 262 -45q204 0 204 148q0 57 -38 116q-34 54 -93 109l-108 102q-57 54 -93 114
q-38 64 -38 126q0 70 49 134t165 136l119 -111q-80 -51 -117 -90q-32 -34 -32 -69t38 -84q35 -45 93 -98q63 -58 109 -105q56 -57 92 -127q39 -75 39 -144zM1367 1125l-63 -140q-280 127 -615 195l66 140q327 -64 612 -195zM1833 39l-168 -77q-32 136 -110 307
q-76 166 -164 279l151 72q90 -116 171 -281q83 -168 120 -300zM1402 1324l112 31q84 -142 115 -267l-113 -31q-34 129 -114 267zM1603 1372l112 31q83 -139 114 -267l-112 -31q-35 129 -114 267z" />
    <glyph glyph-name="glyph640" unicode="&#x3077;" horiz-adv-x="2048" 
d="M561 496l147 -84q-67 -121 -158 -242q-93 -124 -199 -225l-138 100q96 90 195 217q96 123 153 234zM1320 131q0 -159 -100 -235t-281 -76q-154 0 -262 42l-7 157q132 -44 261 -44q205 0 205 147q0 58 -38 117q-34 54 -93 109q-18 17 -54.5 51t-54.5 51q-55 52 -92 114
q-38 64 -38 126q0 69 49 133q50 65 164 136l120 -111q-85 -54 -118 -89q-31 -32 -31 -69q0 -36 38 -85q32 -41 93 -97q63 -58 109 -105q56 -57 92 -127q38 -73 38 -145zM1365 1119l-63 -140q-283 128 -616 196l67 140q323 -64 612 -196zM1831 34l-168 -78q-33 138 -110 308
q-75 164 -164 278l151 72q87 -112 170 -281q86 -174 121 -299zM1619 1036q-84 0 -139 52t-55 135q0 82 55 134t139 52t139 -52q54 -51 54 -134q0 -84 -54 -135q-55 -52 -139 -52zM1619 1134q38 0 62 25q25 27 25 64q0 36 -25 63q-24 25 -62 25q-39 0 -63 -25
q-24 -26 -24 -63q0 -39 24 -64t63 -25z" />
    <glyph glyph-name="glyph641" unicode="&#x3078;" horiz-adv-x="2048" 
d="M1837 202l-129 -132q-456 387 -826 868q-44 57 -68 57q-12 0 -28 -18q-17 -19 -55 -74q-149 -214 -382 -470l-138 120q194 180 398 468q50 70 102 105q49 33 110 33q115 0 207 -125q345 -469 809 -832z" />
    <glyph glyph-name="glyph642" unicode="&#x3079;" horiz-adv-x="2048" 
d="M1837 106l-129 -132q-456 387 -826 868q-44 57 -68 57q-12 0 -28 -18q-17 -19 -55 -74q-149 -214 -382 -470l-138 120q194 180 398 468q50 70 102 105q49 33 110 33q115 0 207 -125q342 -466 809 -832zM1547 883l-110 -45q-54 144 -172 295l104 54q113 -137 178 -304z
M1763 951l-110 -44q-53 142 -172 294l103 54q115 -140 179 -304z" />
    <glyph glyph-name="glyph143" unicode="&#x30fb;" horiz-adv-x="2048" 
d="M1137 589v-247h-226v247h226z" />
    <glyph glyph-name="glyph3932" unicode="&#x3131;" horiz-adv-x="1247" 
d="M102 1124v-172h723v-1005h320v991l-144 186h-899z" />
    <glyph glyph-name="glyph3933" unicode="&#x3132;" horiz-adv-x="1800" 
d="M102 1059h1596v-475h-322v319h-477v-319h-319v319h-478v156z" />
    <glyph glyph-name="glyph3934" unicode="&#x3133;" horiz-adv-x="1800" 
d="M102 1059h719v-475h-319v319h-400v156zM1575 739h123v-155h-262l-166 166l-164 -166h-262v155h123l143 144v176h322v-176z" />
    <glyph glyph-name="glyph3935" unicode="&#x3134;" horiz-adv-x="1245" 
d="M422 33v1089h-320v-1075l144 -186h897v172h-721z" />
    <glyph glyph-name="glyph3936" unicode="&#x3135;" horiz-adv-x="1800" 
d="M102 584v475h320v-320h399v-155h-719zM1575 739h123v-155h-262l-166 166l-164 -166h-262v155h123l143 144v176h322v-176z" />
    <glyph glyph-name="glyph3937" unicode="&#x3136;" horiz-adv-x="1800" 
d="M102 584v475h320v-320h399v-155h-719zM1432 1016h266v-156h-51v-172l-105 -104h-543l-104 104v172h-51v156h266v43h322v-43zM1325 739v119h-111v-119h111z" />
    <glyph glyph-name="glyph3938" unicode="&#x3137;" horiz-adv-x="1245" 
d="M422 950h721v172h-897l-144 -186v-889l144 -186h897v172h-721v917z" />
    <glyph glyph-name="glyph3939" unicode="&#x3138;" horiz-adv-x="1245" 
d="M422 33v917h225v-917h-225zM1143 33h-250v917h250v172h-897l-144 -186v-889l144 -186h897v172z" />
    <glyph glyph-name="glyph3940" unicode="&#x3139;" horiz-adv-x="1247" 
d="M1145 -139v172h-723v373h723v530l-144 186h-899v-172h723v-372h-723v-531l144 -186h899z" />
    <glyph glyph-name="glyph3941" unicode="&#x313a;" horiz-adv-x="1800" 
d="M881 1116v-334h-459v-63h459v-135h-779v334h459v63h-459v135h779zM1698 1116v-532h-322v397h-438v135h760z" />
    <glyph glyph-name="glyph3942" unicode="&#x313b;" horiz-adv-x="1800" 
d="M881 1116v-334h-459v-63h459v-135h-779v334h459v63h-459v135h779zM938 1116h760v-532h-760v532zM1376 719v262h-116v-262h116z" />
    <glyph glyph-name="glyph3943" unicode="&#x313c;" horiz-adv-x="1800" 
d="M1376 1116h322v-532h-760v532h322v-182h116v182zM1376 719v82h-116v-82h116zM881 1116v-334h-459v-63h459v-135h-779v334h459v63h-459v135h779z" />
    <glyph glyph-name="glyph3944" unicode="&#x313d;" horiz-adv-x="1783" 
d="M881 1116v-334h-459v-63h459v-135h-779v334h459v63h-459v135h779zM1620 719h61v-135h-231l-143 143l-144 -143h-231v135h61l154 153v244h319v-244z" />
    <glyph glyph-name="glyph3945" unicode="&#x313e;" horiz-adv-x="1800" 
d="M881 1116v-334h-459v-63h459v-135h-779v334h459v63h-459v135h779zM918 584v532h780v-135h-459v-63h459v-136h-459v-63h459v-135h-780z" />
    <glyph glyph-name="glyph3946" unicode="&#x313f;" horiz-adv-x="1798" 
d="M881 1116v-334h-459v-63h459v-135h-779v334h459v63h-459v135h779zM1696 981h-119v-262h119v-135h-778v135h120v262h-120v135h778v-135zM1358 719v262h-101v-262h101z" />
    <glyph glyph-name="glyph3947" unicode="&#x3140;" horiz-adv-x="1800" 
d="M821 1116v-334h-399v-63h399v-135h-719v334h400v63h-400v135h719zM1432 1036h266v-155h-51v-193l-105 -104h-543l-104 104v193h-51v155h266v80h322v-80zM1325 739v142h-111v-142h111z" />
    <glyph glyph-name="glyph3948" unicode="&#x3141;" horiz-adv-x="1245" 
d="M823 950v-917h-401v917h401zM1143 -139v1075l-144 186h-897v-1075l144 -186h897z" />
    <glyph glyph-name="glyph3949" unicode="&#x3142;" horiz-adv-x="1247" 
d="M422 33v373h403v-373h-403zM1145 -139v1261h-320v-544h-403v544h-320v-1075l144 -186h899z" />
    <glyph glyph-name="glyph3950" unicode="&#x3143;" horiz-adv-x="1251" 
d="M750 33v373h161v-373h-161zM340 33v373h170v-373h-170zM1149 1122h-238v-544h-161v544h-240v-544h-170v544h-238v-1075l144 -186h903v1261z" />
    <glyph glyph-name="glyph3951" unicode="&#x3144;" horiz-adv-x="1800" 
d="M561 918v141h320v-475h-779v475h320v-141h139zM561 719v63h-139v-63h139zM1606 739h92v-155h-234l-164 166l-163 -166h-232v155h92l144 144v176h321v-176z" />
    <glyph glyph-name="glyph3952" unicode="&#x3145;" horiz-adv-x="1247" 
d="M745 276v846h-247v-846l-189 -243h-207v-172h428l93 119l90 -119h432v172h-211z" />
    <glyph glyph-name="glyph3953" unicode="&#x3146;" horiz-adv-x="1245" 
d="M913 102v1020h-245v-1020l-47 -34l-48 34v1020h-245v-1020l-80 -104h-146v-137h256l93 119l92 -119h155l93 119l92 -119h260v137h-150z" />
    <glyph glyph-name="glyph3954" unicode="&#x3147;" horiz-adv-x="1247" 
d="M422 33v917h401v-917h-401zM899 1122h-551q-102 0 -174 -92t-72 -223v-643q0 -131 71 -217t173 -86h553q100 0 172 92t74 223v643q-1 130 -73 217q-71 86 -173 86z" />
    <glyph glyph-name="glyph3955" unicode="&#x3148;" horiz-adv-x="1245" 
d="M1143 33h-211l-189 243v674h400v172h-1041v-172h394v-674l-189 -243h-205v-172h426l93 119l90 -119h432v172z" />
    <glyph glyph-name="glyph3956" unicode="&#x3149;" horiz-adv-x="1245" 
d="M573 102v848h93v-848l-45 -34zM1143 -2h-150l-80 104v848h230v172h-1041v-172h224v-848l-80 -104h-144v-137h256l93 119l90 -119h157l93 119l90 -119h262v137z" />
    <glyph glyph-name="glyph3957" unicode="&#x314a;" horiz-adv-x="1245" 
d="M1143 33h-207l-188 243v353h395v170h-395v323h-246v-323h-400v-170h400v-353l-189 -243h-211v-172h430l93 119l92 -119h426v172z" />
    <glyph glyph-name="glyph3958" unicode="&#x314b;" horiz-adv-x="1247" 
d="M102 1124v-172h723v-374h-723v-170h723v-547h320v1077l-144 186h-899z" />
    <glyph glyph-name="glyph3959" unicode="&#x314c;" horiz-adv-x="1245" 
d="M422 950h721v172h-897l-144 -186v-889l144 -186h897v172h-721v375h721v172h-721v370z" />
    <glyph glyph-name="glyph3960" unicode="&#x314d;" horiz-adv-x="1245" 
d="M461 33v917h323v-807l64 -80v-14v-16h-387zM1143 33h-121v917h121v172h-1041v-172h121v-807l64 -80v-14v-16h-185v-172h1041v172z" />
    <glyph glyph-name="glyph3961" unicode="&#x314e;" horiz-adv-x="1249" 
d="M770 920v213h-319v-213h-349v-172h1045v172h-377zM424 31v411h403v-411h-403zM891 614h-533q-104 0 -179 -97q-76 -98 -77 -232v-109q0 -134 75 -226q75 -91 181 -91h533q103 0 180 96q76 95 76 233v109q0 135 -75 226t-181 91z" />
    <glyph glyph-name="glyph3962" unicode="&#x314f;" horiz-adv-x="874" 
d="M1069 547v-731h-319v1720h319v-731h227v-258h-227z" />
    <glyph glyph-name="glyph3963" unicode="&#x3150;" horiz-adv-x="1024" 
d="M1370 1536v-1720h-319v731h-58v-731h-319v1720h319v-731h58v731h319z" />
    <glyph glyph-name="glyph3964" unicode="&#x3151;" horiz-adv-x="874" 
d="M1069 1034h227v-258h-227v-201h227v-258h-227v-501h-319v1720h319v-502z" />
    <glyph glyph-name="glyph3965" unicode="&#x3152;" horiz-adv-x="1024" 
d="M993 776v-201h58v201h-58zM1370 1536v-1720h-319v501h-58v-501h-319v1720h319v-502h58v502h319z" />
    <glyph glyph-name="glyph3966" unicode="&#x3153;" horiz-adv-x="950" 
d="M1335 1536v-1720h-319v731h-305v258h305v731h319z" />
    <glyph glyph-name="glyph3967" unicode="&#x3154;" horiz-adv-x="1226" 
d="M776 547h-203v258h203v731h320v-1720h-320v731zM1153 -184v1720h320v-1720h-320z" />
    <glyph glyph-name="glyph3968" unicode="&#x3155;" horiz-adv-x="950" 
d="M1335 1536v-1720h-319v501h-305v258h305v201h-305v258h305v502h319z" />
    <glyph glyph-name="glyph3969" unicode="&#x3156;" horiz-adv-x="1226" 
d="M776 776h-203v258h203v502h320v-1720h-320v501h-203v258h203v201zM1153 -184v1720h320v-1720h-320z" />
    <glyph glyph-name="glyph3970" unicode="&#x3157;" horiz-adv-x="1921" 
d="M862 74v469h320v-469h318h319v-258h-1594v258h319h318z" />
    <glyph glyph-name="glyph3971" unicode="&#x3158;" horiz-adv-x="2148" 
d="M1706 803v733h-320v-1546h-579v368h-320v-368h-188h-186v-172h1593v813h227v172h-227z" />
    <glyph glyph-name="glyph3972" unicode="&#x3159;" horiz-adv-x="1921" 
d="M225 -182h1217v813h57v-813h320v1718h-320v-733h-57v733h-320v-1546h-348v368h-319v-368h-116h-114v-172z" />
    <glyph glyph-name="glyph3973" unicode="&#x315a;" horiz-adv-x="1921" 
d="M1819 1536h-320v-1546h-590v368h-319v-368h-182h-183v-172h1594v1718z" />
    <glyph glyph-name="glyph3974" unicode="&#x315b;" horiz-adv-x="1921" 
d="M1153 74v469h322v-469h172h172v-258h-1594v258h185h184v469h319v-469h121h119z" />
    <glyph glyph-name="glyph3975" unicode="&#x315c;" horiz-adv-x="1921" 
d="M1819 311v-258h-637v-422h-320v422h-637v258h1594z" />
    <glyph glyph-name="glyph3976" unicode="&#x315d;" horiz-adv-x="1921" 
d="M1499 1536v-1204h-1274v-172h477v-449h320v449h477v-94h-305v-172h305v-183h320v1825h-320z" />
    <glyph glyph-name="glyph3977" unicode="&#x315e;" horiz-adv-x="1921" 
d="M1122 1536v-1204h-897v-172h281v-449h319v449h297v-94h-202v-172h202v-183h320v1825h-320zM1499 1536v-1825h320v1825h-320z" />
    <glyph glyph-name="glyph3978" unicode="&#x315f;" horiz-adv-x="1921" 
d="M1819 1536h-320v-1204h-1274v-172h477v-445h320v445h477v-445h320v1821z" />
    <glyph glyph-name="glyph3979" unicode="&#x3160;" horiz-adv-x="1921" 
d="M1819 311v-258h-344v-422h-322v422h-240v-422h-319v422h-369v258h1594z" />
    <glyph glyph-name="glyph3980" unicode="&#x3161;" horiz-adv-x="1921" 
d="M225 -123v258h1594v-258h-1594z" />
    <glyph glyph-name="glyph3981" unicode="&#x3162;" horiz-adv-x="1921" 
d="M1819 1536h-320v-1546h-638h-636v-172h1594v1718z" />
    <glyph glyph-name="glyph3982" unicode="&#x3163;" horiz-adv-x="647" 
d="M862 -182v1718h320v-1720z" />
    <glyph glyph-name="glyph159" unicode="&#x3165;" horiz-adv-x="2048" 
d="M976 331v-175h-584v916h199v-741h385zM1658 331v-175h-603v916h199v-741h404z" />
    <glyph glyph-name="glyph160" unicode="&#x3166;" horiz-adv-x="2048" 
d="M980 331v-175h-585v916h200v-741h385zM1258 331h395v-175h-594v916h582v-175h-383v-566z" />
    <glyph glyph-name="glyph161" unicode="&#x3167;" horiz-adv-x="2048" 
d="M936 332v-175h-551v916h199v-741h352zM1233 732v341h199v-341q0 -170 58 -264t173 -139v-174q-106 25 -198 89q-88 61 -132 140q-39 -76 -131 -140q-88 -61 -201 -89v174q116 45 174 139t58 264z" />
    <glyph glyph-name="glyph162" unicode="&#x3168;" horiz-adv-x="2048" 
d="M936 295v-175h-551v916h199v-741h352zM1301 1109l362 -989h-727zM1301 684l-132 -406h258z" />
    <glyph glyph-name="glyph163" unicode="&#x3169;" horiz-adv-x="2048" 
d="M794 319v-160h-524v538h286v218h-286v160h452v-534h-286v-222h358zM1212 1075v-916h-171v743h-260v173h431zM1435 719v356h171v-356q0 -302 172 -390v-175q-81 24 -149 80q-69 57 -107 124q-34 -67 -106 -125q-68 -55 -154 -79v175q86 41 129 132q44 93 44 258z" />
    <glyph glyph-name="glyph164" unicode="&#x316a;" horiz-adv-x="2048" 
d="M997 315v-159h-604v539h378v219h-378v158h571v-532h-380v-225h413zM1274 331h381v-175h-580v916h569v-175h-370v-566z" />
    <glyph glyph-name="glyph165" unicode="&#x316b;" horiz-adv-x="2048" 
d="M733 319v-160h-461v538h269v218h-269v160h435v-534h-269v-222h295zM945 773h131v302h164v-916h-457v916h162v-302zM945 616v-289h131v289h-131zM1441 719v356h171v-356q0 -305 168 -390v-175q-80 24 -148 80q-65 54 -106 124q-36 -70 -104 -124q-70 -56 -153 -80v175
q86 41 129 133t43 257z" />
    <glyph glyph-name="glyph166" unicode="&#x316c;" horiz-adv-x="2048" 
d="M386 120v539h365v219h-365v158h556v-532h-365v-225h391v-112l343 941l356 -988h-1281zM1311 692l-131 -413h256z" />
    <glyph glyph-name="glyph167" unicode="&#x316d;" horiz-adv-x="2048" 
d="M976 328v-159h-592v538h351v220h-351v158h544v-532h-352v-225h400zM1664 912h-660v173h660v-173zM1017 462q0 167 116 257q81 62 199 62q106 0 184 -51q131 -84 131 -268q0 -174 -123 -263q-82 -56 -192 -56q-106 0 -186 52q-129 85 -129 267zM1453 462q0 88 -47 129
q-29 26 -72 26q-53 0 -80 -27q-42 -39 -42 -128q0 -94 48 -132q26 -22 74 -22q50 0 79 29q40 40 40 125z" />
    <glyph glyph-name="glyph168" unicode="&#x316e;" horiz-adv-x="2048" 
d="M398 1072h579v-916h-579v916zM586 905v-583h203v583h-203zM1257 768h205v304h188v-916h-581v916h188v-304zM1257 613v-291h205v291h-205z" />
    <glyph glyph-name="glyph169" unicode="&#x316f;" horiz-adv-x="2048" 
d="M391 1072h579v-916h-579v916zM579 905v-583h203v583h-203zM1239 717v355h199v-355q0 -163 56 -255t166 -134v-173q-106 24 -189 83q-86 60 -132 136q-43 -75 -131 -136t-192 -83v173q112 42 167 133q56 92 56 256z" />
    <glyph glyph-name="glyph170" unicode="&#x3170;" horiz-adv-x="2048" 
d="M387 120v916h579v-881l347 953l355 -988h-1281zM575 869v-583h203v583h-203zM1313 692l-131 -413h256z" />
    <glyph glyph-name="glyph171" unicode="&#x3171;" horiz-adv-x="2048" 
d="M554 1284h940v-667h-940v667zM631 232q0 117 87 192q112 97 306 97t306 -97q87 -75 87 -192q0 -114 -87 -192q-110 -96 -306 -96t-306 96q-87 78 -87 192zM1299 1117h-550v-332h550v332zM827 232q0 -47 33 -77q54 -45 164 -45q108 0 162 45q35 32 35 77t-35 77
q-52 46 -162 46q-112 0 -164 -46q-33 -30 -33 -77z" />
    <glyph glyph-name="glyph172" unicode="&#x3172;" horiz-adv-x="2048" 
d="M586 768h231v304h188v-916h-607v916h188v-304zM586 613v-291h231v291h-231zM1650 1072v-916h-199v743h-360v173h559z" />
    <glyph glyph-name="glyph173" unicode="&#x3173;" horiz-adv-x="2048" 
d="M581 768h212v304h188v-916h-588v916h188v-304zM581 613v-291h212v291h-212zM1277 331h378v-175h-577v916h566v-175h-367v-566z" />
    <glyph glyph-name="glyph174" unicode="&#x3174;" horiz-adv-x="2048" 
d="M502 773h139v302h166v-916h-469v916h164v-302zM502 616v-289h139v289h-139zM1009 719v356h172v-356q0 -303 164 -390v-175q-81 25 -145 80q-67 58 -104 124q-39 -71 -104 -125q-66 -54 -149 -79v175q82 40 124 133t42 257zM1710 1075v-916h-172v743h-247v173h419z" />
    <glyph glyph-name="glyph175" unicode="&#x3175;" horiz-adv-x="2048" 
d="M494 773h125v302h164v-916h-451v916h162v-302zM494 616v-289h125v289h-125zM971 710v365h168v-365q0 -162 39 -251q39 -88 118 -130v-175q-76 26 -141 78q-63 51 -101 117q-34 -66 -97 -118q-61 -51 -142 -77v175q79 42 118 130q38 86 38 251zM1703 1075v-173h-215v-570
h228v-173h-387v916h374z" />
    <glyph glyph-name="glyph176" unicode="&#x3176;" horiz-adv-x="2048" 
d="M578 769h212v304h188v-916h-588v916h188v-304zM578 614v-291h212v291h-212zM1653 898h-207v-180q0 -303 212 -389v-174q-100 22 -183 83q-83 60 -128 137q-44 -77 -128 -137q-82 -59 -186 -83v174q214 81 214 389v180h-199v175h605v-175z" />
    <glyph glyph-name="glyph177" unicode="&#x3177;" horiz-adv-x="2048" 
d="M580 768h212v304h188v-916h-588v916h188v-304zM580 613v-291h212v291h-212zM1273 314h383v-158h-575v916h562v-159h-370v-219h352v-155h-352v-225z" />
    <glyph glyph-name="glyph178" unicode="&#x3178;" horiz-adv-x="2048" 
d="M749 1095h550v190h195v-667h-940v667h195v-190zM631 233q0 117 87 192q112 97 306 97t306 -97q87 -75 87 -192q0 -114 -87 -192q-110 -96 -306 -96t-306 96q-87 78 -87 192zM1299 930h-550v-144h550v144zM827 233q0 -48 33 -78q53 -44 164 -44q109 0 162 44q35 32 35 78
q0 45 -35 77q-52 46 -162 46q-112 0 -164 -46q-33 -30 -33 -77z" />
    <glyph glyph-name="glyph179" unicode="&#x3179;" horiz-adv-x="2048" 
d="M709 1094h228v190h188v-190h216v190h190v-667h-1014v667h192v-190zM631 232q0 116 87 191q113 98 306 98t306 -98q87 -75 87 -191q0 -114 -87 -192q-110 -96 -306 -96t-306 96q-87 78 -87 192zM937 934h-228v-155h228v155zM827 232q0 -48 33 -78q53 -44 164 -44
q109 0 162 44q35 32 35 78q0 45 -35 77q-52 46 -162 46q-112 0 -164 -46q-33 -30 -33 -77zM1341 934h-216v-155h216v155z" />
    <glyph glyph-name="glyph180" unicode="&#x317a;" horiz-adv-x="2048" 
d="M651 732v341h199v-341q0 -170 58 -264q59 -95 172 -140v-173q-107 25 -197 88q-90 62 -133 140q-40 -77 -130 -140q-89 -62 -200 -88v173q115 45 173 139t58 265zM1064 1073h564v-917h-199v741h-365v176z" />
    <glyph glyph-name="glyph181" unicode="&#x317b;" horiz-adv-x="2048" 
d="M615 718v355h199v-355q0 -165 56 -255q57 -92 165 -134v-174q-103 24 -189 84t-132 136q-43 -76 -130 -136q-91 -63 -190 -84v174q110 42 165 133q56 92 56 256zM1654 332v-175h-547v916h199v-741h348z" />
    <glyph glyph-name="glyph182" unicode="&#x317c;" horiz-adv-x="2048" 
d="M602 718v355h199v-355q0 -165 56 -255q57 -92 165 -134v-174q-104 24 -189 84q-86 60 -132 136q-43 -76 -130 -136q-91 -63 -190 -84v174q110 42 165 133q56 92 56 256zM1278 332h389v-175h-588v916h577v-175h-378v-566z" />
    <glyph glyph-name="glyph183" unicode="&#x317d;" horiz-adv-x="2048" 
d="M599 692v355h199v-355q0 -164 57 -255q58 -93 164 -134v-174q-102 24 -188 84t-132 136q-44 -78 -130 -137q-89 -61 -191 -83v174q110 42 165 133q56 92 56 256zM1274 743h208v304h188v-916h-584v916h188v-304zM1274 588v-291h208v291h-208z" />
    <glyph glyph-name="glyph184" unicode="&#x317e;" horiz-adv-x="2048" 
d="M1679 898h-252v-92q0 -356 269 -475v-176q-116 34 -217 111q-99 76 -155 166q-48 -87 -127 -161q-82 -76 -172 -116q-90 39 -173 115q-82 76 -128 162q-54 -89 -154 -165q-102 -78 -218 -112v176q269 117 269 475v267h201v-267q0 -318 201 -455q93 66 148 178
q55 113 55 277v92h-236v175h689v-175z" />
    <glyph glyph-name="glyph185" unicode="&#x317f;" horiz-adv-x="2048" 
d="M415 100l604 1029l614 -1029h-1218zM1018 784l-303 -531h614z" />
    <glyph glyph-name="glyph186" unicode="&#x3180;" horiz-adv-x="2048" 
d="M361 614q0 294 131 411q74 65 186 65t188 -65q131 -117 131 -411q0 -297 -130 -411q-74 -64 -188 -64t-187 64q-131 114 -131 411zM549 614q0 -212 56 -276q30 -33 73 -33q47 0 74 33q57 64 57 276q0 210 -57 275q-27 33 -74 33q-43 0 -73 -33q-56 -64 -56 -275z
M1051 614q0 294 131 411q74 65 186 65t188 -65q131 -117 131 -411q0 -297 -131 -411q-74 -64 -188 -64q-113 0 -186 64q-131 114 -131 411zM1239 614q0 -214 55 -276q30 -33 74 -33q46 0 73 33q58 66 58 276q0 209 -58 275q-27 33 -73 33q-44 0 -74 -33q-55 -62 -55 -275z
" />
    <glyph glyph-name="glyph187" unicode="&#x3181;" horiz-adv-x="2048" 
d="M1125 1172v-271q228 -22 356 -134q131 -111 131 -286q0 -173 -131 -284q-160 -140 -457 -140t-457 140q-131 111 -131 284q0 175 131 286q134 114 357 134v271h201zM635 481q0 -96 76 -161q101 -88 313 -88q209 0 313 88q74 65 74 161q0 97 -74 160q-108 90 -313 90
q-208 0 -313 -90q-76 -62 -76 -160z" />
    <glyph glyph-name="glyph188" unicode="&#x3182;" horiz-adv-x="2048" 
d="M794 1104v-225q55 -16 101 -52q120 -97 120 -318q0 -223 -120 -319q-79 -65 -203 -65q-122 0 -201 65q-119 95 -119 319q0 221 119 318q45 36 102 52v225h201zM560 508q0 -137 47 -184q29 -33 85 -33q57 0 87 33q48 51 48 184q0 134 -48 185q-31 31 -87 31q-57 0 -85 -31
q-47 -47 -47 -185zM1247 717v341h199v-341q0 -170 58 -264q59 -95 172 -140v-173q-107 25 -197 88q-88 61 -132 140q-39 -74 -131 -139q-88 -61 -201 -89v173q114 44 173 140q59 95 59 264z" />
    <glyph glyph-name="glyph189" unicode="&#x3183;" horiz-adv-x="2048" 
d="M787 1090v-225q59 -17 102 -51q119 -97 119 -319q0 -224 -119 -319q-79 -65 -203 -65q-122 0 -201 65q-120 96 -120 319q0 221 120 319q44 35 101 51v225h201zM553 495q0 -137 48 -185q29 -33 85 -33t86 33q48 51 48 185q0 133 -48 184q-31 31 -86 31q-57 0 -85 -31
q-48 -48 -48 -184zM1327 1118l356 -990h-717zM1327 692l-127 -406h249z" />
    <glyph glyph-name="glyph190" unicode="&#x3184;" horiz-adv-x="2048" 
d="M480 617v166h196v336h-159v165h1014v-165h-153v-115q0 -143 -31 -221h221v-166h-1088zM631 232q0 117 87 192q112 97 306 97t306 -97q87 -75 87 -192q0 -114 -87 -192q-110 -96 -306 -96t-306 96q-87 78 -87 192zM827 232q0 -47 33 -77q54 -45 164 -45q108 0 162 45
q35 32 35 77t-35 77q-52 46 -162 46q-112 0 -164 -46q-33 -30 -33 -77zM871 1119v-336h282q30 72 30 206v130h-312z" />
    <glyph glyph-name="glyph191" unicode="&#x3185;" horiz-adv-x="2048" 
d="M991 782h-621v170h223v178h204v-178h194v-170zM388 399q0 151 98 232q80 68 206 68t209 -68q97 -82 97 -232q0 -152 -97 -234q-81 -67 -209 -67q-127 0 -206 67q-98 81 -98 234zM578 399q0 -76 35 -111q26 -29 79 -29q55 0 81 29q35 38 35 111q0 72 -35 110
q-28 28 -81 28q-51 0 -79 -28q-35 -35 -35 -110zM1660 399q0 -151 -98 -234q-81 -67 -208 -67q-128 0 -207 67q-97 81 -97 234q0 151 97 232q80 68 207 68q125 0 208 -68q98 -83 98 -232zM1678 782h-623v170h194v178h204v-178h225v-170zM1470 399q0 72 -35 110
q-28 28 -81 28q-51 0 -79 -28q-35 -35 -35 -110q0 -76 35 -111q26 -29 79 -29q55 0 81 29q35 38 35 111z" />
    <glyph glyph-name="glyph192" unicode="&#x3186;" horiz-adv-x="2048" 
d="M463 1085h1124v-173h-1124v173zM527 475q0 139 98 223q131 111 400 111q267 0 398 -111q99 -85 99 -223q0 -139 -99 -221q-129 -110 -398 -110q-271 0 -400 110q-98 81 -98 221zM1322 475q0 61 -45 98q-74 65 -252 65q-181 0 -255 -65q-44 -36 -44 -98q0 -58 44 -97
q74 -63 255 -63q179 0 252 63q45 40 45 97z" />
    <glyph glyph-name="glyph193" unicode="&#x3187;" horiz-adv-x="2048" 
d="M1837 824h-280v-306h280v-174h-280v-564h-201v159q-206 -2 -371 -2h-774v173h231v588h200v-588h214v588h201v-588h13h38t59 0.5t84 0.5h105v1337h201v-451h280v-173z" />
    <glyph glyph-name="glyph194" unicode="&#x3188;" horiz-adv-x="2048" 
d="M1540 1449h194v-1670h-194v550h-175v-527h-192v136h-859v173h166v586h194v-586h136v586h193v-586h170v1329h192v-446h175v455zM1540 506v311h-175v-311h175z" />
    <glyph glyph-name="glyph195" unicode="&#x3189;" horiz-adv-x="2048" 
d="M1521 1449h200v-1670h-200v159h-385h-21h-789v173h275v588h201v-588h214v588h201v-588h304v1338z" />
    <glyph glyph-name="glyph196" unicode="&#x318a;" horiz-adv-x="2048" 
d="M1532 1449h199v-1668h-199v166h-347v172h347v114h-347v171h347v1045zM1418 675v-175h-347v-721h-197v721h-159v-721h-199v721h-199v175h1101z" />
    <glyph glyph-name="glyph197" unicode="&#x318b;" horiz-adv-x="2048" 
d="M1535 -220v1670h194v-1670h-194zM1217 433v1008h193v-1640h-193v180h-218v172h218v108h-218v172h218zM1136 683v-175h-205v-729h-194v729h-92v-729h-193v729h-133v174h542q50 0 70 1h205z" />
    <glyph glyph-name="glyph198" unicode="&#x318c;" horiz-adv-x="2048" 
d="M1527 1450h199v-1670h-199v640h-321v-642h-199v642h-224v-642h-200v642h-261v175h877h7h321v855z" />
    <glyph glyph-name="glyph199" unicode="&#x318e;" horiz-adv-x="2048" 
d="M936 777v-247h-227v247h227zM1138 1448h201v-1668h-201v1668z" />
    <glyph glyph-name="glyph522" unicode="&#x3200;" horiz-adv-x="2048" 
d="M1582 1394q258 -360 258 -780q0 -419 -258 -779h-135q116 179 178 379q64 207 64 400t-64 400q-61 199 -178 380h135zM603 1394q-114 -175 -179 -380q-64 -202 -64 -400q0 -199 64 -401q65 -204 179 -378h-134q-260 362 -260 779q0 418 260 780h134zM589 801v164h847
v-703h-191v539h-656z" />
    <glyph glyph-name="glyph523" unicode="&#x3201;" horiz-adv-x="2048" 
d="M468 1393h134q-114 -175 -179 -380q-64 -202 -64 -400q0 -199 64 -401q65 -204 179 -378h-134q-260 362 -260 779q0 418 260 780zM1457 427v-166h-848v703h190v-537h658zM1581 1393q258 -360 258 -780q0 -419 -258 -779h-135q116 179 178 379q64 207 64 400t-64 400
q-61 199 -178 380h135z" />
    <glyph glyph-name="glyph524" unicode="&#x3202;" horiz-adv-x="2048" 
d="M1453 428v-166h-848v703h835v-164h-644v-373h657zM468 1394h135q-116 -178 -180 -380q-63 -199 -63 -400q0 -202 63 -401q64 -201 180 -378h-135q-260 362 -260 779q0 418 260 780zM1582 1394q258 -360 258 -780q0 -419 -258 -779h-135q116 179 178 379q63 204 63 400
t-63 400q-61 199 -178 380h135z" />
    <glyph glyph-name="glyph525" unicode="&#x3203;" horiz-adv-x="2048" 
d="M469 1394h135q-116 -178 -180 -380t-64 -400q0 -199 64 -401q64 -201 180 -378h-135q-260 362 -260 779q0 418 260 780zM1582 1394q259 -361 259 -780q0 -418 -259 -779h-134q116 179 178 379q63 204 63 400t-63 400q-61 199 -178 380h134zM1461 412v-163h-850v448h630
v116h-630v165h822v-445h-630v-121h658z" />
    <glyph glyph-name="glyph526" unicode="&#x3204;" horiz-adv-x="2048" 
d="M466 1393h135q-116 -178 -180 -380t-64 -400q0 -199 64 -401q64 -201 180 -378h-135q-260 362 -260 779q0 418 260 780zM602 964h835v-703h-835v703zM1247 427v373h-453v-373h453zM1579 1393q258 -360 258 -780q0 -419 -258 -779h-134q116 179 178 379q63 204 63 400
t-63 400q-61 199 -178 380h134z" />
    <glyph glyph-name="glyph527" unicode="&#x3205;" horiz-adv-x="2048" 
d="M468 1394h135q-116 -178 -180 -380q-63 -199 -63 -400q0 -202 63 -401q64 -201 180 -378h-135q-260 362 -260 779q0 418 260 780zM1582 1394q258 -360 258 -780q0 -419 -258 -779h-135q116 179 178 379q63 204 63 400t-63 400q-61 199 -178 380h135zM1250 965h190v-703
h-835v703h191v-216h454v216zM1250 428v157h-454v-157h454z" />
    <glyph glyph-name="glyph528" unicode="&#x3206;" horiz-adv-x="2048" 
d="M601 1392q-116 -178 -180 -380t-64 -399q0 -199 64 -401q64 -203 180 -379h-135q-260 362 -260 780q0 417 260 779h135zM1494 441v-168q-160 21 -280 85q-123 65 -188 157q-69 -95 -188 -158q-120 -64 -278 -82v166q175 27 272 129q98 103 98 269v162h192v-162
q0 -167 98 -270q98 -102 274 -128zM1579 1392q258 -360 258 -779q0 -420 -258 -780h-134q116 179 178 379q63 204 63 401q0 195 -63 399q-61 199 -178 380h134z" />
    <glyph glyph-name="glyph529" unicode="&#x3207;" horiz-adv-x="2048" 
d="M603 1394q-116 -178 -180 -380q-63 -199 -63 -400q0 -202 63 -401q64 -201 180 -378h-135q-260 362 -260 779q0 418 260 780h135zM1344 887q129 -102 129 -273q0 -164 -129 -272q-125 -98 -321 -98q-197 0 -322 98q-128 107 -128 272q0 169 128 273q125 98 322 98
q196 0 321 -98zM1217 469q64 55 64 145q0 91 -64 146q-68 61 -194 61q-127 0 -195 -61q-63 -57 -63 -146q0 -88 63 -145q71 -61 195 -61q126 0 194 61zM1582 1394q258 -360 258 -780q0 -419 -258 -779h-135q116 179 178 379q63 204 63 400t-63 400q-61 199 -178 380h135z
" />
    <glyph glyph-name="glyph530" unicode="&#x3208;" horiz-adv-x="2048" 
d="M603 1394q-116 -178 -180 -380q-63 -199 -63 -400q0 -202 63 -401q64 -201 180 -378h-135q-260 362 -260 779q0 418 260 780h135zM1473 417v-166q-147 21 -264 84q-120 64 -186 150q-69 -89 -187 -150t-265 -84v166q164 29 259 127t95 253v4h-339v164h874v-164h-341v-4
q0 -155 95 -253t259 -127zM1582 1394q258 -360 258 -780q0 -419 -258 -779h-135q116 179 178 379q63 204 63 400t-63 400q-61 199 -178 380h135z" />
    <glyph glyph-name="glyph531" unicode="&#x3209;" horiz-adv-x="2048" 
d="M1473 421v-166q-148 18 -266 78q-119 60 -186 147q-69 -87 -187 -147q-120 -61 -262 -80v168q144 22 237 99q91 75 111 201h-334v164h339v172h194v-172h341v-164h-336q20 -125 112 -201q93 -77 237 -99zM603 1394q-116 -178 -180 -380q-63 -199 -63 -400q0 -202 63 -401
q64 -201 180 -378h-135q-260 362 -260 779q0 418 260 780h135zM1582 1394q258 -360 258 -780q0 -419 -258 -779h-135q116 179 178 379q63 204 63 400t-63 400q-61 199 -178 380h135z" />
    <glyph glyph-name="glyph532" unicode="&#x320a;" horiz-adv-x="2048" 
d="M468 1394h135q-116 -178 -180 -380q-63 -199 -63 -400q0 -202 63 -401q64 -201 180 -378h-135q-260 362 -260 779q0 418 260 780zM605 801v164h835v-703h-190v238q-122 -18 -310 -18h-335v162h335q156 0 310 18v139h-645zM1582 1394q258 -360 258 -780q0 -419 -258 -779
h-135q116 179 178 379q63 204 63 400t-63 400q-61 199 -178 380h135z" />
    <glyph glyph-name="glyph533" unicode="&#x320b;" horiz-adv-x="2048" 
d="M468 1394h135q-116 -178 -180 -380q-63 -199 -63 -400q0 -202 63 -401q64 -201 180 -378h-135q-260 362 -260 779q0 418 260 780zM1582 1394q258 -360 258 -780q0 -419 -258 -779h-135q116 179 178 379q63 204 63 400t-63 400q-61 199 -178 380h135zM1460 412v-163h-850
v729h822v-165h-630v-116h617v-164h-617v-121h658z" />
    <glyph glyph-name="glyph534" unicode="&#x320c;" horiz-adv-x="2048" 
d="M606 1393q-114 -175 -179 -380q-64 -202 -64 -400q0 -199 64 -401q65 -204 179 -378h-134q-260 362 -260 779q0 418 260 780h134zM1585 1393q258 -360 258 -780q0 -419 -258 -779h-135q116 179 178 379q64 207 64 400t-64 400q-61 199 -178 380h135zM1310 427h188v-166
h-941v166h165v373h-140v164h889v-164h-137v-142q0 -147 -24 -231zM1143 649v151h-229v-373h207q22 75 22 222z" />
    <glyph glyph-name="glyph535" unicode="&#x320d;" horiz-adv-x="2048" 
d="M603 1394q-116 -178 -180 -380q-63 -199 -63 -400q0 -202 63 -401q64 -201 180 -378h-135q-260 362 -260 779q0 418 260 780h135zM553 754v163h371v147h195v-147h372v-163h-938zM1370 609q70 -64 70 -160q0 -98 -70 -159q-101 -94 -347 -94q-245 0 -346 94
q-72 63 -72 159q0 94 72 160q104 94 346 94q243 0 347 -94zM1226 401q24 21 24 48q0 29 -24 47q-54 45 -203 45q-151 0 -205 -45q-22 -20 -22 -47q0 -26 22 -48q54 -45 205 -45q149 0 203 45zM1582 1394q258 -360 258 -780q0 -419 -258 -779h-135q116 179 178 379
q63 204 63 400t-63 400q-61 199 -178 380h135z" />
    </font>
</defs>
</svg>
